<svg width="500" height="500" viewBox="0 0 500 500" fill="none" xmlns="http://www.w3.org/2000/svg">
<g clip-path="url(#clip0_59_1349)">
<rect width="500" height="500" rx="6" fill="#F9F0F5"/>
<path d="M192.665 202.924C175.596 196.944 182.424 148.869 141.365 174.7C132.064 180.56 120.774 219.052 128.57 227.923C139.469 240.409 212.812 209.98 192.665 202.924Z" fill="#263238"/>
<path d="M144.603 248.567C144.267 249.212 144.052 249.548 143.784 250.005L143.004 251.268C142.48 252.074 141.915 252.854 141.351 253.634C140.197 255.171 138.963 256.647 137.655 258.055C134.972 260.914 131.921 263.404 128.583 265.461C125.122 267.602 121.309 269.113 117.32 269.923C115.312 270.329 113.268 270.536 111.219 270.541C110.197 270.541 109.189 270.541 108.168 270.434L106.676 270.259L105.923 270.165L104.875 269.977C102.354 269.352 100.038 268.083 98.1548 266.294C96.6228 264.853 95.2692 263.233 94.1228 261.469C92.1063 258.322 90.4388 254.965 89.15 251.456C86.6735 244.819 84.9206 237.934 83.9219 230.92L89.7011 229.576C91.8244 235.798 94.3566 241.872 97.2812 247.76C98.6547 250.513 100.288 253.128 102.16 255.569C102.942 256.592 103.844 257.517 104.848 258.324C105.461 258.852 106.203 259.209 106.998 259.359L108.772 259.453C109.458 259.453 110.116 259.453 110.815 259.372C112.176 259.275 113.525 259.059 114.847 258.727C117.501 258.017 120.023 256.887 122.32 255.381C124.727 253.793 126.918 251.9 128.838 249.749C129.853 248.676 130.804 247.545 131.688 246.362C132.131 245.771 132.561 245.166 132.964 244.562L133.556 243.661L134.026 242.895L144.603 248.567Z" fill="#FF8B7B"/>
<path d="M147.856 234.602C135.76 234.602 126.231 245.785 126.231 245.785L141.015 265.676C141.015 265.676 152.936 254.467 154.213 248.123C155.476 241.511 155.114 234.562 147.856 234.602Z" fill="#263238"/>
<path d="M89.1231 232.492L94.3916 223.756L82.1747 224.066C82.1747 224.066 81.207 229.831 84.4326 233.474L89.1231 232.492Z" fill="#FF8B7B"/>
<path d="M93.9079 213.529L84.8762 215.45L82.1748 224.066L94.3918 223.756L93.9079 213.529Z" fill="#FF8B7B"/>
<path d="M313.276 501.171L304.526 508.953L283.708 491.199L292.444 483.417L313.276 501.171Z" fill="#FF8B7B"/>
<path d="M301.368 507.461L306.448 495.365C306.533 495.155 306.691 494.982 306.894 494.88C307.098 494.779 307.331 494.755 307.55 494.814L317.724 497.435C317.977 497.512 318.211 497.642 318.411 497.815C318.611 497.988 318.773 498.201 318.885 498.44C318.998 498.679 319.059 498.94 319.065 499.204C319.071 499.468 319.022 499.731 318.92 499.975C317.079 504.169 315.977 506.104 313.746 511.44C312.402 514.719 309.822 522.192 307.927 526.721C306.032 531.25 301.448 529.61 301.825 527.554C303.545 518.334 302.483 513.429 301.287 509.571C301.064 508.881 301.093 508.133 301.368 507.461Z" fill="#263238"/>
<path opacity="0.2" d="M292.457 483.417L283.708 491.199L294.446 500.352L303.196 492.57L292.457 483.417Z" fill="black"/>
<path d="M136.566 237.842C136.566 237.842 131.715 241.228 160.893 304.396L206.683 291.642C200.729 273.229 197.503 261.738 195.756 221.015C188.976 221.471 182.238 222.423 175.596 223.864C168.535 225.292 161.587 227.228 154.804 229.657C146.109 232.949 136.566 237.842 136.566 237.842Z" fill="#263238"/>
<path d="M167.021 201.029C167.572 208.085 169.709 220.706 175.609 223.877C175.987 229.06 175.34 234.267 173.705 239.2C172.07 244.132 169.479 248.695 166.08 252.626C150.194 244.373 154.818 229.67 154.818 229.67C161.78 225.813 160.046 220.329 157.291 215.491L167.021 201.029Z" fill="#FF8B7B"/>
<path opacity="0.2" d="M169.467 214.443L161.484 211.755C161.599 213.328 162 214.867 162.667 216.297C164.011 218.918 168.459 219.899 171.631 219.577C170.723 217.95 169.997 216.228 169.467 214.443Z" fill="black"/>
<path d="M143.824 193.651C146.915 204.846 147.977 209.644 154.925 214.268C165.395 221.203 178.472 214.967 178.795 203.072C179.091 192.32 173.997 175.856 161.941 173.679C159.284 173.186 156.546 173.38 153.985 174.244C151.425 175.107 149.128 176.611 147.313 178.612C145.497 180.613 144.224 183.046 143.613 185.678C143.002 188.31 143.075 191.055 143.824 193.651Z" fill="#FF8B7B"/>
<path d="M160.557 171.851C159.643 179.458 153.971 205.612 143.273 205.451C134.443 197.75 138.797 183.248 141.539 177.348C144.281 171.448 160.557 171.851 160.557 171.851Z" fill="#263238"/>
<path d="M156.054 177.241C161.43 180.103 172.007 181.353 170.327 176.985C168.647 172.617 169.131 168.921 161.847 169.082C154.562 169.244 156.054 177.241 156.054 177.241Z" fill="#263238"/>
<path d="M144.254 204.255C144.598 205.313 145.148 206.292 145.872 207.137C146.596 207.981 147.481 208.673 148.474 209.174C151.162 210.518 153.03 208.26 152.761 205.451C152.519 202.924 150.839 199.188 147.936 199.027C147.302 199.004 146.672 199.14 146.103 199.422C145.534 199.704 145.045 200.124 144.679 200.643C144.313 201.162 144.083 201.765 144.009 202.395C143.934 203.026 144.019 203.665 144.254 204.255Z" fill="#FF8B7B"/>
<path d="M160.893 304.396C160.893 304.396 158.205 396.891 165.664 431.808C173.365 468.096 188.418 520.055 188.418 520.055L210.352 518.993C210.352 518.993 199.735 453.137 197.154 425.047C193.606 386.34 194.466 295.056 194.466 295.056L160.893 304.396Z" fill="#EC0B43"/>
<path opacity="0.4" d="M160.893 304.396C160.893 304.396 158.205 396.891 165.664 431.808C173.365 468.096 188.418 520.055 188.418 520.055L210.352 518.993C210.352 518.993 199.735 453.137 197.154 425.047C193.606 386.34 194.466 295.056 194.466 295.056L160.893 304.396Z" fill="#FAFAFA"/>
<path opacity="0.2" d="M194.358 329.852C190.945 321.29 187.947 316.573 187.638 325.107C186.859 343.157 190.004 363.788 194.923 374.016C194.547 358.721 194.426 343.104 194.358 329.852Z" fill="black"/>
<path d="M172.989 301.023C172.989 301.023 201.065 376.583 220.029 418.3C235.31 452.008 289.487 499.088 289.487 499.088L301.798 488.686C301.798 488.686 262.634 435.006 252.07 412.078C218.228 338.924 227.058 307.931 206.71 291.575L172.989 301.023Z" fill="#EC0B43"/>
<path opacity="0.4" d="M172.989 301.023C172.989 301.023 201.065 376.583 220.029 418.3C235.31 452.008 289.487 499.088 289.487 499.088L301.798 488.686C301.798 488.686 262.634 435.006 252.07 412.078C218.228 338.924 227.058 307.931 206.71 291.575L172.989 301.023Z" fill="#FAFAFA"/>
<path d="M302.792 488.565L289.03 500.715L282.027 495.648L298.249 481.818L302.792 488.565Z" fill="#263238"/>
<path d="M206.616 288.712L209.828 292.233C210.07 292.515 209.828 292.946 209.25 293.08L161.242 306.52C160.826 306.641 160.422 306.52 160.328 306.278L158.769 302.246C158.662 301.964 158.957 301.628 159.414 301.493L205.769 288.591C205.909 288.537 206.06 288.52 206.208 288.541C206.356 288.562 206.497 288.621 206.616 288.712Z" fill="#EC0B43"/>
<path d="M201.831 295.687L203.081 295.338C203.323 295.271 203.471 295.096 203.417 294.935L201.347 289.774C201.347 289.626 201.038 289.559 200.796 289.626L199.546 289.975C199.304 290.042 199.143 290.217 199.21 290.378L201.28 295.539C201.334 295.687 201.616 295.754 201.831 295.687Z" fill="#263238"/>
<path d="M164.844 305.982L166.094 305.633C166.336 305.566 166.497 305.391 166.43 305.23L164.36 300.069C164.36 299.921 164.051 299.854 163.809 299.921L162.559 300.27C162.318 300.338 162.17 300.512 162.223 300.674L164.293 305.834C164.347 305.982 164.602 306.05 164.844 305.982Z" fill="#263238"/>
<path d="M183.337 300.808L184.587 300.459C184.829 300.459 184.977 300.217 184.923 300.055L182.8 294.921C182.8 294.773 182.491 294.706 182.249 294.773L180.999 295.123C180.757 295.123 180.609 295.365 180.663 295.526L182.733 300.687C182.8 300.808 183.096 300.902 183.337 300.808Z" fill="#263238"/>
<path d="M161.739 193.194C161.927 194.121 162.586 194.766 163.177 194.632C163.769 194.497 164.118 193.651 163.93 192.737C163.742 191.823 163.083 191.164 162.478 191.285C161.874 191.406 161.538 192.266 161.739 193.194Z" fill="#263238"/>
<path d="M172.182 190.99C172.371 191.917 173.016 192.562 173.62 192.441C174.225 192.32 174.561 191.46 174.36 190.533C174.158 189.605 173.526 188.96 172.922 189.095C172.317 189.229 172.048 190.076 172.182 190.99Z" fill="#263238"/>
<path d="M172.666 189.256L174.749 188.154C174.749 188.154 173.97 190.062 172.666 189.256Z" fill="#263238"/>
<path d="M169.75 193.167C171.018 195.101 172.547 196.851 174.292 198.368C173.896 198.813 173.406 199.164 172.857 199.396C172.309 199.628 171.716 199.736 171.12 199.712L169.75 193.167Z" fill="#FF5652"/>
<path d="M168.742 203.959C168.786 203.928 168.82 203.885 168.839 203.835C168.858 203.784 168.862 203.73 168.849 203.677C168.845 203.641 168.833 203.605 168.813 203.574C168.794 203.543 168.768 203.516 168.738 203.495C168.707 203.475 168.672 203.461 168.636 203.456C168.6 203.45 168.562 203.452 168.527 203.462C167.382 203.727 166.19 203.719 165.049 203.439C163.907 203.159 162.847 202.614 161.955 201.849C161.932 201.814 161.902 201.784 161.866 201.761C161.83 201.739 161.789 201.725 161.747 201.721C161.705 201.716 161.663 201.721 161.623 201.735C161.583 201.749 161.547 201.772 161.517 201.802C161.487 201.831 161.465 201.868 161.451 201.907C161.437 201.947 161.432 201.99 161.436 202.032C161.441 202.074 161.455 202.114 161.477 202.15C161.499 202.186 161.529 202.216 161.565 202.239C162.514 203.081 163.652 203.681 164.883 203.988C166.114 204.294 167.401 204.298 168.634 204L168.742 203.959Z" fill="#263238"/>
<path d="M158.084 190.398C158.167 190.347 158.233 190.272 158.272 190.183C158.551 189.547 158.977 188.985 159.514 188.544C160.051 188.102 160.685 187.794 161.363 187.643C161.436 187.633 161.505 187.61 161.569 187.573C161.632 187.536 161.687 187.488 161.731 187.429C161.776 187.371 161.808 187.305 161.827 187.235C161.846 187.164 161.85 187.091 161.84 187.018C161.831 186.946 161.807 186.876 161.77 186.813C161.734 186.75 161.685 186.694 161.627 186.65C161.569 186.606 161.503 186.573 161.432 186.555C161.361 186.536 161.288 186.531 161.216 186.541C160.351 186.714 159.54 187.093 158.853 187.645C158.165 188.197 157.62 188.906 157.264 189.713C157.211 189.823 157.196 189.949 157.222 190.069C157.248 190.188 157.313 190.296 157.407 190.375C157.501 190.454 157.619 190.499 157.742 190.503C157.864 190.507 157.985 190.47 158.084 190.398Z" fill="#263238"/>
<path d="M176.08 185.103H176.161C176.265 184.997 176.323 184.855 176.323 184.707C176.323 184.558 176.265 184.416 176.161 184.31C175.542 183.683 174.783 183.212 173.947 182.934C173.111 182.656 172.221 182.579 171.349 182.711C171.205 182.743 171.079 182.831 171 182.956C170.92 183.08 170.894 183.232 170.926 183.376C170.958 183.52 171.046 183.646 171.171 183.725C171.296 183.805 171.447 183.831 171.591 183.799C172.284 183.703 172.99 183.775 173.65 184.009C174.31 184.243 174.903 184.632 175.381 185.143C175.484 185.219 175.61 185.256 175.738 185.248C175.865 185.241 175.986 185.19 176.08 185.103Z" fill="#263238"/>
<path d="M203.982 231.578C205.016 232.775 206.307 234.172 207.516 235.476C208.726 236.78 210.03 238.07 211.32 239.333C213.914 241.847 216.575 244.306 219.384 246.591C224.777 251.156 230.735 255.009 237.111 258.055C243.025 260.743 250.215 261.886 257.432 262.396C261.061 262.665 264.744 262.759 268.44 262.692C272.136 262.625 275.899 262.477 279.501 262.195L280.59 268.028C272.969 269.984 265.16 271.115 257.298 271.401C253.261 271.557 249.217 271.408 245.202 270.958C241.007 270.503 236.885 269.528 232.931 268.055C229.098 266.581 225.397 264.783 221.87 262.679C218.408 260.627 215.089 258.341 211.938 255.838C208.811 253.379 205.814 250.759 202.96 247.989C201.522 246.645 200.138 245.18 198.767 243.728C197.396 242.277 196.079 240.852 194.735 239.132L203.982 231.578Z" fill="#FF8B7B"/>
<path d="M277.996 268.552L289.568 266.738L280.025 257.639C280.025 257.639 275.482 261.321 275.482 266.187L277.996 268.552Z" fill="#FF8B7B"/>
<path d="M295.803 257.571L287.753 253.029L280.011 257.706L289.567 266.791L295.803 257.571Z" fill="#FF8B7B"/>
<path d="M195.756 221.015C200.742 221.136 210.647 235.395 210.647 235.395L196.388 253.069C196.388 253.069 188.082 241.43 188.324 234.965C188.646 228.232 190.084 220.88 195.756 221.015Z" fill="#263238"/>
<path d="M162.223 191.393L164.306 190.291C164.306 190.291 163.54 192.266 162.223 191.393Z" fill="#263238"/>
<path d="M231.09 317.594C231.09 317.594 207.207 337.096 216.091 380.023C221.332 405.331 237.124 418.206 250.954 415.397C264.784 412.588 274.313 394.579 269.259 369.231C260.752 326.25 231.09 317.594 231.09 317.594Z" fill="#EC0B43"/>
<path opacity="0.2" d="M231.09 317.594C231.09 317.594 207.207 337.096 216.091 380.023C221.332 405.331 237.124 418.206 250.954 415.397C264.784 412.588 274.313 394.579 269.259 369.231C260.752 326.25 231.09 317.594 231.09 317.594Z" fill="white"/>
<path d="M381.712 234.32C381.712 234.32 337.857 224.576 296.731 273.404C272.539 302.206 271.988 331.881 287.659 345.173C303.33 358.466 332.535 353.157 356.996 324.543C398.418 276.011 381.712 234.32 381.712 234.32Z" fill="#EC0B43"/>
<path d="M324.054 40.5155C324.054 40.5155 314.257 43.2035 311.219 57.3289C309.418 65.6617 312.469 71.6425 317.012 72.6371C321.554 73.6317 326.823 69.4787 328.678 61.1728C331.823 47.0742 324.054 40.5155 324.054 40.5155Z" fill="#EC0B43"/>
<path d="M246.371 474.977C240.742 454.997 238.097 434.296 238.522 413.543C238.962 393.412 241.915 373.415 247.312 354.017C249.923 344.533 253.018 335.189 256.586 326.021C258.346 321.465 260.228 316.976 262.19 312.581C263.131 310.337 264.206 308.173 265.201 305.969L266.706 302.77L268.171 299.679C276.006 283.215 283.466 266.643 290.199 249.83C296.979 233.07 302.869 215.964 307.846 198.583C312.833 181.255 316.318 163.529 318.262 145.603C320.255 127.654 319.694 109.513 316.595 91.7219C313.356 73.682 306.473 56.4917 296.368 41.2009C308.345 55.5881 317.263 72.2664 322.576 90.2166C327.899 108.368 330.614 127.184 330.64 146.1C330.707 165.016 329.138 183.903 325.949 202.548C322.822 221.124 318.699 239.519 313.598 257.652C308.598 275.769 302.846 293.631 296.744 311.278L295.602 314.584L295.024 316.237L294.5 317.796C293.828 319.893 293.075 321.949 292.457 324.046C291.113 328.226 289.93 332.405 288.828 336.612C286.609 344.947 284.814 353.389 283.452 361.906C280.766 378.517 280.166 395.399 281.665 412.158C283.134 428.317 286.989 444.169 293.102 459.198L246.371 474.977Z" fill="#EC0B43"/>
<path opacity="0.2" d="M246.371 474.977C240.742 454.997 238.097 434.296 238.522 413.543C238.962 393.412 241.915 373.415 247.312 354.017C249.923 344.533 253.018 335.189 256.586 326.021C258.346 321.465 260.228 316.976 262.19 312.581C263.131 310.337 264.206 308.173 265.201 305.969L266.706 302.77L268.171 299.679C276.006 283.215 283.466 266.643 290.199 249.83C296.979 233.07 302.869 215.964 307.846 198.583C312.833 181.255 316.318 163.529 318.262 145.603C320.255 127.654 319.694 109.513 316.595 91.7219C313.356 73.682 306.473 56.4917 296.368 41.2009C308.345 55.5881 317.263 72.2664 322.576 90.2166C327.899 108.368 330.614 127.184 330.64 146.1C330.707 165.016 329.138 183.903 325.949 202.548C322.822 221.124 318.699 239.519 313.598 257.652C308.598 275.769 302.846 293.631 296.744 311.278L295.602 314.584L295.024 316.237L294.5 317.796C293.828 319.893 293.075 321.949 292.457 324.046C291.113 328.226 289.93 332.405 288.828 336.612C286.609 344.947 284.814 353.389 283.452 361.906C280.766 378.517 280.166 395.399 281.665 412.158C283.134 428.317 286.989 444.169 293.102 459.198L246.371 474.977Z" fill="black"/>
<path d="M339.013 426.929L337.669 442.304L328.718 542.204C328.567 543.903 327.785 545.484 326.526 546.636C325.268 547.788 323.623 548.427 321.917 548.427H208.403C206.698 548.423 205.055 547.784 203.797 546.633C202.539 545.481 201.757 543.902 201.602 542.204L192.665 442.304L191.321 426.929H339.013Z" fill="#242930"/>
<path d="M337.387 482.483L334.18 518.345L335.518 518.465L338.725 482.602L337.387 482.483Z" fill="#242930"/>
<path d="M341.379 462.247L340.613 470.755L341.957 470.876L342.723 462.368L341.379 462.247Z" fill="#242930"/>
<path d="M242.85 110.43C242.85 110.43 217.502 144.178 243.347 198.288C258.588 230.194 283.788 242.115 301.233 233.863C318.678 225.611 325.425 198.556 310.453 166.542C285.011 112.245 242.85 110.43 242.85 110.43Z" fill="#EC0B43"/>
<path opacity="0.2" d="M242.85 110.43C242.85 110.43 217.502 144.178 243.347 198.288C258.588 230.194 283.788 242.115 301.233 233.863C318.678 225.611 325.425 198.556 310.453 166.542C285.011 112.245 242.85 110.43 242.85 110.43Z" fill="black"/>
<path opacity="0.2" d="M339.013 426.929L337.629 442.304H192.665L191.281 426.929H339.013Z" fill="black"/>
<path d="M347.79 407.965H182.491C180.717 407.965 179.279 409.403 179.279 411.177V431.404C179.279 433.178 180.717 434.617 182.491 434.617H347.79C349.564 434.617 351.002 433.178 351.002 431.404V411.177C351.002 409.403 349.564 407.965 347.79 407.965Z" fill="#242930"/>
<g clip-path="url(#clip1_59_1349)">
<path d="M369.967 180.928C370.911 181.181 371.825 181.035 372.707 180.489C373.59 179.943 374.158 179.198 374.411 178.254L375.239 175.163C380.551 175.942 385.074 175.291 388.807 173.208C392.54 171.125 395.005 167.852 396.201 163.387C397.397 158.922 397.128 155.031 395.395 151.714C393.661 148.397 390.053 144.945 384.572 141.36C379.646 138.108 376.41 135.331 374.864 133.03C373.318 130.73 372.925 128.162 373.684 125.329C374.397 122.667 375.921 120.844 378.255 119.859C380.59 118.874 383.431 118.83 386.78 119.728C388.84 120.28 390.583 121.161 392.007 122.371C393.431 123.581 394.538 125.119 395.325 126.987C395.742 127.835 396.346 128.503 397.135 128.99C397.925 129.478 398.764 129.611 399.651 129.388C400.711 129.212 401.517 128.692 402.071 127.828C402.625 126.964 402.704 126.065 402.31 125.131C401.403 122.68 400.058 120.571 398.277 118.805C396.495 117.04 394.308 115.671 391.716 114.701L392.544 111.61C392.797 110.665 392.672 109.757 392.169 108.887C391.666 108.016 390.943 107.454 389.998 107.201C389.054 106.947 388.125 107.067 387.211 107.558C386.297 108.049 385.714 108.767 385.461 109.712L384.632 112.803C380.092 112.23 376.211 112.893 372.988 114.79C369.765 116.687 367.636 119.567 366.6 123.431C365.473 127.638 365.671 131.28 367.193 134.357C368.715 137.433 372.139 140.881 377.465 144.701C382.94 148.653 386.435 151.752 387.95 153.998C389.464 156.245 389.854 158.742 389.117 161.489C388.358 164.322 386.561 166.394 383.725 167.705C380.889 169.016 377.797 169.223 374.448 168.325C371.615 167.566 369.202 166.183 367.209 164.177C365.216 162.17 363.909 159.75 363.288 156.915C363.043 156.113 362.607 155.421 361.981 154.839C361.354 154.257 360.62 153.991 359.779 154.042C358.547 154.172 357.618 154.636 356.99 155.434C356.362 156.232 356.222 157.184 356.57 158.289C357.528 161.583 358.952 164.426 360.841 166.819C362.731 169.212 365.192 171.275 368.224 173.007L367.293 176.485C367.04 177.429 367.186 178.343 367.732 179.225C368.277 180.107 369.023 180.675 369.967 180.928ZM366.196 195.516C358.898 193.561 352.466 190.434 346.9 186.136C341.334 181.837 336.854 176.749 333.46 170.87C330.066 164.991 327.899 158.567 326.96 151.598C326.02 144.628 326.528 137.494 328.484 130.196C330.416 122.984 333.532 116.595 337.83 111.029C342.128 105.463 347.217 100.983 353.095 97.5885C358.974 94.1944 365.404 92.0062 372.385 91.024C379.366 90.0418 386.506 90.5285 393.804 92.484C401.016 94.4165 407.399 97.5533 412.954 101.894C418.508 106.236 422.983 111.345 426.377 117.224C429.771 123.103 431.959 129.533 432.941 136.514C433.924 143.495 433.449 150.591 431.516 157.804C429.56 165.102 426.412 171.528 422.071 177.083C417.73 182.637 412.62 187.112 406.741 190.506C400.862 193.9 394.438 196.067 387.469 197.006C380.499 197.945 373.409 197.449 366.196 195.516Z" fill="#242930"/>
</g>
</g>
<rect x="0.5" y="0.5" width="499" height="499" rx="5.5" stroke="#39414C" stroke-opacity="0.2"/>
<defs>
<clipPath id="clip0_59_1349">
<rect width="500" height="500" rx="6" fill="white"/>
</clipPath>
<clipPath id="clip1_59_1349">
<rect width="128" height="128" fill="white" transform="translate(334.745 65.6163) rotate(15)"/>
</clipPath>
</defs>
</svg>
