<svg width="46" height="46" viewBox="0 0 46 46" fill="none" xmlns="http://www.w3.org/2000/svg">
<g clip-path="url(#clip0_237_670)">
<path d="M3.13636 40H10.4545V22.4848L0 14.7576V36.9091C0 38.6194 1.40614 40 3.13636 40Z" fill="#4285F4"/>
<path d="M35.5454 40H42.8636C44.599 40 46 38.6142 46 36.9091V14.7576L35.5454 22.4848" fill="#34A853"/>
<path d="M35.5454 9.09089V22.4848L46 14.7576V10.6363C46 6.81392 41.5725 4.63483 38.4727 6.92725" fill="#FBBC04"/>
<path d="M10.4546 22.4848V9.09082L23 18.3635L35.5455 9.09082V22.4848L23 31.7575" fill="#EA4335"/>
<path d="M0 10.6363V14.7576L10.4545 22.4848V9.09089L7.52727 6.92725C4.42227 4.63483 0 6.81392 0 10.6363Z" fill="#C5221F"/>
</g>
<defs>
<clipPath id="clip0_237_670">
<rect width="46" height="34" fill="white" transform="translate(0 6)"/>
</clipPath>
</defs>
</svg>
