<svg width="46" height="46" viewBox="0 0 46 46" fill="none" xmlns="http://www.w3.org/2000/svg">
<g clip-path="url(#clip0_281_232)">
<mask id="mask0_281_232" style="mask-type:alpha" maskUnits="userSpaceOnUse" x="6" y="0" width="35" height="46">
<path d="M27.8472 0.0727539H9.37087C7.57759 0.0727539 6.11035 1.47985 6.11035 3.19919V42.8004C6.11035 44.5198 7.57759 45.9268 9.37087 45.9268H37.6288C39.4221 45.9268 40.8893 44.5198 40.8893 42.8004V12.5784L27.8472 0.0727539Z" fill="white"/>
</mask>
<g mask="url(#mask0_281_232)">
<path d="M27.8472 0.0727539H9.37087C7.57759 0.0727539 6.11035 1.47985 6.11035 3.19919V42.8004C6.11035 44.5198 7.57759 45.9268 9.37087 45.9268H37.6288C39.4221 45.9268 40.8893 44.5198 40.8893 42.8004V12.5784L33.2814 7.36785L27.8472 0.0727539Z" fill="#0F9D58"/>
</g>
<mask id="mask1_281_232" style="mask-type:alpha" maskUnits="userSpaceOnUse" x="6" y="0" width="35" height="46">
<path d="M27.8472 0.0727539H9.37087C7.57759 0.0727539 6.11035 1.47985 6.11035 3.19919V42.8004C6.11035 44.5198 7.57759 45.9268 9.37087 45.9268H37.6288C39.4221 45.9268 40.8893 44.5198 40.8893 42.8004V12.5784L27.8472 0.0727539Z" fill="white"/>
</mask>
<g mask="url(#mask1_281_232)">
<path d="M14.8047 22.4785V37.5894H32.1943V22.4785H14.8047ZM22.4126 35.5052H16.9785V32.8998H22.4126V35.5052ZM22.4126 31.3366H16.9785V28.7313H22.4126V31.3366ZM22.4126 27.1681H16.9785V24.5627H22.4126V27.1681ZM30.0205 35.5052H24.5864V32.8998H30.0205V35.5052ZM30.0205 31.3366H24.5864V28.7313H30.0205V31.3366ZM30.0205 27.1681H24.5864V24.5627H30.0205V27.1681Z" fill="#F1F1F1"/>
</g>
<mask id="mask2_281_232" style="mask-type:alpha" maskUnits="userSpaceOnUse" x="6" y="0" width="35" height="46">
<path d="M27.8472 0.0727539H9.37087C7.57759 0.0727539 6.11035 1.47985 6.11035 3.19919V42.8004C6.11035 44.5198 7.57759 45.9268 9.37087 45.9268H37.6288C39.4221 45.9268 40.8893 44.5198 40.8893 42.8004V12.5784L27.8472 0.0727539Z" fill="white"/>
</mask>
<g mask="url(#mask2_281_232)">
<path d="M28.8008 11.6638L40.8892 23.2523V12.5783L28.8008 11.6638Z" fill="url(#paint0_linear_281_232)"/>
</g>
<mask id="mask3_281_232" style="mask-type:alpha" maskUnits="userSpaceOnUse" x="6" y="0" width="35" height="46">
<path d="M27.8472 0.0727539H9.37087C7.57759 0.0727539 6.11035 1.47985 6.11035 3.19919V42.8004C6.11035 44.5198 7.57759 45.9268 9.37087 45.9268H37.6288C39.4221 45.9268 40.8893 44.5198 40.8893 42.8004V12.5784L27.8472 0.0727539Z" fill="white"/>
</mask>
<g mask="url(#mask3_281_232)">
<path d="M27.8472 0.0727539V9.45194C27.8472 11.1793 29.3063 12.5784 31.1077 12.5784H40.8894L27.8472 0.0727539Z" fill="#87CEAC"/>
</g>
<mask id="mask4_281_232" style="mask-type:alpha" maskUnits="userSpaceOnUse" x="6" y="0" width="35" height="46">
<path d="M27.8472 0.0727539H9.37087C7.57759 0.0727539 6.11035 1.47985 6.11035 3.19919V42.8004C6.11035 44.5198 7.57759 45.9268 9.37087 45.9268H37.6288C39.4221 45.9268 40.8893 44.5198 40.8893 42.8004V12.5784L27.8472 0.0727539Z" fill="white"/>
</mask>
<g mask="url(#mask4_281_232)">
<path d="M9.37087 0.0727539C7.57759 0.0727539 6.11035 1.47985 6.11035 3.19919V3.45978C6.11035 1.74019 7.57759 0.33334 9.37087 0.33334H27.8472V0.0727539H9.37087Z" fill="white" fill-opacity="0.2"/>
</g>
<mask id="mask5_281_232" style="mask-type:alpha" maskUnits="userSpaceOnUse" x="6" y="0" width="35" height="46">
<path d="M27.8472 0.0727539H9.37087C7.57759 0.0727539 6.11035 1.47985 6.11035 3.19919V42.8004C6.11035 44.5198 7.57759 45.9268 9.37087 45.9268H37.6288C39.4221 45.9268 40.8893 44.5198 40.8893 42.8004V12.5784L27.8472 0.0727539Z" fill="white"/>
</mask>
<g mask="url(#mask5_281_232)">
<path d="M37.6288 45.6661H9.37087C7.57759 45.6661 6.11035 44.2593 6.11035 42.5398V42.8003C6.11035 44.5198 7.57759 45.9267 9.37087 45.9267H37.6288C39.4221 45.9267 40.8893 44.5198 40.8893 42.8003V42.5398C40.8893 44.2593 39.4221 45.6661 37.6288 45.6661Z" fill="#263238" fill-opacity="0.2"/>
</g>
<mask id="mask6_281_232" style="mask-type:alpha" maskUnits="userSpaceOnUse" x="6" y="0" width="35" height="46">
<path d="M27.8472 0.0727539H9.37087C7.57759 0.0727539 6.11035 1.47985 6.11035 3.19919V42.8004C6.11035 44.5198 7.57759 45.9268 9.37087 45.9268H37.6288C39.4221 45.9268 40.8893 44.5198 40.8893 42.8004V12.5784L27.8472 0.0727539Z" fill="white"/>
</mask>
<g mask="url(#mask6_281_232)">
<path d="M31.1077 12.5783C29.3063 12.5783 27.8472 11.1793 27.8472 9.4519V9.71249C27.8472 11.4398 29.3063 12.8388 31.1077 12.8388H40.8894V12.5783H31.1077Z" fill="#263238" fill-opacity="0.1"/>
</g>
<path d="M27.8472 0.0727539H9.37087C7.57759 0.0727539 6.11035 1.47985 6.11035 3.19919V42.8004C6.11035 44.5198 7.57759 45.9268 9.37087 45.9268H37.6288C39.4221 45.9268 40.8893 44.5198 40.8893 42.8004V12.5784L27.8472 0.0727539Z" fill="url(#paint1_radial_281_232)"/>
</g>
<defs>
<linearGradient id="paint0_linear_281_232" x1="34.8456" y1="12.6588" x2="34.8456" y2="23.254" gradientUnits="userSpaceOnUse">
<stop stop-color="#263238" stop-opacity="0.2"/>
<stop offset="1" stop-color="#263238" stop-opacity="0.02"/>
</linearGradient>
<radialGradient id="paint1_radial_281_232" cx="0" cy="0" r="1" gradientUnits="userSpaceOnUse" gradientTransform="translate(7.21216 0.984203) scale(56.0805 53.7735)">
<stop stop-color="white" stop-opacity="0.1"/>
<stop offset="1" stop-color="white" stop-opacity="0"/>
</radialGradient>
<clipPath id="clip0_281_232">
<rect width="35" height="46" fill="white" transform="translate(6)"/>
</clipPath>
</defs>
</svg>
