<svg width="46" height="46" viewBox="0 0 46 46" fill="none" xmlns="http://www.w3.org/2000/svg">
<path d="M46 6.36182H0V39.6384H46V6.36182Z" fill="#EC0B43"/>
<path d="M9.08875 29.3281V17.0489H17.1035V18.7414H11.0302V22.2427H16.3401V23.9186H11.0302V27.6356H17.1864V29.3281H9.08875ZM19.1603 29.3281V17.0489H23.7235C24.5974 17.0489 25.3331 17.2203 25.9305 17.5633C26.5389 17.8951 26.998 18.3376 27.3077 18.8908C27.6175 19.4328 27.7724 20.0247 27.7724 20.6663C27.7724 21.4406 27.5511 22.1431 27.1086 22.7737C26.6772 23.4042 26.0411 23.8467 25.2003 24.1011L28.154 29.3281H25.9802L23.1925 24.3169H21.1017V29.3281H19.1603ZM23.6903 18.7414H21.1017V22.6907H23.6903C24.3873 22.6907 24.9127 22.4916 25.2667 22.0933C25.6207 21.684 25.7977 21.2249 25.7977 20.7161C25.7977 20.2072 25.6207 19.7536 25.2667 19.3554C24.9127 18.9461 24.3873 18.7414 23.6903 18.7414ZM30.1555 29.3281V17.0489H34.7685C35.7309 17.0489 36.533 17.248 37.1746 17.6462C37.8162 18.0334 38.2974 18.5368 38.6182 19.1563C38.939 19.7647 39.0994 20.4063 39.0994 21.0811C39.0994 21.7559 38.939 22.4031 38.6182 23.0226C38.2974 23.6421 37.8162 24.1509 37.1746 24.5492C36.533 24.9364 35.7309 25.1299 34.7685 25.1299H32.0969V29.3281H30.1555ZM34.7685 18.7414H32.0969V23.4374H34.7685C35.2995 23.4374 35.742 23.3268 36.096 23.1055C36.45 22.8732 36.7155 22.5801 36.8925 22.2261C37.0695 21.861 37.158 21.4849 37.158 21.0977C37.158 20.6995 37.0695 20.3233 36.8925 19.9693C36.7155 19.6043 36.45 19.3111 36.096 19.0899C35.742 18.8576 35.2995 18.7414 34.7685 18.7414Z" fill="#FDE6EC"/>
</svg>
