<svg width="46" height="46" viewBox="0 0 46 46" fill="none" xmlns="http://www.w3.org/2000/svg">
<g clip-path="url(#clip0_281_614)">
<path d="M44.8207 39.4705H36.9999C36.7135 39.4705 36.4388 39.3534 36.2362 39.145C36.0337 38.9367 35.9199 38.6541 35.9199 38.3594V8.66175C35.9217 8.36807 36.0362 8.08701 36.2385 7.87979C36.4408 7.67257 36.7145 7.55598 36.9999 7.55542H44.8184C45.1044 7.55479 45.379 7.67092 45.5819 7.87833C45.7848 8.08574 45.8995 8.36749 45.9007 8.66175V38.3594C45.9009 38.5054 45.8732 38.65 45.819 38.7849C45.7648 38.9198 45.6853 39.0424 45.585 39.1457C45.4847 39.249 45.3655 39.3308 45.2344 39.3866C45.1032 39.4423 44.9626 39.4708 44.8207 39.4705Z" fill="url(#paint0_linear_281_614)"/>
<path d="M8.57384 39.5822L1.58845 35.9641C1.33267 35.8318 1.13842 35.6005 1.04841 35.3209C0.958402 35.0413 0.979999 34.7364 1.10845 34.4732L14.0685 7.94973C14.1971 7.68663 14.422 7.48683 14.6937 7.39424C14.9655 7.30164 15.2618 7.32383 15.5177 7.45592L22.5054 11.0669C22.7611 11.1993 22.9553 11.4306 23.0453 11.7102C23.1353 11.9897 23.1138 12.2946 22.9854 12.5579L10.0231 39.0884C9.89444 39.3515 9.66955 39.5513 9.3978 39.6439C9.12606 39.7365 8.82969 39.7143 8.57384 39.5822Z" fill="url(#paint1_linear_281_614)"/>
<path d="M29.2068 38.9839L34.7453 10.0649C34.8002 9.77697 34.7423 9.47834 34.5841 9.23417C34.4258 8.99 34.1802 8.8201 33.9007 8.76155L26.2368 7.16853C25.9553 7.11072 25.663 7.17028 25.4241 7.3341C25.1852 7.49793 25.0194 7.75261 24.963 8.04219L19.4245 36.9635C19.3695 37.2518 19.4278 37.5508 19.5865 37.795C19.7452 38.0393 19.9915 38.2089 20.2714 38.2669L27.933 39.8575C28.0724 39.887 28.2162 39.8877 28.3559 39.8596C28.4956 39.8315 28.6285 39.7752 28.747 39.694C28.8655 39.6128 28.9671 39.5082 29.046 39.3863C29.1249 39.2644 29.1796 39.1276 29.2068 38.9839Z" fill="url(#paint2_linear_281_614)"/>
</g>
<defs>
<linearGradient id="paint0_linear_281_614" x1="26.4353" y1="29.0054" x2="47.6747" y2="21.3935" gradientUnits="userSpaceOnUse">
<stop offset="0.02" stop-color="#B02DE9"/>
<stop offset="0.8" stop-color="#6D00CC"/>
</linearGradient>
<linearGradient id="paint1_linear_281_614" x1="7.91615" y1="25.3543" x2="30.7973" y2="15.7374" gradientUnits="userSpaceOnUse">
<stop stop-color="#FF00FF"/>
<stop offset="0.18" stop-color="#E80DF9"/>
<stop offset="0.54" stop-color="#C024ED"/>
<stop offset="0.73" stop-color="#B02DE9"/>
</linearGradient>
<linearGradient id="paint2_linear_281_614" x1="2.6245" y1="32.7803" x2="49.4281" y2="16.0304" gradientUnits="userSpaceOnUse">
<stop offset="0.02" stop-color="#FF00FF"/>
<stop offset="0.09" stop-color="#E80DF9"/>
<stop offset="0.23" stop-color="#C024ED"/>
<stop offset="0.3" stop-color="#B02DE9"/>
<stop offset="0.42" stop-color="#A42BE3"/>
<stop offset="0.63" stop-color="#8527D5"/>
<stop offset="0.85" stop-color="#6021C3"/>
</linearGradient>
<clipPath id="clip0_281_614">
<rect width="45" height="33" fill="white" transform="translate(1 7)"/>
</clipPath>
</defs>
</svg>
