<svg width="46" height="46" viewBox="0 0 46 46" fill="none" xmlns="http://www.w3.org/2000/svg">
<g clip-path="url(#clip0_237_732)">
<path d="M20.5619 0.000131711C15.4617 0.000131711 10.9304 3.24018 9.35103 8.02241C7.73017 8.35204 6.19906 9.01846 4.8596 9.97733C3.52013 10.9362 2.40303 12.1655 1.58262 13.5835C-0.975326 17.9451 -0.391227 23.4284 3.0356 27.1668C1.97762 30.2981 2.34072 33.7247 4.03036 36.5602C6.57264 40.9373 11.688 43.1805 16.6937 42.1367C17.7896 43.357 19.1367 44.3328 20.6451 44.9989C22.1535 45.6651 23.7885 46.0063 25.4412 45.9999C30.5414 45.9999 35.0726 42.7599 36.6521 37.9776C39.9362 37.3075 42.7627 35.2824 44.4048 32.4166C46.9784 28.0549 46.3943 22.5717 42.968 18.8332V18.8178C43.4907 17.27 43.6723 15.63 43.5007 14.0074C43.3292 12.3848 42.8084 10.817 41.9733 9.40895C39.4304 5.04731 34.3145 2.80357 29.3251 3.84734C28.224 2.6302 26.8734 1.65779 25.3626 0.994537C23.8519 0.331283 22.2155 -0.0076709 20.5619 0.000131711ZM20.5619 2.99124L20.5463 3.00669C22.599 3.00669 24.5728 3.70769 26.1517 5.00095C26.0885 5.03186 25.962 5.10969 25.8675 5.1566L16.5834 10.4373C16.1096 10.7022 15.8253 11.2006 15.8253 11.746V24.1454L11.8306 21.8713V11.6212C11.8298 9.33487 12.7488 7.14165 14.386 5.5234C16.0231 3.90514 18.2444 2.99475 20.5619 2.99124ZM31.746 6.6011C33.2845 6.59818 34.7965 6.99603 36.1292 7.75443C37.462 8.51282 38.5681 9.60489 39.3359 10.9202C40.3463 12.665 40.7251 14.7056 40.3776 16.6839C40.3144 16.637 40.1885 16.5751 40.1091 16.5282L30.8251 11.2315C30.5915 11.1012 30.3277 11.0327 30.0594 11.0327C29.7911 11.0327 29.5273 11.1012 29.2938 11.2315L18.4146 17.4312V12.8825L27.3988 7.75747C28.7197 7.00192 30.2191 6.6029 31.746 6.60055V6.6011ZM8.78315 11.3094V22.198C8.78315 22.7434 9.06737 23.2263 9.54125 23.5067L20.4041 29.691L16.3932 31.9805L7.42473 26.871C5.42048 25.725 3.959 23.8413 3.3611 21.6334C2.7632 19.4254 3.07775 17.0736 4.23569 15.0942C5.25716 13.3474 6.86593 12.0088 8.78315 11.3094ZM29.5936 14.0041L38.5778 19.1136C42.7622 21.497 44.1827 26.7622 41.7668 30.8904L41.7825 30.9058C40.7564 32.6506 39.1457 33.9902 37.235 34.6758V23.7866C37.235 23.2412 36.9508 22.7428 36.4769 22.4784L25.5984 16.2782L29.5936 14.0041ZM22.9934 17.7585L27.5728 20.3754V25.5937L22.9934 28.2106L18.4146 25.5937V20.3754L22.9934 17.7585ZM30.1934 21.8713L34.1881 24.1454V34.3799C34.1881 39.1467 30.2723 43.0099 25.4568 43.0099V42.9945C23.4198 42.9945 21.4302 42.2935 19.867 41.0008C19.9303 40.9698 20.0724 40.8915 20.1513 40.8446L29.4353 35.5639C29.9092 35.2989 30.2091 34.8005 30.1928 34.2552L30.1934 21.8713ZM27.5879 28.5694V33.1176L18.6037 38.2271C14.4194 40.5951 9.08248 39.1931 6.66663 35.0804H6.6823C5.65621 33.3511 5.29255 31.295 5.63999 29.3167C5.70321 29.3636 5.82965 29.4255 5.90854 29.4724L15.1926 34.7691C15.4261 34.8994 15.6899 34.9679 15.9582 34.9679C16.2266 34.9679 16.4903 34.8994 16.7239 34.7691L27.5879 28.5694Z" fill="#0F0F0F"/>
</g>
<defs>
<clipPath id="clip0_237_732">
<rect width="46" height="46" fill="white"/>
</clipPath>
</defs>
</svg>
