<svg width="500" height="500" viewBox="0 0 500 500" fill="none" xmlns="http://www.w3.org/2000/svg">
<g clip-path="url(#clip0_56_477)">
<rect width="500" height="500" rx="6" fill="#F9F0F5"/>
<path d="M324.667 384.333C328.822 384.333 332.306 382.928 335.117 380.117C337.928 377.306 339.333 373.822 339.333 369.667C339.333 365.511 337.928 362.028 335.117 359.217C332.306 356.406 328.822 355 324.667 355C320.511 355 317.028 356.406 314.217 359.217C311.406 362.028 310 365.511 310 369.667C310 373.822 311.406 377.306 314.217 380.117C317.028 382.928 320.511 384.333 324.667 384.333ZM218.333 347.667H269.667C272.845 347.667 275.472 346.628 277.55 344.55C279.628 342.472 280.667 339.844 280.667 336.667C280.667 333.489 279.628 330.861 277.55 328.783C275.472 326.706 272.845 325.667 269.667 325.667H218.333C215.156 325.667 212.528 326.706 210.45 328.783C208.372 330.861 207.333 333.489 207.333 336.667C207.333 339.844 208.372 342.472 210.45 344.55C212.528 346.628 215.156 347.667 218.333 347.667ZM174.333 531C169.2 531 164.372 529.289 159.85 525.867C155.328 522.444 152.333 518.289 150.867 513.4C144.756 492.378 139.683 474.228 135.65 458.95C131.617 443.672 128.378 430.289 125.933 418.8C123.489 407.311 121.778 397.106 120.8 388.183C119.822 379.261 119.333 370.644 119.333 362.333C119.333 339.844 127.156 320.778 142.8 305.133C158.445 289.489 177.511 281.667 200 281.667H273.333C279.934 272.867 288.306 265.778 298.45 260.4C308.595 255.022 319.778 252.333 332 252.333C338.111 252.333 343.306 254.472 347.583 258.75C351.861 263.028 354 268.222 354 274.333C354 275.8 353.817 277.267 353.45 278.733C353.083 280.2 352.656 281.544 352.167 282.767C351.189 285.456 350.272 288.144 349.417 290.833C348.561 293.522 347.889 296.456 347.4 299.633L380.767 333H401.667C404.845 333 407.472 334.039 409.55 336.117C411.628 338.194 412.667 340.822 412.667 344V427.233C412.667 429.678 411.995 431.878 410.65 433.833C409.306 435.789 407.411 437.133 404.967 437.867L371.233 448.867L351.434 515.233C349.967 520.122 347.278 523.972 343.367 526.783C339.456 529.594 335.056 531 330.167 531H288C281.889 531 276.695 528.861 272.417 524.583C268.139 520.306 266 515.111 266 509V501.667H236.667V509C236.667 515.111 234.528 520.306 230.25 524.583C225.972 528.861 220.778 531 214.667 531H174.333Z" fill="#EC0B43"/>
<path d="M249.867 213.267C250.844 213.267 251.689 212.889 252.4 212.133C253.111 211.378 253.466 210.511 253.466 209.533V206.333C258.8 205.711 263 203.911 266.066 200.933C269.133 197.956 270.666 194.156 270.666 189.533C270.666 184.911 269.4 181.222 266.867 178.467C264.333 175.711 259.955 173.311 253.733 171.267C248.133 169.4 244.289 167.556 242.2 165.733C240.111 163.911 239.067 161.533 239.067 158.6C239.067 155.844 240.067 153.689 242.067 152.133C244.067 150.578 246.8 149.8 250.267 149.8C252.4 149.8 254.311 150.2 256 151C257.689 151.8 259.155 153 260.4 154.6C261.022 155.311 261.778 155.8 262.666 156.067C263.555 156.333 264.4 156.244 265.2 155.8C266.178 155.356 266.822 154.644 267.133 153.667C267.444 152.689 267.289 151.8 266.666 151C265.155 148.867 263.311 147.178 261.133 145.933C258.955 144.689 256.489 143.933 253.733 143.667V140.467C253.733 139.489 253.378 138.644 252.667 137.933C251.955 137.222 251.111 136.867 250.133 136.867C249.155 136.867 248.289 137.222 247.533 137.933C246.778 138.644 246.4 139.489 246.4 140.467V143.667C241.867 144.289 238.289 145.933 235.667 148.6C233.044 151.267 231.733 154.6 231.733 158.6C231.733 162.956 232.867 166.422 235.133 169C237.4 171.578 241.6 174.022 247.733 176.333C254.044 178.733 258.222 180.822 260.267 182.6C262.311 184.378 263.333 186.689 263.333 189.533C263.333 192.467 262.133 194.933 259.733 196.933C257.333 198.933 254.4 199.933 250.933 199.933C248 199.933 245.311 199.222 242.867 197.8C240.422 196.378 238.533 194.378 237.2 191.8C236.755 191.089 236.155 190.533 235.4 190.133C234.644 189.733 233.867 189.667 233.067 189.933C231.911 190.378 231.133 191.067 230.733 192C230.333 192.933 230.444 193.889 231.067 194.867C232.844 197.8 234.955 200.178 237.4 202C239.844 203.822 242.755 205.178 246.133 206.067V209.667C246.133 210.644 246.511 211.489 247.267 212.2C248.022 212.911 248.889 213.267 249.867 213.267ZM250 228.333C242.444 228.333 235.422 226.978 228.933 224.267C222.444 221.556 216.8 217.8 212 213C207.2 208.2 203.444 202.556 200.733 196.067C198.022 189.578 196.667 182.556 196.667 175C196.667 167.533 198.022 160.556 200.733 154.067C203.444 147.578 207.2 141.933 212 137.133C216.8 132.333 222.444 128.556 228.933 125.8C235.422 123.044 242.444 121.667 250 121.667C257.466 121.667 264.444 123.044 270.933 125.8C277.422 128.556 283.066 132.333 287.867 137.133C292.666 141.933 296.444 147.578 299.2 154.067C301.955 160.556 303.333 167.533 303.333 175C303.333 182.556 301.955 189.578 299.2 196.067C296.444 202.556 292.666 208.2 287.867 213C283.066 217.8 277.422 221.556 270.933 224.267C264.444 226.978 257.466 228.333 250 228.333Z" fill="#242930"/>
<path d="M249.867 51.2666C250.844 51.2666 251.689 50.8888 252.4 50.1333C253.111 49.3777 253.466 48.5111 253.466 47.5333V44.3333C258.8 43.7111 263 41.9111 266.066 38.9333C269.133 35.9555 270.666 32.1555 270.666 27.5333C270.666 22.9111 269.4 19.2222 266.867 16.4666C264.333 13.7111 259.955 11.3111 253.733 9.26662C248.133 7.39996 244.289 5.55551 242.2 3.73329C240.111 1.91107 239.067 -0.466709 239.067 -3.40004C239.067 -6.1556 240.067 -8.31115 242.067 -9.86671C244.067 -11.4223 246.8 -12.2 250.267 -12.2C252.4 -12.2 254.311 -11.8 256 -11C257.689 -10.2 259.155 -9.00004 260.4 -7.40004C261.022 -6.68893 261.778 -6.20004 262.666 -5.93338C263.555 -5.66671 264.4 -5.7556 265.2 -6.20005C266.178 -6.64449 266.822 -7.3556 267.133 -8.33338C267.444 -9.31115 267.289 -10.2 266.666 -11C265.155 -13.1334 263.311 -14.8223 261.133 -16.0667C258.955 -17.3112 256.489 -18.0667 253.733 -18.3334V-21.5334C253.733 -22.5112 253.378 -23.3556 252.667 -24.0667C251.955 -24.7778 251.111 -25.1334 250.133 -25.1334C249.155 -25.1334 248.289 -24.7778 247.533 -24.0667C246.778 -23.3556 246.4 -22.5112 246.4 -21.5334V-18.3334C241.867 -17.7112 238.289 -16.0667 235.667 -13.4C233.044 -10.7334 231.733 -7.40004 231.733 -3.40004C231.733 0.955513 232.867 4.42218 235.133 6.99996C237.4 9.57774 241.6 12.0222 247.733 14.3333C254.044 16.7333 258.222 18.8222 260.267 20.6C262.311 22.3777 263.333 24.6888 263.333 27.5333C263.333 30.4666 262.133 32.9333 259.733 34.9333C257.333 36.9333 254.4 37.9333 250.933 37.9333C248 37.9333 245.311 37.2222 242.867 35.7999C240.422 34.3777 238.533 32.3777 237.2 29.7999C236.755 29.0888 236.155 28.5333 235.4 28.1333C234.644 27.7333 233.867 27.6666 233.067 27.9333C231.911 28.3777 231.133 29.0666 230.733 30C230.333 30.9333 230.444 31.8888 231.067 32.8666C232.844 35.8 234.955 38.1777 237.4 40C239.844 41.8222 242.755 43.1777 246.133 44.0666V47.6666C246.133 48.6444 246.511 49.4888 247.267 50.2C248.022 50.9111 248.889 51.2666 249.867 51.2666ZM250 66.3333C242.444 66.3333 235.422 64.9777 228.933 62.2666C222.444 59.5555 216.8 55.7999 212 51C207.2 46.2 203.444 40.5555 200.733 34.0666C198.022 27.5777 196.667 20.5555 196.667 13C196.667 5.53329 198.022 -1.44449 200.733 -7.93338C203.444 -14.4223 207.2 -20.0667 212 -24.8667C216.8 -29.6667 222.444 -33.4445 228.933 -36.2C235.422 -38.9556 242.444 -40.3334 250 -40.3334C257.466 -40.3334 264.444 -38.9556 270.933 -36.2C277.422 -33.4445 283.066 -29.6667 287.867 -24.8667C292.666 -20.0667 296.444 -14.4223 299.2 -7.93338C301.955 -1.44449 303.333 5.53329 303.333 13C303.333 20.5555 301.955 27.5777 299.2 34.0666C296.444 40.5555 292.666 46.2 287.867 51C283.066 55.7999 277.422 59.5555 270.933 62.2666C264.444 64.9777 257.466 66.3333 250 66.3333Z" fill="#242930"/>
<path d="M121.867 115.267C122.844 115.267 123.689 114.889 124.4 114.133C125.111 113.378 125.466 112.511 125.466 111.533V108.333C130.8 107.711 135 105.911 138.066 102.933C141.133 99.9555 142.666 96.1555 142.666 91.5333C142.666 86.9111 141.4 83.2222 138.867 80.4666C136.333 77.7111 131.955 75.3111 125.733 73.2666C120.133 71.4 116.289 69.5555 114.2 67.7333C112.111 65.9111 111.067 63.5333 111.067 60.6C111.067 57.8444 112.067 55.6888 114.067 54.1333C116.067 52.5777 118.8 51.8 122.267 51.8C124.4 51.8 126.311 52.2 128 53C129.689 53.8 131.155 55 132.4 56.6C133.022 57.3111 133.778 57.8 134.666 58.0666C135.555 58.3333 136.4 58.2444 137.2 57.8C138.178 57.3555 138.822 56.6444 139.133 55.6666C139.444 54.6888 139.289 53.8 138.666 53C137.155 50.8666 135.311 49.1777 133.133 47.9333C130.955 46.6888 128.489 45.9333 125.733 45.6666V42.4666C125.733 41.4888 125.378 40.6444 124.667 39.9333C123.955 39.2222 123.111 38.8666 122.133 38.8666C121.155 38.8666 120.289 39.2222 119.533 39.9333C118.778 40.6444 118.4 41.4888 118.4 42.4666V45.6666C113.867 46.2888 110.289 47.9333 107.667 50.6C105.044 53.2666 103.733 56.6 103.733 60.6C103.733 64.9555 104.867 68.4222 107.133 71C109.4 73.5777 113.6 76.0222 119.733 78.3333C126.044 80.7333 130.222 82.8222 132.267 84.6C134.311 86.3777 135.333 88.6888 135.333 91.5333C135.333 94.4666 134.133 96.9333 131.733 98.9333C129.333 100.933 126.4 101.933 122.933 101.933C120 101.933 117.311 101.222 114.867 99.7999C112.422 98.3777 110.533 96.3777 109.2 93.7999C108.755 93.0888 108.155 92.5333 107.4 92.1333C106.644 91.7333 105.867 91.6666 105.067 91.9333C103.911 92.3777 103.133 93.0666 102.733 94C102.333 94.9333 102.444 95.8888 103.067 96.8666C104.844 99.8 106.955 102.178 109.4 104C111.844 105.822 114.755 107.178 118.133 108.067V111.667C118.133 112.644 118.511 113.489 119.267 114.2C120.022 114.911 120.889 115.267 121.867 115.267ZM122 130.333C114.444 130.333 107.422 128.978 100.933 126.267C94.4443 123.556 88.7998 119.8 83.9998 115C79.1998 110.2 75.4443 104.556 72.7332 98.0666C70.0221 91.5777 68.6665 84.5555 68.6665 77C68.6665 69.5333 70.0221 62.5555 72.7332 56.0666C75.4443 49.5777 79.1998 43.9333 83.9998 39.1333C88.7998 34.3333 94.4443 30.5555 100.933 27.8C107.422 25.0444 114.444 23.6666 122 23.6666C129.466 23.6666 136.444 25.0444 142.933 27.8C149.422 30.5555 155.066 34.3333 159.867 39.1333C164.666 43.9333 168.444 49.5777 171.2 56.0666C173.955 62.5555 175.333 69.5333 175.333 77C175.333 84.5555 173.955 91.5777 171.2 98.0666C168.444 104.556 164.666 110.2 159.867 115C155.066 119.8 149.422 123.556 142.933 126.267C136.444 128.978 129.466 130.333 122 130.333Z" fill="#242930"/>
<path d="M-6.1335 51.2666C-5.15572 51.2666 -4.31128 50.8888 -3.60017 50.1333C-2.88906 49.3777 -2.5335 48.5111 -2.5335 47.5333V44.3333C2.79983 43.7111 6.99983 41.9111 10.0665 38.9333C13.1332 35.9555 14.6665 32.1555 14.6665 27.5333C14.6665 22.9111 13.3998 19.2222 10.8665 16.4666C8.33317 13.7111 3.95539 11.3111 -2.26683 9.26662C-7.86683 7.39996 -11.7113 5.55551 -13.8002 3.73329C-15.8891 1.91107 -16.9335 -0.466709 -16.9335 -3.40004C-16.9335 -6.1556 -15.9335 -8.31115 -13.9335 -9.86671C-11.9335 -11.4223 -9.20016 -12.2 -5.7335 -12.2C-3.60017 -12.2 -1.68906 -11.8 -0.000167847 -11C1.68872 -10.2 3.15539 -9.00004 4.39983 -7.40004C5.02206 -6.68893 5.77761 -6.20004 6.6665 -5.93338C7.55539 -5.66671 8.39983 -5.7556 9.19984 -6.20005C10.1776 -6.64449 10.8221 -7.3556 11.1332 -8.33338C11.4443 -9.31115 11.2887 -10.2 10.6665 -11C9.15539 -13.1334 7.31094 -14.8223 5.13316 -16.0667C2.95539 -17.3112 0.48872 -18.0667 -2.26683 -18.3334V-21.5334C-2.26683 -22.5112 -2.62239 -23.3556 -3.3335 -24.0667C-4.04461 -24.7778 -4.88906 -25.1334 -5.86684 -25.1334C-6.84461 -25.1334 -7.71127 -24.7778 -8.46683 -24.0667C-9.22239 -23.3556 -9.60017 -22.5112 -9.60017 -21.5334V-18.3334C-14.1335 -17.7112 -17.7113 -16.0667 -20.3335 -13.4C-22.9557 -10.7334 -24.2668 -7.40004 -24.2668 -3.40004C-24.2668 0.955513 -23.1335 4.42218 -20.8668 6.99996C-18.6002 9.57774 -14.4002 12.0222 -8.26683 14.3333C-1.95572 16.7333 2.22206 18.8222 4.2665 20.6C6.31094 22.3777 7.33317 24.6888 7.33317 27.5333C7.33317 30.4666 6.13316 32.9333 3.73317 34.9333C1.33316 36.9333 -1.60017 37.9333 -5.06683 37.9333C-8.00016 37.9333 -10.6891 37.2222 -13.1335 35.7999C-15.5779 34.3777 -17.4668 32.3777 -18.8002 29.7999C-19.2446 29.0888 -19.8446 28.5333 -20.6002 28.1333C-21.3557 27.7333 -22.1335 27.6666 -22.9335 27.9333C-24.0891 28.3777 -24.8668 29.0666 -25.2668 30C-25.6668 30.9333 -25.5557 31.8888 -24.9335 32.8666C-23.1557 35.8 -21.0446 38.1777 -18.6002 40C-16.1557 41.8222 -13.2446 43.1777 -9.86683 44.0666V47.6666C-9.86683 48.6444 -9.48905 49.4888 -8.7335 50.2C-7.97794 50.9111 -7.11127 51.2666 -6.1335 51.2666ZM-6.00017 66.3333C-13.5557 66.3333 -20.5779 64.9777 -27.0668 62.2666C-33.5557 59.5555 -39.2002 55.7999 -44.0002 51C-48.8002 46.2 -52.5557 40.5555 -55.2668 34.0666C-57.9779 27.5777 -59.3335 20.5555 -59.3335 13C-59.3335 5.53329 -57.9779 -1.44449 -55.2668 -7.93338C-52.5557 -14.4223 -48.8002 -20.0667 -44.0002 -24.8667C-39.2002 -29.6667 -33.5557 -33.4445 -27.0668 -36.2C-20.5779 -38.9556 -13.5557 -40.3334 -6.00017 -40.3334C1.4665 -40.3334 8.44427 -38.9556 14.9332 -36.2C21.4221 -33.4445 27.0665 -29.6667 31.8665 -24.8667C36.6665 -20.0667 40.4443 -14.4223 43.1998 -7.93338C45.9554 -1.44449 47.3332 5.53329 47.3332 13C47.3332 20.5555 45.9554 27.5777 43.1998 34.0666C40.4443 40.5555 36.6665 46.2 31.8665 51C27.0665 55.7999 21.4221 59.5555 14.9332 62.2666C8.44427 64.9777 1.4665 66.3333 -6.00017 66.3333Z" fill="#242930"/>
<path d="M377.867 115.267C378.844 115.267 379.689 114.889 380.4 114.133C381.111 113.378 381.466 112.511 381.466 111.533V108.333C386.8 107.711 391 105.911 394.066 102.933C397.133 99.9555 398.666 96.1555 398.666 91.5333C398.666 86.9111 397.4 83.2222 394.867 80.4666C392.333 77.7111 387.955 75.3111 381.733 73.2666C376.133 71.4 372.289 69.5555 370.2 67.7333C368.111 65.9111 367.067 63.5333 367.067 60.6C367.067 57.8444 368.067 55.6888 370.067 54.1333C372.067 52.5777 374.8 51.8 378.267 51.8C380.4 51.8 382.311 52.2 384 53C385.689 53.8 387.155 55 388.4 56.6C389.022 57.3111 389.778 57.8 390.666 58.0666C391.555 58.3333 392.4 58.2444 393.2 57.8C394.178 57.3555 394.822 56.6444 395.133 55.6666C395.444 54.6888 395.289 53.8 394.666 53C393.155 50.8666 391.311 49.1777 389.133 47.9333C386.955 46.6888 384.489 45.9333 381.733 45.6666V42.4666C381.733 41.4888 381.378 40.6444 380.667 39.9333C379.955 39.2222 379.111 38.8666 378.133 38.8666C377.155 38.8666 376.289 39.2222 375.533 39.9333C374.778 40.6444 374.4 41.4888 374.4 42.4666V45.6666C369.867 46.2888 366.289 47.9333 363.667 50.6C361.044 53.2666 359.733 56.6 359.733 60.6C359.733 64.9555 360.867 68.4222 363.133 71C365.4 73.5777 369.6 76.0222 375.733 78.3333C382.044 80.7333 386.222 82.8222 388.267 84.6C390.311 86.3777 391.333 88.6888 391.333 91.5333C391.333 94.4666 390.133 96.9333 387.733 98.9333C385.333 100.933 382.4 101.933 378.933 101.933C376 101.933 373.311 101.222 370.867 99.7999C368.422 98.3777 366.533 96.3777 365.2 93.7999C364.755 93.0888 364.155 92.5333 363.4 92.1333C362.644 91.7333 361.867 91.6666 361.067 91.9333C359.911 92.3777 359.133 93.0666 358.733 94C358.333 94.9333 358.444 95.8888 359.067 96.8666C360.844 99.8 362.955 102.178 365.4 104C367.844 105.822 370.755 107.178 374.133 108.067V111.667C374.133 112.644 374.511 113.489 375.267 114.2C376.022 114.911 376.889 115.267 377.867 115.267ZM378 130.333C370.444 130.333 363.422 128.978 356.933 126.267C350.444 123.556 344.8 119.8 340 115C335.2 110.2 331.444 104.556 328.733 98.0666C326.022 91.5777 324.667 84.5555 324.667 77C324.667 69.5333 326.022 62.5555 328.733 56.0666C331.444 49.5777 335.2 43.9333 340 39.1333C344.8 34.3333 350.444 30.5555 356.933 27.8C363.422 25.0444 370.444 23.6666 378 23.6666C385.466 23.6666 392.444 25.0444 398.933 27.8C405.422 30.5555 411.066 34.3333 415.867 39.1333C420.666 43.9333 424.444 49.5777 427.2 56.0666C429.955 62.5555 431.333 69.5333 431.333 77C431.333 84.5555 429.955 91.5777 427.2 98.0666C424.444 104.556 420.666 110.2 415.867 115C411.066 119.8 405.422 123.556 398.933 126.267C392.444 128.978 385.466 130.333 378 130.333Z" fill="#242930"/>
<path d="M505.867 51.2666C506.844 51.2666 507.689 50.8888 508.4 50.1333C509.111 49.3777 509.466 48.5111 509.466 47.5333V44.3333C514.8 43.7111 519 41.9111 522.066 38.9333C525.133 35.9555 526.666 32.1555 526.666 27.5333C526.666 22.9111 525.4 19.2222 522.867 16.4666C520.333 13.7111 515.955 11.3111 509.733 9.26662C504.133 7.39996 500.289 5.55551 498.2 3.73329C496.111 1.91107 495.067 -0.466709 495.067 -3.40004C495.067 -6.1556 496.067 -8.31115 498.067 -9.86671C500.067 -11.4223 502.8 -12.2 506.267 -12.2C508.4 -12.2 510.311 -11.8 512 -11C513.689 -10.2 515.155 -9.00004 516.4 -7.40004C517.022 -6.68893 517.778 -6.20004 518.666 -5.93338C519.555 -5.66671 520.4 -5.7556 521.2 -6.20005C522.178 -6.64449 522.822 -7.3556 523.133 -8.33338C523.444 -9.31115 523.289 -10.2 522.666 -11C521.155 -13.1334 519.311 -14.8223 517.133 -16.0667C514.955 -17.3112 512.489 -18.0667 509.733 -18.3334V-21.5334C509.733 -22.5112 509.378 -23.3556 508.667 -24.0667C507.955 -24.7778 507.111 -25.1334 506.133 -25.1334C505.155 -25.1334 504.289 -24.7778 503.533 -24.0667C502.778 -23.3556 502.4 -22.5112 502.4 -21.5334V-18.3334C497.867 -17.7112 494.289 -16.0667 491.667 -13.4C489.044 -10.7334 487.733 -7.40004 487.733 -3.40004C487.733 0.955513 488.867 4.42218 491.133 6.99996C493.4 9.57774 497.6 12.0222 503.733 14.3333C510.044 16.7333 514.222 18.8222 516.267 20.6C518.311 22.3777 519.333 24.6888 519.333 27.5333C519.333 30.4666 518.133 32.9333 515.733 34.9333C513.333 36.9333 510.4 37.9333 506.933 37.9333C504 37.9333 501.311 37.2222 498.867 35.7999C496.422 34.3777 494.533 32.3777 493.2 29.7999C492.755 29.0888 492.155 28.5333 491.4 28.1333C490.644 27.7333 489.867 27.6666 489.067 27.9333C487.911 28.3777 487.133 29.0666 486.733 30C486.333 30.9333 486.444 31.8888 487.067 32.8666C488.844 35.8 490.955 38.1777 493.4 40C495.844 41.8222 498.755 43.1777 502.133 44.0666V47.6666C502.133 48.6444 502.511 49.4888 503.267 50.2C504.022 50.9111 504.889 51.2666 505.867 51.2666ZM506 66.3333C498.444 66.3333 491.422 64.9777 484.933 62.2666C478.444 59.5555 472.8 55.7999 468 51C463.2 46.2 459.444 40.5555 456.733 34.0666C454.022 27.5777 452.667 20.5555 452.667 13C452.667 5.53329 454.022 -1.44449 456.733 -7.93338C459.444 -14.4223 463.2 -20.0667 468 -24.8667C472.8 -29.6667 478.444 -33.4445 484.933 -36.2C491.422 -38.9556 498.444 -40.3334 506 -40.3334C513.466 -40.3334 520.444 -38.9556 526.933 -36.2C533.422 -33.4445 539.066 -29.6667 543.867 -24.8667C548.666 -20.0667 552.444 -14.4223 555.2 -7.93338C557.955 -1.44449 559.333 5.53329 559.333 13C559.333 20.5555 557.955 27.5777 555.2 34.0666C552.444 40.5555 548.666 46.2 543.867 51C539.066 55.7999 533.422 59.5555 526.933 62.2666C520.444 64.9777 513.466 66.3333 506 66.3333Z" fill="#242930"/>
</g>
<rect x="0.5" y="0.5" width="499" height="499" rx="5.5" stroke="#39414C" stroke-opacity="0.2"/>
<defs>
<clipPath id="clip0_56_477">
<rect width="500" height="500" rx="6" fill="white"/>
</clipPath>
</defs>
</svg>
