<svg width="46" height="46" viewBox="0 0 46 46" fill="none" xmlns="http://www.w3.org/2000/svg">
<g clip-path="url(#clip0_281_535)">
<g clip-path="url(#clip1_281_535)">
<path d="M28.7498 23.0101C28.7506 24.6687 28.4514 26.3138 27.8667 27.8659C26.3139 28.4506 24.6685 28.7503 23.0093 28.7505H22.9899C21.2815 28.7484 19.6445 28.4361 18.1341 27.8667C17.5489 26.3143 17.2494 24.669 17.25 23.0101V22.9899C17.2492 21.3316 17.5481 19.6868 18.1323 18.1348C19.6849 17.549 21.3307 17.2493 22.9901 17.25H23.0095C24.6688 17.2492 26.3144 17.5489 27.8668 18.1346C28.4517 19.6865 28.7509 21.3314 28.75 22.9898V23.0099L28.7498 23.0101ZM45.6805 19.1667H32.255L41.7477 9.6733C41.0026 8.62665 40.1715 7.644 39.263 6.73559V6.73487C38.3544 5.82742 37.3721 4.99705 36.326 4.25231L26.8326 13.7457V0.320203C25.5699 0.1078 24.2919 0.00069663 23.0115 0L22.9878 0C21.6854 0.00071875 20.4098 0.111406 19.1667 0.320203V13.7457L9.6733 4.25231C8.62705 4.99685 7.64509 5.82782 6.73774 6.73648L6.73271 6.74008C5.82575 7.64736 4.99579 8.62848 4.25141 9.6733L13.7456 19.1667H0.320203C0.320203 19.1667 0 21.6883 0 22.9921V23.0079C0 24.3117 0.110508 25.5895 0.320203 26.8333H13.7457L4.25159 36.3267C5.74509 38.4226 7.57742 40.2549 9.6733 41.7484L19.1667 32.2543V45.6805C20.428 45.8919 21.7045 45.9987 22.9833 46H23.0158C24.2946 45.9988 25.5712 45.892 26.8324 45.6805V32.2543L36.3267 41.7484C37.3726 41.0034 38.3547 40.1728 39.263 39.2651L39.2651 39.263C40.1724 38.3545 41.0028 37.3724 41.7477 36.3267L32.2535 26.8333H45.6805C45.8895 25.5916 45.9986 24.3176 46 23.0167V22.9833C45.9986 21.6824 45.8895 20.4084 45.6805 19.1667Z" fill="#FF4A00"/>
</g>
</g>
<defs>
<clipPath id="clip0_281_535">
<rect width="46" height="46" fill="white"/>
</clipPath>
<clipPath id="clip1_281_535">
<rect width="46" height="46" fill="white"/>
</clipPath>
</defs>
</svg>
