<svg width="46" height="46" viewBox="0 0 46 46" fill="none" xmlns="http://www.w3.org/2000/svg">
<g clip-path="url(#clip0_281_500)">
<path d="M21.0877 5.45451L4.31557 12.0934C3.38288 12.4626 3.39254 13.7301 4.33109 14.086L21.1732 20.475C22.653 21.0364 24.3009 21.0364 25.7807 20.475L42.6231 14.0857C43.5613 13.7301 43.5714 12.4628 42.6384 12.0936L25.8666 5.45427C24.3365 4.84858 22.6176 4.84858 21.0875 5.45427" fill="#FCB400"/>
<path d="M24.9722 23.9633V39.9243C24.9722 40.6832 25.7724 41.2031 26.51 40.9234L45.2774 33.9551C45.4866 33.8758 45.666 33.738 45.7926 33.5599C45.9191 33.3817 45.9868 33.1712 45.9868 32.9557V16.9951C45.9868 16.236 45.1866 15.7162 44.4489 15.9959L25.6816 22.9643C25.4723 23.0438 25.2928 23.1815 25.1663 23.3597C25.0398 23.5378 24.9722 23.748 24.9722 23.9633Z" fill="#18BFFF"/>
<path d="M20.5891 24.7866L15.0194 27.3591L14.4539 27.6206L2.69654 33.0096C1.95151 33.3536 1 32.834 1 32.042V17.0616C1 16.7751 1.15358 16.5277 1.35955 16.3416C1.44405 16.2612 1.53991 16.1924 1.64434 16.1373C1.92506 15.9761 2.32581 15.933 2.66654 16.0619L20.4955 22.8197C21.4017 23.1636 21.473 24.3781 20.5891 24.7866Z" fill="#F82B60"/>
<path d="M20.5894 24.7866L15.0197 27.3591L1.35986 16.3414C1.44438 16.261 1.54023 16.1923 1.64465 16.1373C1.92538 15.9761 2.32612 15.933 2.66685 16.0619L20.4958 22.8197C21.4021 23.1636 21.4733 24.3781 20.5894 24.7866Z" fill="black" fill-opacity="0.25"/>
</g>
<defs>
<clipPath id="clip0_281_500">
<rect width="45" height="36" fill="white" transform="translate(1 5)"/>
</clipPath>
</defs>
</svg>
