<svg width="46" height="46" viewBox="0 0 46 46" fill="none" xmlns="http://www.w3.org/2000/svg">
<g clip-path="url(#clip0_281_558)">
<g clip-path="url(#clip1_281_558)">
<path d="M35.1051 10.8948H10.8945V35.1053H35.1051V10.8948Z" fill="white"/>
<path d="M35.1055 46L46.0002 35.1052H35.1055V46Z" fill="#EA4335"/>
<path d="M46.0002 10.8948H35.1055V35.1053H46.0002V10.8948Z" fill="#FBBC04"/>
<path d="M35.1051 35.1052H10.8945V46H35.1051V35.1052Z" fill="#34A853"/>
<path d="M0 35.1052V42.3684C0 44.3748 1.62513 46 3.63158 46H10.8947V35.1052H0Z" fill="#188038"/>
<path d="M46.0002 10.8947V3.63158C46.0002 1.62513 44.3751 0 42.3686 0H35.1055V10.8947H46.0002Z" fill="#1967D2"/>
<path d="M35.1053 0H3.63158C1.62513 0 0 1.62513 0 3.63158V35.1053H10.8947V10.8947H35.1053V0Z" fill="#4285F4"/>
<path d="M15.8611 29.6761C14.9562 29.0648 14.3298 28.172 13.9878 26.9917L16.0881 26.1262C16.2787 26.8525 16.6116 27.4154 17.0867 27.8149C17.5588 28.2144 18.1338 28.4111 18.8057 28.4111C19.4927 28.4111 20.0828 28.2023 20.5761 27.7846C21.0694 27.367 21.3175 26.8344 21.3175 26.1898C21.3175 25.53 21.0573 24.9913 20.5367 24.5737C20.0162 24.1561 19.3625 23.9473 18.5817 23.9473H17.3682V21.8682H18.4577C19.1295 21.8682 19.6954 21.6866 20.1554 21.3234C20.6154 20.9603 20.8454 20.464 20.8454 19.8315C20.8454 19.2686 20.6396 18.8207 20.2281 18.4848C19.8165 18.1488 19.296 17.9794 18.6635 17.9794C18.0461 17.9794 17.5558 18.1428 17.1927 18.4726C16.8297 18.8034 16.5569 19.221 16.3998 19.6862L14.3207 18.8207C14.5961 18.0399 15.1015 17.3499 15.8429 16.7537C16.5844 16.1575 17.5316 15.8579 18.6816 15.8579C19.532 15.8579 20.2977 16.0213 20.9756 16.3512C21.6535 16.6811 22.1861 17.138 22.5704 17.7191C22.9548 18.3032 23.1454 18.9569 23.1454 19.6832C23.1454 20.4246 22.9669 21.0511 22.6098 21.5655C22.2527 22.08 21.8138 22.4734 21.2933 22.7488V22.8729C21.9654 23.15 22.5493 23.6052 22.982 24.1894C23.4208 24.7795 23.6417 25.4846 23.6417 26.3078C23.6417 27.1309 23.4329 27.8663 23.0153 28.5109C22.5977 29.1555 22.0196 29.664 21.2873 30.0332C20.5519 30.4024 19.7257 30.59 18.8087 30.59C17.7465 30.593 16.766 30.2874 15.8611 29.6761ZM28.7623 19.2534L26.4562 20.9209L25.3032 19.1717L29.4402 16.1878H31.0259V30.2632H28.7623V19.2534Z" fill="#4285F4"/>
</g>
</g>
<defs>
<clipPath id="clip0_281_558">
<rect width="46" height="46" fill="white"/>
</clipPath>
<clipPath id="clip1_281_558">
<rect width="46" height="46" fill="white"/>
</clipPath>
</defs>
</svg>
