<svg width="46" height="46" viewBox="0 0 46 46" fill="none" xmlns="http://www.w3.org/2000/svg">
<g clip-path="url(#clip0_237_717)">
<path d="M3.40206 37.282L5.3866 40.6923C5.79897 41.4102 6.39175 41.9743 7.08763 42.3846L14.1753 30.1794H0C0 30.9743 0.206186 31.7692 0.618557 32.4871L3.40206 37.282Z" fill="#0066DA"/>
<path d="M22.5 15.8206L15.4124 3.61548C14.7165 4.02573 14.1237 4.58984 13.7113 5.30779L0.618557 27.8719C0.21377 28.5744 0.00053895 29.3699 0 30.1796H14.1753L22.5 15.8206Z" fill="#00AC47"/>
<path d="M37.9124 42.3846C38.6083 41.9743 39.201 41.4102 39.6134 40.6923L40.4382 39.282L44.3815 32.4871C44.7938 31.7692 45 30.9743 45 30.1794H30.8237L33.8402 36.0769L37.9124 42.3846Z" fill="#EA4335"/>
<path d="M22.5002 15.8205L29.5879 3.61538C28.892 3.20513 28.093 3 27.2683 3H17.7322C16.9074 3 16.1085 3.23077 15.4126 3.61538L22.5002 15.8205Z" fill="#00832D"/>
<path d="M30.8245 30.1794H14.175L7.0874 42.3846C7.78328 42.7948 8.58225 43 9.40699 43H35.5926C36.4173 43 37.2163 42.7692 37.9121 42.3846L30.8245 30.1794Z" fill="#2684FC"/>
<path d="M37.8351 16.5898L31.2887 5.30779C30.8763 4.58984 30.2835 4.02573 29.5876 3.61548L22.5 15.8206L30.8247 30.1796H44.9742C44.9742 29.3847 44.768 28.5898 44.3557 27.8719L37.8351 16.5898Z" fill="#FFBA00"/>
</g>
<defs>
<clipPath id="clip0_237_717">
<rect width="45" height="40" fill="white" transform="translate(0 3)"/>
</clipPath>
</defs>
</svg>
