<svg width="46" height="46" viewBox="0 0 46 46" fill="none" xmlns="http://www.w3.org/2000/svg">
<g clip-path="url(#clip0_281_1068)">
<g clip-path="url(#clip1_281_1068)">
<path d="M46 22.9997C46 35.7025 35.7023 45.9996 22.9999 45.9996C19.0172 45.9996 15.2709 44.9877 12.0045 43.2063C4.85257 39.306 0 31.7198 0 22.9997C0 10.2975 10.2975 0 22.9999 0C35.7025 0 46 10.2975 46 22.9997Z" fill="#20B276"/>
<path d="M32.1798 29.5415C29.7461 32.0495 26.7925 33.3044 23.3198 33.3044C21.2002 33.3044 19.2312 32.9457 17.3851 31.9036L17.3629 45.2588L17.188 45.2115L17.0797 45.1838L16.9519 45.1143L16.8916 45.0053L16.8362 44.8821L16.8977 44.8049L10.8076 37.5435L10.8094 20.3784C10.8094 16.8017 12.0261 13.764 14.46 11.2649C16.8934 8.76552 19.8468 7.51611 23.3198 7.51611C26.7925 7.51611 29.7459 8.76997 32.1798 11.2786C34.6132 13.7868 35.8303 16.8309 35.8303 20.4102C35.8303 23.9899 34.6134 27.0334 32.1798 29.5415ZM27.5344 16.0627C26.3788 14.8707 24.974 14.275 23.3198 14.275C21.6651 14.275 20.2603 14.8707 19.1053 16.0627C17.9498 17.2547 17.372 18.7035 17.372 20.4105C17.372 22.117 17.9496 23.5659 19.1053 24.7579C20.2603 25.95 21.6651 26.5461 23.3198 26.5461C24.974 26.5461 26.3788 25.95 27.5344 24.7579C28.6897 23.5659 29.2675 22.117 29.2675 20.4105C29.2675 18.7035 28.6897 17.2545 27.5344 16.0627Z" fill="#147F52"/>
<path d="M31.7011 29.0675C29.2674 31.5759 26.3142 32.8305 22.8413 32.8305C20.7219 32.8305 18.7395 32.3094 16.8936 31.2673L16.8917 45.1802C16.8917 45.1802 16.4425 45.0564 15.8577 44.8676C15.7096 44.8195 15.5622 44.7694 15.4154 44.7172C15.3429 44.6915 15.3075 44.6764 15.2329 44.6548C15.0416 44.5997 14.7991 44.4934 14.6122 44.4207C14.2251 44.2698 13.8419 44.1087 13.4633 43.9375C13.451 43.9317 11.6537 43.0742 11.451 42.9477C11.2695 42.8342 11.1079 42.7454 10.9694 42.646C10.9252 42.6143 10.8918 42.5918 10.8498 42.563C10.5206 42.3367 10.3366 42.2067 10.3366 42.2067L10.3311 19.9047C10.3311 16.3279 11.5478 13.2902 13.9817 10.7912C16.4153 8.29171 19.3685 7.04248 22.8415 7.04248C26.3143 7.04248 29.2674 8.29633 31.7013 10.8049C34.1347 13.3132 35.3521 16.3572 35.3521 19.9364C35.3519 23.5157 34.1345 26.5592 31.7011 29.0675ZM27.0558 15.5887C25.9003 14.3967 24.4955 13.801 22.8413 13.801C21.1868 13.801 19.782 14.3967 18.6268 15.5887C17.4712 16.7807 16.8936 18.2296 16.8936 19.9364C16.8936 21.643 17.4712 23.0919 18.6268 24.2837C19.782 25.4762 21.1868 26.0721 22.8413 26.0721C24.4955 26.0721 25.9003 25.4762 27.0558 24.2837C28.211 23.0919 28.789 21.643 28.789 19.9364C28.789 18.2296 28.211 16.7807 27.0558 15.5887Z" fill="white"/>
</g>
</g>
<defs>
<clipPath id="clip0_281_1068">
<rect width="46" height="46" fill="white"/>
</clipPath>
<clipPath id="clip1_281_1068">
<rect width="46" height="46" fill="white"/>
</clipPath>
</defs>
</svg>
