<svg width="46" height="46" viewBox="0 0 46 46" fill="none" xmlns="http://www.w3.org/2000/svg">
<g clip-path="url(#clip0_281_168)">
<path d="M37.8758 8.85734C37.86 8.75875 37.8114 8.66824 37.7376 8.60027C37.6639 8.53231 37.5692 8.49082 37.4689 8.48244C37.3002 8.46864 33.9955 8.41881 33.9955 8.41881C33.9955 8.41881 31.2322 5.75848 30.9592 5.48861C30.6861 5.21798 30.1531 5.29924 29.9458 5.36058C29.9434 5.36211 29.4275 5.52004 28.5579 5.78684C28.386 5.22879 28.1633 4.68735 27.8927 4.16918C26.9102 2.30848 25.4682 1.32484 23.7277 1.32178H23.7207C23.6 1.32178 23.4809 1.33328 23.3595 1.34324C23.3085 1.28228 23.2561 1.22247 23.2024 1.16384C22.4443 0.358843 21.4711 -0.0321571 20.3061 0.00234288C18.0581 0.0659762 15.8185 1.67521 14.0029 4.53334C12.725 6.54508 11.7534 9.07201 11.478 11.0285C8.89574 11.8213 7.09019 12.3748 7.05074 12.3878C5.74725 12.7934 5.70625 12.8325 5.53606 14.0507C5.40996 14.9707 2 41.101 2 41.101L30.5762 46L42.9613 42.9487C42.9613 42.9487 37.9075 9.08964 37.8758 8.85734ZM27.126 6.22614L24.9089 6.90618C24.8919 5.77841 24.7573 4.20828 24.2266 2.85204C25.9324 3.17251 26.7717 5.08534 27.126 6.22614ZM23.4136 7.36541L18.6429 8.82974C19.104 7.08021 19.9781 5.33758 21.0519 4.19601C21.451 3.77051 22.0103 3.29748 22.6725 3.02684C23.2937 4.31331 23.4291 6.13338 23.4136 7.36541ZM20.3502 1.48508C20.8786 1.47358 21.3226 1.58858 21.7024 1.83621C21.0944 2.14901 20.5072 2.59828 19.9565 3.18401C18.5284 4.70201 17.4338 7.05951 16.9975 9.33344C15.636 9.75128 14.3046 10.1607 13.0785 10.5356C13.8521 6.95601 16.8799 1.58474 20.3502 1.48508Z" fill="#95BF47"/>
<path d="M37.4696 8.48382C37.3009 8.46925 33.9962 8.42019 33.9962 8.42019C33.9962 8.42019 31.2329 5.75985 30.9606 5.48999C30.8547 5.39242 30.7199 5.33115 30.5762 5.31519L30.5777 45.9991L42.962 42.9486C42.962 42.9486 37.909 9.09102 37.8765 8.85872C37.8608 8.76004 37.8122 8.66943 37.7384 8.60133C37.6647 8.53324 37.57 8.4916 37.4696 8.48305V8.48382Z" fill="#5E8E3E"/>
<path d="M23.7122 14.7943L22.2733 20.1273C22.2733 20.1273 20.6689 19.4043 18.7666 19.5224C15.9778 19.6979 15.9485 21.4406 15.9763 21.8783C16.1287 24.2634 22.4597 24.784 22.8156 30.3715C23.0948 34.7668 20.4631 37.7736 16.6702 38.0113C12.1184 38.295 9.61279 35.6346 9.61279 35.6346L10.5775 31.569C10.5775 31.569 13.0993 33.455 15.1184 33.3285C16.4374 33.2457 16.9085 32.1823 16.8613 31.431C16.6632 28.3191 11.5065 28.5031 11.1808 23.391C10.907 19.0884 13.7577 14.7292 20.0485 14.3366C22.4721 14.1818 23.7122 14.7943 23.7122 14.7943Z" fill="white"/>
</g>
<defs>
<clipPath id="clip0_281_168">
<rect width="41" height="46" fill="white" transform="translate(2)"/>
</clipPath>
</defs>
</svg>
