<svg width="1654" height="1216" viewBox="0 0 1654 1216" fill="none" xmlns="http://www.w3.org/2000/svg">
<g clip-path="url(#clip0_209_1275)">
<rect width="1654" height="1216" fill="#DFE6F0"/>
<path d="M53.4434 709.179C53.4434 695.966 64.1547 685.254 77.3678 685.254H404.335C417.548 685.254 428.259 695.966 428.259 709.179V1036.15C428.259 1049.36 417.548 1060.07 404.335 1060.07H77.3678C64.1547 1060.07 53.4434 1049.36 53.4434 1036.15V709.179Z" fill="white"/>
<g clip-path="url(#clip1_209_1275)">
<g clip-path="url(#clip2_209_1275)">
<path d="M233.225 802.701L166.347 829.173C162.628 830.645 162.667 835.7 166.409 837.119L233.565 862.594C239.466 864.833 246.037 864.833 251.937 862.594L319.095 837.118C322.836 835.7 322.876 830.646 319.156 829.174L252.28 802.7C246.179 800.285 239.325 800.285 233.224 802.7" fill="#FCB400"/>
<path d="M248.717 876.503V940.146C248.717 943.172 251.908 945.245 254.849 944.13L329.682 916.344C330.516 916.028 331.232 915.479 331.736 914.768C332.241 914.058 332.51 913.218 332.51 912.359V848.718C332.51 845.691 329.32 843.618 326.378 844.734L251.546 872.52C250.711 872.836 249.995 873.385 249.491 874.096C248.987 874.806 248.717 875.644 248.717 876.503Z" fill="#18BFFF"/>
<path d="M231.238 879.786L209.03 890.044L206.775 891.086L159.894 912.574C156.923 913.946 153.129 911.874 153.129 908.716V848.984C153.129 847.841 153.741 846.855 154.563 846.113C154.899 845.792 155.282 845.518 155.698 845.298C156.818 844.655 158.415 844.483 159.774 844.997L230.865 871.943C234.479 873.315 234.763 878.157 231.238 879.786Z" fill="#F82B60"/>
<path d="M231.236 879.786L209.028 890.044L154.561 846.112C154.898 845.791 155.28 845.517 155.696 845.298C156.815 844.655 158.413 844.483 159.772 844.997L230.863 871.943C234.477 873.315 234.761 878.157 231.236 879.786Z" fill="black" fill-opacity="0.25"/>
</g>
</g>
<path d="M77.3678 687.248H404.335C416.447 687.248 426.265 697.067 426.265 709.179V1036.15C426.265 1048.26 416.447 1058.08 404.335 1058.08H77.3678C65.2558 1058.08 55.4371 1048.26 55.4371 1036.15V709.179C55.4371 697.067 65.2558 687.248 77.3678 687.248Z" stroke="#7C7F83" stroke-opacity="0.3" stroke-width="3.9874"/>
<path d="M639.592 709.179C639.592 695.966 650.303 685.254 663.516 685.254H990.483C1003.7 685.254 1014.41 695.966 1014.41 709.179V1036.15C1014.41 1049.36 1003.7 1060.07 990.483 1060.07H663.516C650.303 1060.07 639.592 1049.36 639.592 1036.15V709.179Z" fill="white"/>
<g clip-path="url(#clip3_209_1275)">
<g clip-path="url(#clip4_209_1275)">
<mask id="mask0_209_1275" style="mask-type:alpha" maskUnits="userSpaceOnUse" x="759" y="781" width="140" height="184">
<path d="M846.322 781.243H772.649C765.499 781.243 759.648 786.853 759.648 793.709V951.615C759.648 958.471 765.499 964.081 772.649 964.081H885.325C892.476 964.081 898.326 958.471 898.326 951.615V831.107L846.322 781.243Z" fill="white"/>
</mask>
<g mask="url(#mask0_209_1275)">
<path d="M846.322 781.243H772.649C765.499 781.243 759.648 786.853 759.648 793.709V951.615C759.648 958.471 765.499 964.081 772.649 964.081H885.325C892.476 964.081 898.326 958.471 898.326 951.615V831.107L867.99 810.331L846.322 781.243Z" fill="#0F9D58"/>
</g>
<mask id="mask1_209_1275" style="mask-type:alpha" maskUnits="userSpaceOnUse" x="759" y="781" width="140" height="184">
<path d="M846.322 781.243H772.649C765.499 781.243 759.648 786.853 759.648 793.709V951.615C759.648 958.471 765.499 964.081 772.649 964.081H885.325C892.476 964.081 898.326 958.471 898.326 951.615V831.107L846.322 781.243Z" fill="white"/>
</mask>
<g mask="url(#mask1_209_1275)">
<path d="M794.32 870.583V930.836H863.66V870.583H794.32ZM824.656 922.526H802.988V912.137H824.656V922.526ZM824.656 905.904H802.988V895.515H824.656V905.904ZM824.656 889.283H802.988V878.894H824.656V889.283ZM854.992 922.526H833.324V912.137H854.992V922.526ZM854.992 905.904H833.324V895.515H854.992V905.904ZM854.992 889.283H833.324V878.894H854.992V889.283Z" fill="#F1F1F1"/>
</g>
<mask id="mask2_209_1275" style="mask-type:alpha" maskUnits="userSpaceOnUse" x="759" y="781" width="140" height="184">
<path d="M846.322 781.243H772.649C765.499 781.243 759.648 786.853 759.648 793.709V951.615C759.648 958.471 765.499 964.081 772.649 964.081H885.325C892.476 964.081 898.326 958.471 898.326 951.615V831.107L846.322 781.243Z" fill="white"/>
</mask>
<g mask="url(#mask2_209_1275)">
<path d="M850.121 827.461L898.322 873.669V831.108L850.121 827.461Z" fill="url(#paint0_linear_209_1275)"/>
</g>
<mask id="mask3_209_1275" style="mask-type:alpha" maskUnits="userSpaceOnUse" x="759" y="781" width="140" height="184">
<path d="M846.322 781.243H772.649C765.499 781.243 759.648 786.853 759.648 793.709V951.615C759.648 958.471 765.499 964.081 772.649 964.081H885.325C892.476 964.081 898.326 958.471 898.326 951.615V831.107L846.322 781.243Z" fill="white"/>
</mask>
<g mask="url(#mask3_209_1275)">
<path d="M846.32 781.243V818.641C846.32 825.529 852.138 831.107 859.321 831.107H898.325L846.32 781.243Z" fill="#87CEAC"/>
</g>
<mask id="mask4_209_1275" style="mask-type:alpha" maskUnits="userSpaceOnUse" x="759" y="781" width="140" height="184">
<path d="M846.322 781.243H772.649C765.499 781.243 759.648 786.853 759.648 793.709V951.615C759.648 958.471 765.499 964.081 772.649 964.081H885.325C892.476 964.081 898.326 958.471 898.326 951.615V831.107L846.322 781.243Z" fill="white"/>
</mask>
<g mask="url(#mask4_209_1275)">
<path d="M772.649 781.243C765.499 781.243 759.648 786.853 759.648 793.709V794.748C759.648 787.891 765.499 782.282 772.649 782.282H846.322V781.243H772.649Z" fill="white" fill-opacity="0.2"/>
</g>
<mask id="mask5_209_1275" style="mask-type:alpha" maskUnits="userSpaceOnUse" x="759" y="781" width="140" height="184">
<path d="M846.322 781.243H772.649C765.499 781.243 759.648 786.853 759.648 793.709V951.615C759.648 958.471 765.499 964.081 772.649 964.081H885.325C892.476 964.081 898.326 958.471 898.326 951.615V831.107L846.322 781.243Z" fill="white"/>
</mask>
<g mask="url(#mask5_209_1275)">
<path d="M885.325 963.042H772.649C765.499 963.042 759.648 957.432 759.648 950.576V951.615C759.648 958.471 765.499 964.081 772.649 964.081H885.325C892.476 964.081 898.326 958.471 898.326 951.615V950.576C898.326 957.432 892.476 963.042 885.325 963.042Z" fill="#263238" fill-opacity="0.2"/>
</g>
<mask id="mask6_209_1275" style="mask-type:alpha" maskUnits="userSpaceOnUse" x="759" y="781" width="140" height="184">
<path d="M846.322 781.243H772.649C765.499 781.243 759.648 786.853 759.648 793.709V951.615C759.648 958.471 765.499 964.081 772.649 964.081H885.325C892.476 964.081 898.326 958.471 898.326 951.615V831.107L846.322 781.243Z" fill="white"/>
</mask>
<g mask="url(#mask6_209_1275)">
<path d="M859.321 831.107C852.138 831.107 846.32 825.529 846.32 818.641V819.68C846.32 826.568 852.138 832.146 859.321 832.146H898.325V831.107H859.321Z" fill="#263238" fill-opacity="0.1"/>
</g>
<path d="M846.324 781.243H772.651C765.501 781.243 759.65 786.853 759.65 793.709V951.615C759.65 958.471 765.501 964.081 772.651 964.081H885.327C892.478 964.081 898.328 958.471 898.328 951.615V831.107L846.324 781.243Z" fill="url(#paint1_radial_209_1275)"/>
</g>
</g>
<path d="M663.516 687.248H990.483C1002.6 687.248 1012.41 697.067 1012.41 709.179V1036.15C1012.41 1048.26 1002.6 1058.08 990.483 1058.08H663.516C651.404 1058.08 641.585 1048.26 641.585 1036.15V709.179C641.585 697.067 651.404 687.248 663.516 687.248Z" stroke="#7C7F83" stroke-opacity="0.3" stroke-width="3.9874"/>
<path d="M1225.74 709.179C1225.74 695.966 1236.45 685.254 1249.66 685.254H1576.63C1589.84 685.254 1600.56 695.966 1600.56 709.179V1036.15C1600.56 1049.36 1589.84 1060.07 1576.63 1060.07H1249.66C1236.45 1060.07 1225.74 1049.36 1225.74 1036.15V709.179Z" fill="white"/>
<g clip-path="url(#clip5_209_1275)">
<g clip-path="url(#clip6_209_1275)">
<path d="M1436.07 872.702C1436.08 879.316 1434.88 885.876 1432.55 892.065C1426.36 894.396 1419.8 895.591 1413.18 895.592H1413.11C1406.3 895.583 1399.77 894.338 1393.75 892.068C1391.41 885.878 1390.22 879.317 1390.22 872.702V872.622C1390.22 866.01 1391.41 859.451 1393.74 853.263C1399.93 850.927 1406.49 849.732 1413.11 849.735H1413.19C1419.8 849.732 1426.36 850.927 1432.55 853.262C1434.89 859.45 1436.08 866.009 1436.08 872.621V872.702L1436.07 872.702ZM1503.58 857.377H1450.05L1487.9 819.523C1484.93 815.35 1481.62 811.432 1477.99 807.81V807.807C1474.37 804.188 1470.45 800.877 1466.28 797.908L1428.43 835.762V782.229C1423.4 781.382 1418.3 780.955 1413.19 780.952H1413.1C1407.91 780.955 1402.82 781.396 1397.86 782.229V835.762L1360.01 797.908C1355.84 800.876 1351.92 804.19 1348.3 807.813L1348.28 807.827C1344.67 811.445 1341.36 815.357 1338.39 819.523L1376.25 857.377H1322.71C1322.71 857.377 1321.44 867.432 1321.44 872.631V872.694C1321.44 877.893 1321.88 882.988 1322.71 887.947H1376.25L1338.39 925.801C1344.35 934.158 1351.65 941.465 1360.01 947.42L1397.86 909.563V963.099C1402.89 963.941 1407.98 964.367 1413.08 964.372H1413.21C1418.31 964.368 1423.4 963.942 1428.43 963.099V909.563L1466.29 947.42C1470.46 944.449 1474.37 941.137 1477.99 937.518L1478 937.509C1481.62 933.887 1484.93 929.971 1487.9 925.801L1450.05 887.947H1503.58C1504.42 882.996 1504.85 877.916 1504.86 872.729V872.596C1504.85 867.408 1504.42 862.328 1503.58 857.377Z" fill="#FF4A00"/>
</g>
</g>
<path d="M1249.66 687.248H1576.63C1588.74 687.248 1598.56 697.067 1598.56 709.179V1036.15C1598.56 1048.26 1588.74 1058.08 1576.63 1058.08H1249.66C1237.55 1058.08 1227.73 1048.26 1227.73 1036.15V709.179C1227.73 697.067 1237.55 687.248 1249.66 687.248Z" stroke="#7C7F83" stroke-opacity="0.3" stroke-width="3.9874"/>
<path d="M-201.75 174.867C-201.75 161.654 -191.039 150.942 -177.826 150.942H149.141C162.354 150.942 173.066 161.654 173.066 174.867V501.834C173.066 515.047 162.354 525.758 149.141 525.758H-177.826C-191.039 525.758 -201.75 515.047 -201.75 501.834V174.867Z" fill="white"/>
<g clip-path="url(#clip7_209_1275)">
<g clip-path="url(#clip8_209_1275)">
<path d="M30.0495 333.006H33.8444C34.6493 331.312 34.6493 328.828 33.8444 326.006C33.0394 321.829 31.7748 319.007 29.2454 319.345C26.7153 319.796 26.7153 323.071 27.5202 327.248C27.8654 329.731 28.7849 331.763 30.0495 333.006ZM7.74277 336.732C9.46717 337.522 10.7318 337.973 11.077 337.522C11.5368 337.07 11.077 336.732 10.6173 335.829C9.81238 334.135 7.62742 332.893 6.01755 332.103C1.76299 330.409 -2.83596 330.861 -6.63079 333.796C-7.89546 334.586 -9.16012 335.829 -8.70039 336.732C-8.70039 337.183 -8.24066 337.183 -7.89546 337.183C-7.09052 337.183 -3.29569 335.49 0.958053 335.151C3.48821 335.038 6.01755 335.941 7.74277 336.732ZM3.94875 338.764C1.4186 339.215 0.153925 340.005 -0.651013 340.795C-1.45595 341.586 -1.91568 342.038 -1.91568 342.489V342.941H-1.45595C-0.996216 342.941 0.269267 342.489 0.269267 342.489C3.60355 341.248 5.7885 341.248 7.85811 341.699C9.12278 341.699 9.58251 342.15 9.92772 341.699V340.909C9.81238 339.667 7.28303 338.425 3.94875 338.764Z" fill="#A0AEC0"/>
<path d="M5.21224 341.698C6.01718 340.005 6.01718 336.279 5.21224 333.457C4.4073 329.28 3.14264 326.797 0.15275 326.797C-2.37659 327.248 -2.37659 330.522 -1.57165 335.038C-1.11192 337.973 0.152746 339.554 0.497951 340.795C2.6829 344.182 3.94757 343.279 5.21224 341.698ZM22.4595 346.215C24.1847 347.005 25.7946 346.667 26.7141 345.425C27.1746 344.182 26.2543 342.489 24.6445 341.699C22.9201 340.909 21.3102 341.248 20.3899 342.489C19.4705 343.731 20.7351 345.425 22.4595 346.215ZM32.9245 337.183C31.659 337.183 30.3944 338.425 30.3944 340.457C30.3944 342.15 31.1993 343.731 32.9245 343.731C34.1892 343.731 35.4539 342.489 35.4539 340.457C35.1087 338.763 34.1892 337.183 32.9245 337.183ZM-56.1897 369.357C-56.6502 368.906 -56.9946 368.906 -57.4552 369.357H-58.7198C-59.524 369.357 -60.4442 368.906 -60.7894 368.116C-61.1347 367.325 -61.2492 366.084 -60.7894 364.391L-60.3297 363.6C-59.065 361.116 -57.3398 357.391 -59.5248 353.665C-61.2492 350.73 -63.3188 349.149 -66.3087 348.698C-69.2977 348.246 -72.1731 349.488 -73.8975 351.633C-76.8874 354.907 -77.2326 359.084 -76.8874 360.665C-76.8874 361.116 -76.4277 361.455 -76.0825 361.455C-75.6227 361.455 -74.8178 361.004 -74.3581 359.761V359.31C-74.3581 358.519 -73.8975 357.617 -73.0926 356.374C-72.2884 355.133 -71.023 354.342 -69.7583 354.342C-68.4936 353.891 -66.7692 354.342 -65.5037 355.133C-63.4341 356.374 -62.5147 358.858 -63.4341 361.342C-64.6988 362.584 -65.1585 364.616 -65.1585 366.761C-64.6988 370.486 -62.1695 372.18 -60.0998 372.518C-58.0294 372.518 -56.305 371.277 -56.305 370.486C-55.8453 369.809 -56.1897 369.809 -56.1897 369.357Z" fill="#A0AEC0"/>
<path d="M66.152 362.358C66.152 361.907 65.6922 360.326 64.8873 357.842L63.1629 354.117C66.152 349.94 66.152 345.875 65.6922 343.843C65.2325 341.36 63.9678 338.876 61.8982 336.392C59.8278 333.909 54.7691 331.425 48.4441 329.732L45.1099 328.942C45.1099 328.942 45.1099 321.039 44.6501 317.765C44.6501 315.282 44.1904 311.556 42.9249 307.83C41.6603 302.862 39.1309 298.347 35.7958 295.412C44.1904 286.719 49.7096 276.784 49.7096 268.543C49.7096 252.85 29.9322 247.883 5.09527 257.818L0.0357764 259.85C0.0357764 259.85 -9.16294 250.819 -9.62349 250.819C-36.8744 226.884 -123.919 322.281 -96.2075 345.424L-90.3431 350.391C-92.0675 354.569 -92.4127 359.084 -92.0675 364.051C-91.2634 370.261 -87.813 376.47 -82.8688 381.437C-77.8093 385.954 -71.1399 388.888 -64.356 388.888C-53.4329 413.726 -28.596 428.515 0.380978 429.418C31.5421 430.208 57.9881 415.758 68.912 390.131C69.7169 388.437 72.7068 380.196 72.7068 372.745C73.3964 365.181 69.1419 362.358 66.152 362.358ZM-61.7122 381.776C-62.5163 381.776 -63.781 382.228 -64.7012 381.776C-73.9 381.325 -84.4787 373.083 -85.2836 363.149C-86.0877 352.423 -80.6839 344.182 -70.5657 342.037C-69.3002 341.586 -68.0355 341.586 -66.3111 341.586C-60.7919 342.037 -52.3973 346.102 -50.3277 358.068C-48.7178 369.358 -51.1334 380.082 -61.7122 381.776ZM-72.1756 335.49C-78.4997 336.731 -83.9044 340.005 -87.3532 344.973C-89.4228 343.279 -93.2177 340.005 -93.6774 338.763C-99.1966 328.828 -87.813 309.072 -79.7636 298.234C-60.4467 271.027 -29.7461 250.367 -15.8331 253.979C-13.3038 254.769 -5.71413 263.462 -5.71413 263.462C-5.71413 263.462 -19.9723 271.365 -33.0812 282.09C-50.7874 294.96 -64.2415 314.378 -72.1756 335.49ZM27.0568 377.599L27.5174 377.148C27.5174 376.696 27.0568 376.696 27.0568 376.696C27.0568 376.696 12.3389 378.728 -1.5741 373.761C0.150302 368.793 3.94512 370.486 10.1548 371.277C21.0779 372.067 31.1969 370.486 38.326 368.342C44.6501 366.648 53.0439 362.923 59.3681 358.068C61.4377 362.584 62.358 368.003 62.358 368.003C62.358 368.003 64.0824 367.552 65.347 368.454C66.6125 369.245 67.4175 370.939 67.0723 375.116C65.8076 383.357 62.0128 389.566 56.6089 395.775C53.2738 399.501 48.5595 402.775 43.6153 405.258C41.0852 406.501 38.0961 407.742 35.2216 408.533C12.4542 415.532 -10.1977 408.08 -17.3268 391.147C-17.7874 389.905 -18.5923 388.663 -18.5923 386.969C-21.5814 375.793 -19.0521 362.584 -10.5429 354.343C-10.0832 353.892 -9.73801 353.101 -9.73801 352.311C-9.73801 351.521 -10.1977 351.069 -10.5429 350.617C-13.5328 346.44 -23.5365 339.44 -21.4669 325.78C-20.2014 315.845 -11.3479 309.298 -3.41384 309.636H-1.34424C1.99004 309.636 5.43965 310.427 7.85447 310.427C12.4542 310.427 17.0532 309.975 22.1127 305.911C23.8379 304.669 25.1026 303.427 27.6319 302.976C28.0924 302.976 28.4368 302.524 29.7015 302.976C30.967 302.976 32.2317 303.427 33.0366 304.217C37.2912 307.152 37.6356 313.249 38.0961 318.216C38.0961 321.151 38.5558 327.7 38.5558 329.393C39.0156 333.57 39.8205 334.361 42.3507 335.151C43.6153 335.602 44.88 335.941 46.6044 336.392C52.1244 338.086 55.4587 339.328 57.5283 341.36C58.793 342.602 59.2536 343.843 59.598 345.086C60.4029 349.601 55.8039 355.359 44.4203 360.778C31.7719 366.536 17.0532 367.777 6.5898 366.536L2.79498 366.083C-5.59879 364.842 -10.1977 375.567 -5.25359 382.567C-1.91931 387.082 6.93501 390.469 15.3288 390.469C35.566 390.469 51.0888 382.228 56.6089 374.777L57.0686 373.987C57.5283 373.535 57.0686 373.196 56.6089 373.535C52.0091 376.809 30.967 389.227 8.65942 385.502C8.65942 385.502 6.13007 385.05 3.59992 384.26C1.53031 383.469 -2.2637 381.776 -3.18398 377.599C15.674 383.018 27.0568 377.599 27.0568 377.599ZM-36.0695 298.347C-29.2856 290.444 -20.5466 283.445 -12.9578 279.72C-12.498 279.72 -12.498 279.72 -12.498 280.171C-12.9578 281.413 -14.2224 283.445 -14.5676 285.138C-14.5676 285.59 -14.1079 285.59 -14.1079 285.59C-9.50814 282.316 -1.11438 278.929 6.13006 278.59C6.5898 278.59 6.5898 279.042 6.5898 279.042C5.32513 279.832 4.5202 281.074 3.25553 282.316C3.25553 282.316 3.25552 282.768 3.71525 282.768C8.77475 282.768 15.9039 284.461 20.5028 287.284C20.9634 287.284 20.5028 288.073 20.0431 288.073C12.914 286.38 1.53031 285.138 -10.6583 288.073C-21.5814 290.557 -29.6308 294.735 -35.4952 298.799C-36.0695 298.686 -36.4147 298.686 -36.0695 298.347Z" fill="#A0AEC0"/>
</g>
</g>
<path d="M-177.826 152.936H149.141C161.253 152.936 171.072 162.755 171.072 174.867V501.834C171.072 513.946 161.253 523.764 149.141 523.764H-177.826C-189.938 523.764 -199.756 513.946 -199.756 501.834V174.867C-199.756 162.755 -189.938 152.936 -177.826 152.936Z" stroke="#7C7F83" stroke-opacity="0.3" stroke-width="3.9874"/>
<path d="M384.398 174.867C384.398 161.654 395.11 150.942 408.323 150.942H735.29C748.503 150.942 759.214 161.654 759.214 174.867V501.834C759.214 515.047 748.503 525.758 735.29 525.758H408.323C395.11 525.758 384.398 515.047 384.398 501.834V174.867Z" fill="white"/>
<g clip-path="url(#clip9_209_1275)">
<path d="M562.084 246.641C541.748 246.641 523.68 259.56 517.382 278.629C510.919 279.943 504.814 282.6 499.473 286.424C494.132 290.247 489.678 295.149 486.406 300.803C476.207 318.194 478.536 340.058 492.2 354.965C487.981 367.451 489.429 381.114 496.166 392.42C506.303 409.873 526.7 418.818 546.66 414.656C551.03 419.522 556.402 423.413 562.416 426.069C568.431 428.725 574.95 430.086 581.54 430.06C601.877 430.06 619.944 417.141 626.242 398.072C639.337 395.4 650.608 387.325 657.155 375.898C667.417 358.506 665.088 336.642 651.427 321.736V321.674C653.511 315.502 654.235 308.963 653.551 302.493C652.867 296.023 650.79 289.772 647.46 284.157C637.321 266.766 616.922 257.819 597.027 261.981C592.636 257.128 587.251 253.25 581.227 250.606C575.203 247.961 568.678 246.609 562.084 246.641ZM562.084 258.567L562.022 258.629C570.207 258.629 578.078 261.424 584.373 266.581C584.121 266.704 583.617 267.014 583.24 267.202L546.221 288.258C544.331 289.314 543.198 291.302 543.198 293.476V342.917L527.269 333.85V292.979C527.266 283.862 530.93 275.117 537.458 268.664C543.986 262.211 552.844 258.581 562.084 258.567ZM606.68 272.961C612.814 272.95 618.843 274.536 624.157 277.56C629.472 280.584 633.882 284.939 636.944 290.183C640.973 297.141 642.483 305.277 641.098 313.165C640.845 312.978 640.344 312.732 640.027 312.545L603.008 291.425C602.076 290.905 601.025 290.632 599.955 290.632C598.885 290.632 597.833 290.905 596.902 291.425L553.522 316.145V298.008L589.346 277.572C594.613 274.56 600.591 272.968 606.68 272.959V272.961ZM515.118 291.735V335.152C515.118 337.327 516.251 339.253 518.141 340.371L561.455 365.03L545.462 374.159L509.701 353.785C501.709 349.216 495.882 341.705 493.498 332.901C491.114 324.097 492.368 314.719 496.985 306.827C501.058 299.862 507.473 294.524 515.118 291.735ZM598.097 302.48L633.921 322.854C650.606 332.357 656.27 353.352 646.637 369.812L646.699 369.874C642.608 376.831 636.185 382.173 628.567 384.906V341.487C628.567 339.312 627.433 337.325 625.544 336.271L582.167 311.548L598.097 302.48ZM571.78 317.451L590.039 327.885V348.692L571.78 359.127L553.522 348.692V327.885L571.78 317.451ZM600.489 333.85L616.417 342.917V383.727C616.417 402.734 600.803 418.138 581.602 418.138V418.076C573.48 418.076 565.547 415.281 559.314 410.127C559.566 410.003 560.132 409.691 560.447 409.504L597.466 388.448C599.356 387.391 600.551 385.404 600.487 383.229L600.489 333.85ZM590.1 360.558V378.693L554.276 399.067C537.592 408.509 516.311 402.919 506.678 386.52H506.741C502.649 379.624 501.199 371.426 502.585 363.538C502.837 363.725 503.341 363.971 503.655 364.158L540.675 385.278C541.606 385.798 542.658 386.071 543.728 386.071C544.797 386.071 545.849 385.798 546.781 385.278L590.1 360.558Z" fill="#0F0F0F"/>
</g>
<path d="M408.323 152.936H735.29C747.402 152.936 757.22 162.755 757.22 174.867V501.834C757.22 513.946 747.402 523.764 735.29 523.764H408.323C396.211 523.764 386.392 513.946 386.392 501.834V174.867C386.392 162.755 396.211 152.936 408.323 152.936Z" stroke="#7C7F83" stroke-opacity="0.3" stroke-width="3.9874"/>
<path d="M970.547 174.867C970.547 161.654 981.258 150.942 994.471 150.942H1321.44C1334.65 150.942 1345.36 161.654 1345.36 174.867V501.834C1345.36 515.047 1334.65 525.758 1321.44 525.758H994.471C981.258 525.758 970.547 515.047 970.547 501.834V174.867Z" fill="white"/>
<g clip-path="url(#clip10_209_1275)">
<g clip-path="url(#clip11_209_1275)">
<path d="M1079.81 395.299L1087.72 408.897C1089.37 411.759 1091.73 414.009 1094.51 415.645L1122.77 366.978H1066.24C1066.24 370.147 1067.07 373.317 1068.71 376.18L1079.81 395.299Z" fill="#0066DA"/>
<path d="M1155.96 309.723L1127.7 261.056C1124.92 262.692 1122.56 264.941 1120.92 267.804L1068.71 357.776C1067.1 360.577 1066.25 363.749 1066.24 366.978H1122.77L1155.96 309.723Z" fill="#00AC47"/>
<path d="M1217.42 415.645C1220.19 414.009 1222.56 411.759 1224.2 408.897L1227.49 403.273L1243.21 376.18C1244.86 373.317 1245.68 370.147 1245.68 366.978H1189.15L1201.18 390.493L1217.42 415.645Z" fill="#EA4335"/>
<path d="M1155.96 309.723L1184.22 261.056C1181.45 259.42 1178.26 258.602 1174.97 258.602H1136.95C1133.66 258.602 1130.47 259.522 1127.7 261.056L1155.96 309.723Z" fill="#00832D"/>
<path d="M1189.16 366.978H1122.77L1094.51 415.645C1097.28 417.281 1100.47 418.098 1103.75 418.098H1208.17C1211.46 418.098 1214.64 417.178 1217.42 415.645L1189.16 366.978Z" fill="#2684FC"/>
<path d="M1217.11 312.79L1191 267.804C1189.36 264.941 1187 262.692 1184.22 261.056L1155.96 309.723L1189.16 366.978H1245.57C1245.57 363.808 1244.75 360.639 1243.11 357.776L1217.11 312.79Z" fill="#FFBA00"/>
</g>
</g>
<path d="M994.471 152.936H1321.44C1333.55 152.936 1343.37 162.755 1343.37 174.867V501.834C1343.37 513.946 1333.55 523.764 1321.44 523.764H994.471C982.359 523.764 972.541 513.946 972.541 501.834V174.867C972.541 162.755 982.359 152.936 994.471 152.936Z" stroke="#7C7F83" stroke-opacity="0.3" stroke-width="3.9874"/>
<path d="M1556.7 174.867C1556.7 161.654 1567.41 150.942 1580.62 150.942H1907.59C1920.8 150.942 1931.51 161.654 1931.51 174.867V501.834C1931.51 515.047 1920.8 525.758 1907.59 525.758H1580.62C1567.41 525.758 1556.7 515.047 1556.7 501.834V174.867Z" fill="white"/>
<g clip-path="url(#clip12_209_1275)">
<g clip-path="url(#clip13_209_1275)">
<path d="M1664.9 406.136H1694.08V336.296L1652.39 305.484V393.811C1652.39 400.631 1658 406.136 1664.9 406.136Z" fill="#4285F4"/>
<path d="M1652.39 289.051V305.484L1694.08 336.296V282.889L1682.41 274.262C1670.03 265.121 1652.39 273.81 1652.39 289.051Z" fill="#C5221F"/>
</g>
</g>
<path d="M1580.62 152.936H1907.59C1919.7 152.936 1929.52 162.755 1929.52 174.867V501.834C1929.52 513.946 1919.7 523.764 1907.59 523.764H1580.62C1568.51 523.764 1558.69 513.946 1558.69 501.834V174.867C1558.69 162.755 1568.51 152.936 1580.62 152.936Z" stroke="#7C7F83" stroke-opacity="0.3" stroke-width="3.9874"/>
</g>
<defs>
<linearGradient id="paint0_linear_209_1275" x1="874.224" y1="831.429" x2="874.224" y2="873.676" gradientUnits="userSpaceOnUse">
<stop stop-color="#263238" stop-opacity="0.2"/>
<stop offset="1" stop-color="#263238" stop-opacity="0.02"/>
</linearGradient>
<radialGradient id="paint1_radial_209_1275" cx="0" cy="0" r="1" gradientUnits="userSpaceOnUse" gradientTransform="translate(764.044 784.877) scale(223.616 214.417)">
<stop stop-color="white" stop-opacity="0.1"/>
<stop offset="1" stop-color="white" stop-opacity="0"/>
</radialGradient>
<clipPath id="clip0_209_1275">
<rect width="1654" height="1216" fill="white"/>
</clipPath>
<clipPath id="clip1_209_1275">
<rect width="183.42" height="183.42" fill="white" transform="translate(149.141 780.952)"/>
</clipPath>
<clipPath id="clip2_209_1275">
<rect width="179.433" height="143.546" fill="white" transform="translate(153.129 800.889)"/>
</clipPath>
<clipPath id="clip3_209_1275">
<rect width="183.42" height="183.42" fill="white" transform="translate(735.289 780.952)"/>
</clipPath>
<clipPath id="clip4_209_1275">
<rect width="139.559" height="183.42" fill="white" transform="translate(759.213 780.952)"/>
</clipPath>
<clipPath id="clip5_209_1275">
<rect width="183.42" height="183.42" fill="white" transform="translate(1321.44 780.952)"/>
</clipPath>
<clipPath id="clip6_209_1275">
<rect width="183.42" height="183.42" fill="white" transform="translate(1321.44 780.952)"/>
</clipPath>
<clipPath id="clip7_209_1275">
<rect width="183.42" height="183.42" fill="white" transform="translate(-106.053 246.64)"/>
</clipPath>
<clipPath id="clip8_209_1275">
<rect width="175.446" height="183.42" fill="white" transform="translate(-102.064 246.64)"/>
</clipPath>
<clipPath id="clip9_209_1275">
<rect width="183.42" height="183.42" fill="white" transform="translate(480.096 246.64)"/>
</clipPath>
<clipPath id="clip10_209_1275">
<rect width="183.42" height="183.42" fill="white" transform="translate(1066.24 246.64)"/>
</clipPath>
<clipPath id="clip11_209_1275">
<rect width="179.433" height="159.496" fill="white" transform="translate(1066.24 258.602)"/>
</clipPath>
<clipPath id="clip12_209_1275">
<rect width="183.42" height="183.42" fill="white" transform="translate(1652.39 246.64)"/>
</clipPath>
<clipPath id="clip13_209_1275">
<rect width="183.42" height="135.572" fill="white" transform="translate(1652.39 270.565)"/>
</clipPath>
</defs>
</svg>
