<svg width="46" height="46" viewBox="0 0 46 46" fill="none" xmlns="http://www.w3.org/2000/svg">
<g clip-path="url(#clip0_281_1011)">
<path d="M3.18604 22.4121C3.18604 30.0226 7.60885 36.5996 14.0223 39.7163L4.85068 14.5873C3.75121 17.0493 3.18396 19.7157 3.18604 22.4121ZM35.3929 21.4419C35.3929 19.0657 34.5393 17.4201 33.8073 16.1392C32.8326 14.5554 31.9191 13.2142 31.9191 11.6304C31.9191 9.86299 33.2596 8.21774 35.1477 8.21774C35.233 8.21774 35.3138 8.22835 35.3965 8.23311C31.9758 5.09921 27.4191 3.18579 22.4135 3.18579C15.6964 3.18579 9.78677 6.63213 6.34885 11.8521C6.79994 11.8657 7.22507 11.8752 7.58616 11.8752C9.59726 11.8752 12.7103 11.6312 12.7103 11.6312C13.7468 11.5701 13.869 13.0924 12.8336 13.2149C12.8336 13.2149 11.792 13.3375 10.633 13.3982L17.6343 34.2244L21.8417 21.6051L18.8464 13.3975C17.811 13.3368 16.8302 13.2142 16.8302 13.2142C15.7941 13.1535 15.9156 11.5693 16.9517 11.6304C16.9517 11.6304 20.1269 11.8744 22.0162 11.8744C24.0269 11.8744 27.1403 11.6304 27.1403 11.6304C28.1775 11.5693 28.2993 13.0916 27.2636 13.2142C27.2636 13.2142 26.2198 13.3368 25.063 13.3975L32.0113 34.066L33.9291 27.6574C34.7603 24.998 35.3929 23.0879 35.3929 21.4419Z" fill="#A0AEC0"/>
<path d="M22.7502 24.094L16.9814 40.857C18.7452 41.3765 20.5743 41.6403 22.4129 41.6403C24.6519 41.6403 26.7991 41.2532 28.7978 40.5504C28.7445 40.4663 28.6987 40.3777 28.661 40.2855L22.7502 24.094ZM39.2839 13.1875C39.3666 13.7999 39.4134 14.457 39.4134 15.1646C39.4134 17.1157 39.049 19.309 37.9514 22.0514L32.0784 39.0318C37.7945 35.6985 41.6393 29.5057 41.6393 22.4125C41.6396 19.0697 40.7857 15.9259 39.2839 13.1875Z" fill="#A0AEC0"/>
<path d="M22.4129 0C10.0548 0 0 10.054 0 22.4122C0 34.7718 10.0548 44.8255 22.4129 44.8255C34.7707 44.8255 44.827 34.7718 44.827 22.4122C44.8266 10.054 34.7707 0 22.4129 0ZM22.4129 43.7982C10.6215 43.7982 1.02768 34.2044 1.02768 22.4122C1.02768 10.6207 10.6211 1.02768 22.4129 1.02768C34.204 1.02768 43.7971 10.6207 43.7971 22.4122C43.7971 34.2044 34.204 43.7982 22.4129 43.7982Z" fill="#A0AEC0"/>
</g>
<defs>
<clipPath id="clip0_281_1011">
<rect width="45" height="45" fill="white"/>
</clipPath>
</defs>
</svg>
