<svg width="462" height="483" viewBox="0 0 462 483" fill="none" xmlns="http://www.w3.org/2000/svg">
<path fill-rule="evenodd" clip-rule="evenodd" d="M0 112.241C227.756 227.104 252.931 419.185 255.542 470.256C255.719 473.693 257.211 476.931 259.71 479.302C262.208 481.673 265.524 482.997 268.971 483H448.539C450.324 482.996 452.091 482.638 453.736 481.946C455.381 481.254 456.872 480.243 458.122 478.97C459.372 477.698 460.356 476.19 461.016 474.534C461.676 472.878 462 471.108 461.968 469.327C457.852 182.632 319.654 91.7755 240.821 63.2889C238.192 62.3162 235.925 60.5635 234.324 58.2665C232.722 55.9696 231.864 53.2383 231.864 50.44C231.864 47.6417 232.722 44.9105 234.324 42.6135C235.925 40.3165 238.192 38.5638 240.821 37.5911C261.453 30.1278 286.152 18.3942 311.449 0H0V112.241Z" fill="#F3BE22" fill-opacity="0.1"/>
</svg>
