<svg width="320" height="330" viewBox="0 0 320 330" fill="none" xmlns="http://www.w3.org/2000/svg">
<path d="M34.829 96.1562L33.939 95.6963C41.7076 80.5286 52.1403 66.8815 64.739 55.4062L65.419 56.1463C52.9065 67.5415 42.545 81.0938 34.829 96.1562Z" fill="#F3BE22"/>
<path d="M22.3091 131.856L21.3091 131.656C22.7566 124.585 24.7424 117.635 27.2491 110.866L28.1891 111.216C25.7025 117.935 23.7367 124.836 22.3091 131.856Z" fill="#F3BE22"/>
<path opacity="0.9" d="M239.9 239.9C284.065 195.736 284.065 124.131 239.9 79.9669C195.736 35.8025 124.131 35.8025 79.9667 79.9669C35.8023 124.131 35.8023 195.736 79.9667 239.9C124.131 284.065 195.736 284.065 239.9 239.9Z" fill="#FAFAFA"/>
<g opacity="0.4">
<path d="M79.9093 223.186H53.3193L58.4593 210.566H74.7693L79.9093 223.186Z" fill="#F3BE22"/>
<path opacity="0.2" d="M79.9093 223.186H53.3193L58.4593 210.566H74.7693L79.9093 223.186Z" fill="#FAFAFA"/>
<path d="M120.319 223.186H79.909L74.769 210.566H115.179L120.319 223.186Z" fill="#F3BE22"/>
<path opacity="0.3" d="M120.319 223.186H79.909L74.769 210.566H115.179L120.319 223.186Z" fill="black"/>
<path d="M113.849 223.186H87.249L92.389 210.566H108.709L113.849 223.186Z" fill="#F3BE22"/>
<path opacity="0.2" d="M113.849 223.186H87.249L92.389 210.566H108.709L113.849 223.186Z" fill="#FAFAFA"/>
<path d="M154.249 223.186H113.849L108.709 210.566H149.109L154.249 223.186Z" fill="#F3BE22"/>
<path opacity="0.3" d="M154.249 223.186H113.849L108.709 210.566H149.109L154.249 223.186Z" fill="black"/>
<path d="M147.779 223.186H121.189L126.329 210.566H142.639L147.779 223.186Z" fill="#F3BE22"/>
<path opacity="0.2" d="M147.779 223.186H121.189L126.329 210.566H142.639L147.779 223.186Z" fill="#FAFAFA"/>
<path d="M188.179 223.186H147.779L142.639 210.566H183.049L188.179 223.186Z" fill="#F3BE22"/>
<path opacity="0.3" d="M188.179 223.186H147.779L142.639 210.566H183.049L188.179 223.186Z" fill="black"/>
<path d="M181.709 223.186H155.119L160.259 210.566H176.569L181.709 223.186Z" fill="#F3BE22"/>
<path opacity="0.2" d="M181.709 223.186H155.119L160.259 210.566H176.569L181.709 223.186Z" fill="#FAFAFA"/>
<path d="M222.119 223.186H181.709L176.569 210.566H216.979L222.119 223.186Z" fill="#F3BE22"/>
<path opacity="0.3" d="M222.119 223.186H181.709L176.569 210.566H216.979L222.119 223.186Z" fill="black"/>
<path d="M215.649 223.186H189.049L194.189 210.566H210.509L215.649 223.186Z" fill="#F3BE22"/>
<path opacity="0.2" d="M215.649 223.186H189.049L194.189 210.566H210.509L215.649 223.186Z" fill="#FAFAFA"/>
<path d="M237.209 223.186C238.496 219.006 239.663 214.8 240.709 210.566H210.509L215.649 223.186H237.209Z" fill="#F3BE22"/>
<path opacity="0.3" d="M237.209 223.186C238.496 219.006 239.663 214.8 240.709 210.566H210.509L215.649 223.186H237.209Z" fill="black"/>
<path d="M240.709 210.566H228.129L222.989 223.186H237.209C238.503 219.006 239.669 214.8 240.709 210.566Z" fill="#F3BE22"/>
<path opacity="0.2" d="M240.709 210.566H228.129L222.989 223.186H237.209C238.503 219.006 239.669 214.8 240.709 210.566Z" fill="#FAFAFA"/>
<path d="M90.2792 210.567H63.6792L68.8192 197.937H85.1392L90.2792 210.567Z" fill="#F3BE22"/>
<path opacity="0.2" d="M90.2792 210.567H63.6792L68.8192 197.937H85.1392L90.2792 210.567Z" fill="#FAFAFA"/>
<path d="M130.679 210.567H90.2792L85.1392 197.937H125.539L130.679 210.567Z" fill="#F3BE22"/>
<path opacity="0.3" d="M130.679 210.567H90.2792L85.1392 197.937H125.539L130.679 210.567Z" fill="black"/>
<path d="M124.209 210.567H97.6191L102.759 197.937H119.069L124.209 210.567Z" fill="#F3BE22"/>
<path opacity="0.2" d="M124.209 210.567H97.6191L102.759 197.937H119.069L124.209 210.567Z" fill="#FAFAFA"/>
<path d="M164.609 210.567H124.209L119.069 197.937H159.479L164.609 210.567Z" fill="#F3BE22"/>
<path opacity="0.3" d="M164.609 210.567H124.209L119.069 197.937H159.479L164.609 210.567Z" fill="black"/>
<path d="M158.139 210.567H131.549L136.689 197.937H152.999L158.139 210.567Z" fill="#F3BE22"/>
<path opacity="0.2" d="M158.139 210.567H131.549L136.689 197.937H152.999L158.139 210.567Z" fill="#FAFAFA"/>
<path d="M198.549 210.567H158.139L152.999 197.937H193.409L198.549 210.567Z" fill="#F3BE22"/>
<path opacity="0.3" d="M198.549 210.567H158.139L152.999 197.937H193.409L198.549 210.567Z" fill="black"/>
<path d="M192.079 210.567H165.479L170.619 197.937H186.939L192.079 210.567Z" fill="#F3BE22"/>
<path opacity="0.2" d="M192.079 210.567H165.479L170.619 197.937H186.939L192.079 210.567Z" fill="#FAFAFA"/>
<path d="M232.479 210.567H192.079L186.939 197.937H227.339L232.479 210.567Z" fill="#F3BE22"/>
<path opacity="0.3" d="M232.479 210.567H192.079L186.939 197.937H227.339L232.479 210.567Z" fill="black"/>
<path d="M226.009 210.567H199.419L204.559 197.937H220.869L226.009 210.567Z" fill="#F3BE22"/>
<path opacity="0.2" d="M226.009 210.567H199.419L204.559 197.937H220.869L226.009 210.567Z" fill="#FAFAFA"/>
<path d="M240.709 210.567C241.709 206.377 242.659 202.177 243.439 197.937H220.919L226.059 210.567H240.709Z" fill="#F3BE22"/>
<path opacity="0.3" d="M240.709 210.567C241.709 206.377 242.659 202.177 243.439 197.937H220.919L226.059 210.567H240.709Z" fill="black"/>
<path d="M243.439 197.937H238.489L233.349 210.567H240.709C241.739 206.377 242.659 202.177 243.439 197.937Z" fill="#F3BE22"/>
<path opacity="0.2" d="M243.439 197.937H238.489L233.349 210.567H240.709C241.739 206.377 242.659 202.177 243.439 197.937Z" fill="#FAFAFA"/>
<path d="M99.1593 197.936H72.5693L77.7093 185.316H94.0193L99.1593 197.936Z" fill="#F3BE22"/>
<path opacity="0.2" d="M99.1593 197.936H72.5693L77.7093 185.316H94.0193L99.1593 197.936Z" fill="#FAFAFA"/>
<path d="M139.569 197.936H99.159L94.019 185.316H134.429L139.569 197.936Z" fill="#F3BE22"/>
<path opacity="0.3" d="M139.569 197.936H99.159L94.019 185.316H134.429L139.569 197.936Z" fill="black"/>
<path d="M133.099 197.936H106.499L111.639 185.316H127.949L133.099 197.936Z" fill="#F3BE22"/>
<path opacity="0.2" d="M133.099 197.936H106.499L111.639 185.316H127.949L133.099 197.936Z" fill="#FAFAFA"/>
<path d="M173.499 197.936H133.099L127.949 185.316H168.359L173.499 197.936Z" fill="#F3BE22"/>
<path opacity="0.3" d="M173.499 197.936H133.099L127.949 185.316H168.359L173.499 197.936Z" fill="black"/>
<path d="M167.029 197.936H140.439L145.579 185.316H161.889L167.029 197.936Z" fill="#F3BE22"/>
<path opacity="0.2" d="M167.029 197.936H140.439L145.579 185.316H161.889L167.029 197.936Z" fill="#FAFAFA"/>
<path d="M207.429 197.936H167.029L161.889 185.316H202.289L207.429 197.936Z" fill="#F3BE22"/>
<path opacity="0.3" d="M207.429 197.936H167.029L161.889 185.316H202.289L207.429 197.936Z" fill="black"/>
<path d="M200.959 197.936H174.369L179.509 185.316H195.819L200.959 197.936Z" fill="#F3BE22"/>
<path opacity="0.2" d="M200.959 197.936H174.369L179.509 185.316H195.819L200.959 197.936Z" fill="#FAFAFA"/>
<path d="M241.369 197.936H200.959L195.819 185.316H236.229L241.369 197.936Z" fill="#F3BE22"/>
<path opacity="0.3" d="M241.369 197.936H200.959L195.819 185.316H236.229L241.369 197.936Z" fill="black"/>
<path d="M234.899 197.936H208.299L213.439 185.316H229.759L234.899 197.936Z" fill="#F3BE22"/>
<path opacity="0.2" d="M234.899 197.936H208.299L213.439 185.316H229.759L234.899 197.936Z" fill="#FAFAFA"/>
<path d="M243.439 197.936C244.219 193.756 244.886 189.55 245.439 185.316H229.759L234.919 197.936H243.439Z" fill="#F3BE22"/>
<path opacity="0.3" d="M243.439 197.936C244.219 193.756 244.886 189.55 245.439 185.316H229.759L234.919 197.936H243.439Z" fill="black"/>
<path d="M244.329 192.796L242.239 197.936H243.439C243.759 196.23 244.056 194.516 244.329 192.796Z" fill="#F3BE22"/>
<path opacity="0.2" d="M244.329 192.796L242.239 197.936H243.439C243.759 196.23 244.056 194.516 244.329 192.796Z" fill="#FAFAFA"/>
<path d="M109.519 185.316H82.9292L88.0692 172.696H104.389L109.519 185.316Z" fill="#F3BE22"/>
<path opacity="0.2" d="M109.519 185.316H82.9292L88.0692 172.696H104.389L109.519 185.316Z" fill="#FAFAFA"/>
<path d="M149.929 185.316H109.519L104.389 172.696H144.789L149.929 185.316Z" fill="#F3BE22"/>
<path opacity="0.3" d="M149.929 185.316H109.519L104.389 172.696H144.789L149.929 185.316Z" fill="black"/>
<path d="M143.459 185.316H116.869L122.009 172.696H138.319L143.459 185.316Z" fill="#F3BE22"/>
<path opacity="0.2" d="M143.459 185.316H116.869L122.009 172.696H138.319L143.459 185.316Z" fill="#FAFAFA"/>
<path d="M183.859 185.316H143.459L138.319 172.696H178.729L183.859 185.316Z" fill="#F3BE22"/>
<path opacity="0.3" d="M183.859 185.316H143.459L138.319 172.696H178.729L183.859 185.316Z" fill="black"/>
<path d="M177.389 185.316H150.799L155.939 172.696H172.249L177.389 185.316Z" fill="#F3BE22"/>
<path opacity="0.2" d="M177.389 185.316H150.799L155.939 172.696H172.249L177.389 185.316Z" fill="#FAFAFA"/>
<path d="M217.799 185.316H177.389L172.249 172.696H212.659L217.799 185.316Z" fill="#F3BE22"/>
<path opacity="0.3" d="M217.799 185.316H177.389L172.249 172.696H212.659L217.799 185.316Z" fill="black"/>
<path d="M211.329 185.316H184.729L189.869 172.696H206.189L211.329 185.316Z" fill="#F3BE22"/>
<path opacity="0.2" d="M211.329 185.316H184.729L189.869 172.696H206.189L211.329 185.316Z" fill="#FAFAFA"/>
<path d="M245.399 185.316C245.919 181.123 246.302 176.916 246.549 172.696H206.189L211.329 185.316H245.399Z" fill="#F3BE22"/>
<path opacity="0.3" d="M245.399 185.316C245.919 181.123 246.302 176.916 246.549 172.696H206.189L211.329 185.316H245.399Z" fill="black"/>
<path d="M245.259 185.316H218.669L223.809 172.696H240.119L245.259 185.316Z" fill="#F3BE22"/>
<path opacity="0.2" d="M245.259 185.316H218.669L223.809 172.696H240.119L245.259 185.316Z" fill="#FAFAFA"/>
<path d="M245.399 185.316C245.919 181.123 246.302 176.916 246.549 172.696H240.119L245.259 185.316H245.399Z" fill="#F3BE22"/>
<path opacity="0.3" d="M245.399 185.316C245.919 181.123 246.302 176.916 246.549 172.696H240.119L245.259 185.316H245.399Z" fill="black"/>
<path d="M103.629 273.676H112.709L107.569 261.056H87.4292C93.1469 264.838 98.5631 269.058 103.629 273.676Z" fill="#F3BE22"/>
<path opacity="0.3" d="M103.629 273.676H112.709L107.569 261.056H87.4292C93.1469 264.838 98.5631 269.058 103.629 273.676Z" fill="black"/>
<path d="M103.629 273.676H106.239L101.099 261.056H87.4292C93.1469 264.838 98.5631 269.058 103.629 273.676Z" fill="#F3BE22"/>
<path opacity="0.2" d="M103.629 273.676H106.239L101.099 261.056H87.4292C93.1469 264.838 98.5631 269.058 103.629 273.676Z" fill="#FAFAFA"/>
<path d="M146.639 273.676H106.239L101.099 261.056H141.499L146.639 273.676Z" fill="#F3BE22"/>
<path opacity="0.3" d="M146.639 273.676H106.239L101.099 261.056H141.499L146.639 273.676Z" fill="black"/>
<path d="M140.169 273.676H113.579L118.719 261.056H135.029L140.169 273.676Z" fill="#F3BE22"/>
<path opacity="0.2" d="M140.169 273.676H113.579L118.719 261.056H135.029L140.169 273.676Z" fill="#FAFAFA"/>
<path d="M180.569 273.676H140.169L135.029 261.056H175.429L180.569 273.676Z" fill="#F3BE22"/>
<path opacity="0.3" d="M180.569 273.676H140.169L135.029 261.056H175.429L180.569 273.676Z" fill="black"/>
<path d="M174.099 273.676H147.509L152.649 261.056H168.959L174.099 273.676Z" fill="#F3BE22"/>
<path opacity="0.2" d="M174.099 273.676H147.509L152.649 261.056H168.959L174.099 273.676Z" fill="#FAFAFA"/>
<path d="M214.289 273.136L209.369 261.056H168.919L174.059 273.676H213.689C213.919 273.506 214.099 273.316 214.289 273.136Z" fill="#F3BE22"/>
<path opacity="0.3" d="M214.289 273.136L209.369 261.056H168.919L174.059 273.676H213.689C213.919 273.506 214.099 273.316 214.289 273.136Z" fill="black"/>
<path d="M208.039 273.676H181.439L186.579 261.056H202.899L208.039 273.676Z" fill="#F3BE22"/>
<path opacity="0.2" d="M208.039 273.676H181.439L186.579 261.056H202.899L208.039 273.676Z" fill="#FAFAFA"/>
<path d="M213.729 273.676C217.452 270.006 220.538 265.741 222.859 261.056H202.919L208.059 273.676H213.729Z" fill="#F3BE22"/>
<path opacity="0.3" d="M213.729 273.676C217.452 270.006 220.538 265.741 222.859 261.056H202.919L208.059 273.676H213.729Z" fill="black"/>
<path d="M222.859 261.056H220.519L216.639 270.576C219.047 267.635 221.132 264.443 222.859 261.056Z" fill="#F3BE22"/>
<path opacity="0.2" d="M222.859 261.056H220.519L216.639 270.576C219.047 267.635 221.132 264.443 222.859 261.056Z" fill="#FAFAFA"/>
<path d="M72.2389 249.847C77.0489 253.917 82.2389 257.467 87.4289 261.057H89.1389L83.9989 248.437H70.6089C71.1489 248.907 71.6889 249.387 72.2389 249.847Z" fill="#F3BE22"/>
<path opacity="0.3" d="M72.2389 249.847C77.0489 253.917 82.2389 257.467 87.4289 261.057H89.1389L83.9989 248.437H70.6089C71.1489 248.907 71.6889 249.387 72.2389 249.847Z" fill="black"/>
<path d="M72.2389 249.846C74.9789 252.166 77.8489 254.316 80.7689 256.396L77.5289 248.396H70.6089C71.1489 248.906 71.6889 249.386 72.2389 249.846Z" fill="#F3BE22"/>
<path opacity="0.2" d="M72.2389 249.846C74.9789 252.166 77.8489 254.316 80.7689 256.396L77.5289 248.396H70.6089C71.1489 248.906 71.6889 249.386 72.2389 249.846Z" fill="#FAFAFA"/>
<path d="M87.429 261.057H123.069L117.919 248.437H77.519L80.759 256.437C82.969 257.977 85.209 259.507 87.429 261.057Z" fill="#F3BE22"/>
<path opacity="0.3" d="M87.429 261.057H123.069L117.919 248.437H77.519L80.759 256.437C82.969 257.977 85.209 259.507 87.429 261.057Z" fill="black"/>
<path d="M116.599 261.057H90.0093L95.1493 248.437H111.459L116.599 261.057Z" fill="#F3BE22"/>
<path opacity="0.2" d="M116.599 261.057H90.0093L95.1493 248.437H111.459L116.599 261.057Z" fill="#FAFAFA"/>
<path d="M157.009 261.057H116.599L111.459 248.437H151.869L157.009 261.057Z" fill="#F3BE22"/>
<path opacity="0.3" d="M157.009 261.057H116.599L111.459 248.437H151.869L157.009 261.057Z" fill="black"/>
<path d="M150.529 261.057H123.939L129.079 248.437H145.389L150.529 261.057Z" fill="#F3BE22"/>
<path opacity="0.2" d="M150.529 261.057H123.939L129.079 248.437H145.389L150.529 261.057Z" fill="#FAFAFA"/>
<path d="M190.939 261.057H150.529L145.389 248.437H185.799L190.939 261.057Z" fill="#F3BE22"/>
<path opacity="0.3" d="M190.939 261.057H150.529L145.389 248.437H185.799L190.939 261.057Z" fill="black"/>
<path d="M184.469 261.057H157.879L163.019 248.437H179.329L184.469 261.057Z" fill="#F3BE22"/>
<path opacity="0.2" d="M184.469 261.057H157.879L163.019 248.437H179.329L184.469 261.057Z" fill="#FAFAFA"/>
<path d="M223.969 258.857L219.729 248.437H179.329L184.469 261.057H222.859C223.249 260.327 223.609 259.597 223.969 258.857Z" fill="#F3BE22"/>
<path opacity="0.3" d="M223.969 258.857L219.729 248.437H179.329L184.469 261.057H222.859C223.249 260.327 223.609 259.597 223.969 258.857Z" fill="black"/>
<path d="M218.399 261.057H191.809L196.949 248.437H213.259L218.399 261.057Z" fill="#F3BE22"/>
<path opacity="0.2" d="M218.399 261.057H191.809L196.949 248.437H213.259L218.399 261.057Z" fill="#FAFAFA"/>
<path d="M222.859 261.057C224.951 256.965 226.795 252.75 228.379 248.437H213.259L218.399 261.057H222.859Z" fill="#F3BE22"/>
<path opacity="0.3" d="M222.859 261.057C224.951 256.965 226.795 252.75 228.379 248.437H213.259L218.399 261.057H222.859Z" fill="black"/>
<path d="M70.6093 248.436H98.0193L92.9193 235.806H58.4893C62.1778 240.34 66.2313 244.564 70.6093 248.436Z" fill="#F3BE22"/>
<path opacity="0.3" d="M70.6093 248.436H98.0193L92.9193 235.806H58.4893C62.1778 240.34 66.2313 244.564 70.6093 248.436Z" fill="black"/>
<path d="M70.6093 248.436H91.5493L86.4093 235.806H70.0993L66.5093 244.616C67.8359 245.929 69.2026 247.203 70.6093 248.436Z" fill="#F3BE22"/>
<path opacity="0.2" d="M70.6093 248.436H91.5493L86.4093 235.806H70.0993L66.5093 244.616C67.8359 245.929 69.2026 247.203 70.6093 248.436Z" fill="#FAFAFA"/>
<path d="M131.959 248.436H91.5492L86.4092 235.806H126.819L131.959 248.436Z" fill="#F3BE22"/>
<path opacity="0.3" d="M131.959 248.436H91.5492L86.4092 235.806H126.819L131.959 248.436Z" fill="black"/>
<path d="M125.479 248.436H98.8892L104.029 235.806H120.349L125.479 248.436Z" fill="#F3BE22"/>
<path opacity="0.2" d="M125.479 248.436H98.8892L104.029 235.806H120.349L125.479 248.436Z" fill="#FAFAFA"/>
<path d="M165.889 248.436H125.479L120.349 235.806H160.749L165.889 248.436Z" fill="#F3BE22"/>
<path opacity="0.3" d="M165.889 248.436H125.479L120.349 235.806H160.749L165.889 248.436Z" fill="black"/>
<path d="M159.419 248.436H132.829L137.969 235.806H154.279L159.419 248.436Z" fill="#F3BE22"/>
<path opacity="0.2" d="M159.419 248.436H132.829L137.969 235.806H154.279L159.419 248.436Z" fill="#FAFAFA"/>
<path d="M199.819 248.436H159.419L154.279 235.806H194.679L199.819 248.436Z" fill="#F3BE22"/>
<path opacity="0.3" d="M199.819 248.436H159.419L154.279 235.806H194.679L199.819 248.436Z" fill="black"/>
<path d="M193.349 248.436H166.759L171.899 235.806H188.209L193.349 248.436Z" fill="#F3BE22"/>
<path opacity="0.2" d="M193.349 248.436H166.759L171.899 235.806H188.209L193.349 248.436Z" fill="#FAFAFA"/>
<path d="M230.919 241.446L228.629 235.806H188.209L193.349 248.436H228.349C229.279 246.056 230.109 243.706 230.919 241.446Z" fill="#F3BE22"/>
<path opacity="0.3" d="M230.919 241.446L228.629 235.806H188.209L193.349 248.436H228.349C229.279 246.056 230.109 243.706 230.919 241.446Z" fill="black"/>
<path d="M227.289 248.436H200.689L205.829 235.806H222.149L227.289 248.436Z" fill="#F3BE22"/>
<path opacity="0.2" d="M227.289 248.436H200.689L205.829 235.806H222.149L227.289 248.436Z" fill="#FAFAFA"/>
<path d="M228.379 248.436C230.029 244.066 231.469 239.796 232.869 236.016C232.888 235.945 232.911 235.875 232.939 235.806H222.149L227.289 248.436H228.379Z" fill="#F3BE22"/>
<path opacity="0.3" d="M228.379 248.436C230.029 244.066 231.469 239.796 232.869 236.016C232.888 235.945 232.911 235.875 232.939 235.806H222.149L227.289 248.436H228.379Z" fill="black"/>
<path d="M58.4891 235.807H67.9791L62.8391 223.187H49.5791C52.253 227.595 55.2302 231.811 58.4891 235.807Z" fill="#F3BE22"/>
<path opacity="0.2" d="M58.4891 235.807H67.9791L62.8391 223.187H49.5791C52.253 227.595 55.2302 231.811 58.4891 235.807Z" fill="#FAFAFA"/>
<path d="M108.389 235.807H67.9789L62.8389 223.187H103.249L108.389 235.807Z" fill="#F3BE22"/>
<path opacity="0.3" d="M108.389 235.807H67.9789L62.8389 223.187H103.249L108.389 235.807Z" fill="black"/>
<path d="M101.919 235.807H75.3193L80.4593 223.187H96.7793L101.919 235.807Z" fill="#F3BE22"/>
<path opacity="0.2" d="M101.919 235.807H75.3193L80.4593 223.187H96.7793L101.919 235.807Z" fill="#FAFAFA"/>
<path d="M142.319 235.807H101.919L96.7793 223.187H137.179L142.319 235.807Z" fill="#F3BE22"/>
<path opacity="0.3" d="M142.319 235.807H101.919L96.7793 223.187H137.179L142.319 235.807Z" fill="black"/>
<path d="M135.849 235.807H109.259L114.399 223.187H130.709L135.849 235.807Z" fill="#F3BE22"/>
<path opacity="0.2" d="M135.849 235.807H109.259L114.399 223.187H130.709L135.849 235.807Z" fill="#FAFAFA"/>
<path d="M176.249 235.807H135.849L130.709 223.187H171.109L176.249 235.807Z" fill="#F3BE22"/>
<path opacity="0.3" d="M176.249 235.807H135.849L130.709 223.187H171.109L176.249 235.807Z" fill="black"/>
<path d="M169.779 235.807H143.189L148.329 223.187H164.639L169.779 235.807Z" fill="#F3BE22"/>
<path opacity="0.2" d="M169.779 235.807H143.189L148.329 223.187H164.639L169.779 235.807Z" fill="#FAFAFA"/>
<path d="M210.189 235.807H169.779L164.639 223.187H205.049L210.189 235.807Z" fill="#F3BE22"/>
<path opacity="0.3" d="M210.189 235.807H169.779L164.639 223.187H205.049L210.189 235.807Z" fill="black"/>
<path d="M203.719 235.807H177.119L182.259 223.187H198.579L203.719 235.807Z" fill="#F3BE22"/>
<path opacity="0.2" d="M203.719 235.807H177.119L182.259 223.187H198.579L203.719 235.807Z" fill="#FAFAFA"/>
<path d="M232.919 235.807C234.459 231.633 235.882 227.427 237.189 223.187H198.579L203.719 235.807H232.919Z" fill="#F3BE22"/>
<path opacity="0.3" d="M232.919 235.807C234.459 231.633 235.882 227.427 237.189 223.187H198.579L203.719 235.807H232.919Z" fill="black"/>
<path d="M235.119 229.607L232.509 223.187H216.199L211.059 235.807H232.919C233.699 233.757 234.419 231.687 235.119 229.607Z" fill="#F3BE22"/>
<path opacity="0.2" d="M235.119 229.607L232.509 223.187H216.199L211.059 235.807H232.919C233.699 233.757 234.419 231.687 235.119 229.607Z" fill="#FAFAFA"/>
<path d="M237.209 223.187H232.509L235.119 229.607C235.853 227.48 236.549 225.34 237.209 223.187Z" fill="#F3BE22"/>
<path opacity="0.3" d="M237.209 223.187H232.509L235.119 229.607C235.853 227.48 236.549 225.34 237.209 223.187Z" fill="black"/>
</g>
<path d="M160.099 21.916C132.78 21.916 106.074 30.0172 83.3584 45.1951C60.643 60.373 42.9385 81.946 32.4838 107.186C22.0291 132.426 19.2937 160.199 24.6234 186.994C29.9532 213.788 43.1088 238.401 62.4266 257.719C81.7445 277.036 106.357 290.192 133.151 295.522C159.946 300.852 187.719 298.116 212.959 287.661C238.199 277.207 259.772 259.502 274.95 236.787C290.128 214.072 298.229 187.366 298.229 160.046C298.229 123.412 283.676 88.2778 257.772 62.3734C231.868 36.469 196.734 21.916 160.099 21.916ZM159.919 273.026C137.553 273.024 115.689 266.39 97.0926 253.962C78.4964 241.534 64.0029 223.871 55.4449 203.207C46.8869 182.542 44.6488 159.804 49.0135 137.867C53.3782 115.93 64.1498 95.7807 79.9661 79.9658C95.7824 64.1509 115.933 53.3811 137.87 49.0183C159.807 44.6555 182.545 46.8956 203.209 55.4554C223.873 64.0152 241.535 78.5103 253.961 97.1076C266.387 115.705 273.019 137.569 273.019 159.936C273.019 174.788 270.094 189.495 264.41 203.216C258.726 216.937 250.395 229.405 239.892 239.906C229.39 250.408 216.922 258.738 203.2 264.42C189.478 270.103 174.771 273.027 159.919 273.026Z" fill="#F3BE22"/>
<path opacity="0.4" d="M160.099 291.066C232.339 291.066 291.099 232.286 291.099 160.066C291.099 87.8464 232.319 29.0664 160.099 29.0664C87.8791 29.0664 29.0991 87.8364 29.0991 160.066C29.0991 232.296 87.8491 291.066 160.099 291.066ZM160.099 30.0664C194.563 30.1114 227.603 43.8222 251.973 68.1922C276.343 92.5622 290.054 125.602 290.099 160.066C290.099 231.756 231.769 290.066 160.099 290.066C88.4291 290.066 30.0991 231.736 30.0991 160.066C30.0991 88.3964 88.3991 30.0264 160.099 30.0264V30.0664Z" fill="#FAFAFA"/>
<path d="M125.099 69.5064C130.759 70.8464 136.559 72.1864 142.289 73.4064C148.019 74.6264 153.779 75.7364 159.419 76.4964L161.509 76.7364L162.019 76.7864H161.939C161.939 76.7864 161.989 76.7864 162.099 76.7864C163 76.5568 163.856 76.1746 164.629 75.6564C166.874 74.1812 168.982 72.5078 170.929 70.6564C175.089 66.8064 179.149 62.4464 183.059 58.1064L187.629 61.2764C184.635 66.7036 181.136 71.8363 177.179 76.6064C175.088 79.169 172.724 81.4961 170.129 83.5464C168.513 84.8443 166.673 85.8341 164.699 86.4664C164.047 86.6644 163.377 86.7984 162.699 86.8664C162.299 86.8919 161.898 86.8919 161.499 86.8664H160.889L158.509 86.7464C152.355 86.2905 146.232 85.4859 140.169 84.3364C134.169 83.2364 128.289 81.9364 122.339 80.3364L125.099 69.5064Z" fill="#CE7A63"/>
<path d="M116.519 79.6668C120.519 85.4468 144.519 87.6668 144.519 87.6668L145.989 72.2868C139.878 70.146 133.59 68.5465 127.199 67.5068C110.249 65.0868 112.159 73.3268 116.519 79.6668Z" fill="#F3BE22"/>
<path opacity="0.2" d="M116.519 79.6668C120.519 85.4468 144.519 87.6668 144.519 87.6668L145.989 72.2868C139.878 70.146 133.59 68.5465 127.199 67.5068C110.249 65.0868 112.159 73.3268 116.519 79.6668Z" fill="white"/>
<path d="M182.119 60.0263L184.029 52.9463L190.619 55.7763C190.619 55.7763 187.839 63.4063 185.329 63.0263L182.119 60.0263Z" fill="#CE7A63"/>
<path d="M189.469 48.5666L194.919 48.2266L190.619 55.7766L184.029 52.9466L189.469 48.5666Z" fill="#CE7A63"/>
<path d="M132.639 69.2167C132.639 69.2167 142.159 91.6067 135.299 133.297H95.6389C95.1589 127.207 97.9489 97.5167 91.0889 68.8367C95.4506 67.9874 99.8634 67.4262 104.299 67.1567C109.914 66.8364 115.543 66.8364 121.159 67.1567C125.032 67.55 128.87 68.2387 132.639 69.2167Z" fill="#F3BE22"/>
<path opacity="0.2" d="M132.639 69.2167C132.639 69.2167 142.159 91.6067 135.299 133.297H95.6389C95.1589 127.207 97.9489 97.5167 91.0889 68.8367C95.4506 67.9874 99.8634 67.4262 104.299 67.1567C109.914 66.8364 115.543 66.8364 121.159 67.1567C125.032 67.55 128.87 68.2387 132.639 69.2167Z" fill="white"/>
<path opacity="0.3" d="M92.3291 74.5767C94.1843 84.3911 95.2809 94.3338 95.6091 104.317C97.062 98.4678 98.0451 92.5122 98.5491 86.5067C98.9691 79.8567 96.3891 75.6467 92.3291 74.5767Z" fill="black"/>
<path d="M120.809 100.976C117.289 97.1063 111.239 89.3963 109.359 82.4663L118.799 77.4663L127.589 81.9663C127.499 87.8563 124.359 95.8363 122.109 100.696C121.819 101.286 121.219 101.436 120.809 100.976Z" fill="#FAFAFA"/>
<path d="M105.319 48.1768C106.569 53.6068 107.969 63.5368 104.319 67.1768C104.319 67.1768 105.909 71.6668 115.989 71.6668C127.069 71.6668 121.179 67.1768 121.179 67.1768C115.079 65.7368 115.079 61.2468 115.989 57.0368L105.319 48.1768Z" fill="#CE7A63"/>
<path opacity="0.2" d="M109.659 51.7866L115.969 57.0066C115.742 57.9925 115.601 58.9963 115.549 60.0066C113.229 59.6766 109.969 57.1366 109.639 54.7166C109.462 53.7473 109.469 52.7534 109.659 51.7866Z" fill="black"/>
<path d="M121.619 45.0766C123.259 43.6766 123.999 35.3066 120.769 31.2966C117.539 27.2866 114.769 37.0066 114.769 37.0066C114.769 37.0066 116.249 49.6766 121.619 45.0766Z" fill="#263238"/>
<path d="M102.919 42.5064C105.179 49.5064 106.139 53.7364 110.699 56.6064C112.17 57.5518 113.871 58.0771 115.619 58.1253C117.367 58.1735 119.095 57.7429 120.616 56.88C122.137 56.017 123.393 54.7547 124.248 53.2294C125.104 51.7042 125.526 49.9741 125.469 48.2264C125.379 41.4964 121.699 31.1364 113.949 29.8464C112.279 29.5216 110.553 29.6417 108.945 30.1945C107.336 30.7474 105.901 31.7135 104.783 32.996C103.666 34.2786 102.906 35.8324 102.578 37.5016C102.251 39.1709 102.368 40.8968 102.919 42.5064Z" fill="#CE7A63"/>
<path d="M121.799 28.0465C122.032 27.6212 122.146 27.1411 122.129 26.6565C122.124 26.0739 121.935 25.5077 121.588 25.0397C121.241 24.5716 120.754 24.2259 120.198 24.0524C119.642 23.8788 119.045 23.8864 118.493 24.0741C117.941 24.2618 117.464 24.6198 117.129 25.0965C116.562 24.4469 115.858 23.9308 115.068 23.585C114.278 23.2392 113.421 23.0724 112.559 23.0965C111.652 23.1269 110.764 23.3701 109.969 23.8065C109.454 23.3684 108.794 23.1399 108.119 23.1665C107.463 23.1901 106.837 23.4467 106.353 23.8902C105.869 24.3337 105.559 24.9351 105.479 25.5865C105.198 25.5413 104.913 25.5212 104.629 25.5265C103.452 25.5683 102.339 26.0748 101.535 26.9351C100.731 27.7955 100.301 28.9395 100.339 30.1165C100.339 30.1165 100.339 30.1165 100.339 30.1765C100.169 30.1662 99.9986 30.1662 99.8287 30.1765C99.3546 30.1933 98.8884 30.3034 98.4568 30.5005C98.0252 30.6975 97.6367 30.9778 97.3134 31.3251C96.9902 31.6725 96.7387 32.0801 96.5731 32.5248C96.4076 32.9695 96.3313 33.4424 96.3487 33.9165V33.9765C95.8971 34.2217 95.5235 34.5889 95.2707 35.0363C95.0178 35.4837 94.8959 35.9932 94.9187 36.5065C94.9394 37.0528 95.12 37.5809 95.4383 38.0254C95.7565 38.4698 96.1983 38.811 96.7087 39.0065C96.7772 39.8536 97.1447 40.6487 97.7457 41.2496C98.3466 41.8505 99.1417 42.2181 99.9887 42.2865C100.379 45.7865 101.639 51.2065 105.729 48.4065C107.289 47.3365 108.729 40.8465 107.179 36.3465C107.299 36.3465 107.429 36.3465 107.559 36.3465C108.234 36.3215 108.894 36.1417 109.489 35.821C110.084 35.5002 110.597 35.0471 110.989 34.4965C111.844 34.7779 112.753 34.8584 113.644 34.7318C114.535 34.6052 115.386 34.2749 116.129 33.7665C116.45 33.8787 116.789 33.9329 117.129 33.9265C117.595 33.9053 118.049 33.7678 118.449 33.5265C119.017 33.9128 119.692 34.1121 120.379 34.0965C121.093 34.0746 121.78 33.8171 122.333 33.3643C122.885 32.9114 123.273 32.2886 123.435 31.5926C123.597 30.8967 123.524 30.1668 123.228 29.5164C122.932 28.866 122.43 28.3317 121.799 27.9965V28.0465Z" fill="#263238"/>
<path d="M101.709 51.0467C103.05 52.3501 104.839 53.0907 106.709 53.1167C109.179 53.1167 109.709 50.7767 108.379 48.8167C107.199 47.0667 104.499 44.9467 102.319 45.8867C100.139 46.8267 100.069 49.4367 101.709 51.0467Z" fill="#CE7A63"/>
<path d="M114.339 42.1067C114.479 42.6867 114.909 43.1067 115.339 43.0067C115.769 42.9067 115.909 42.3767 115.759 41.7967C115.609 41.2167 115.179 40.7967 114.759 40.9067C114.339 41.0167 114.189 41.5067 114.339 42.1067Z" fill="#263238"/>
<path d="M120.919 40.6567C121.069 41.2367 121.499 41.6567 121.919 41.5567C122.339 41.4567 122.489 40.9367 122.339 40.3567C122.189 39.7767 121.759 39.3567 121.339 39.4567C120.919 39.5567 120.789 40.0767 120.919 40.6567Z" fill="#263238"/>
<path d="M118.919 41.4067C120.076 43.0282 121.441 44.4907 122.979 45.7567C122.645 46.1278 122.234 46.4213 121.774 46.6165C121.315 46.8117 120.818 46.904 120.319 46.8867L118.919 41.4067Z" fill="#BA4D3C"/>
<path d="M117.789 48.9967C116.571 49.0089 115.389 48.583 114.459 47.7967C114.427 47.7649 114.409 47.7217 114.409 47.6767C114.409 47.6317 114.427 47.5886 114.459 47.5567C114.475 47.5395 114.494 47.5257 114.516 47.5163C114.537 47.5068 114.56 47.502 114.584 47.502C114.607 47.502 114.63 47.5068 114.652 47.5163C114.674 47.5257 114.693 47.5395 114.709 47.5567C115.294 48.0325 115.98 48.3696 116.714 48.5428C117.448 48.716 118.212 48.7207 118.949 48.5567C118.994 48.5475 119.041 48.5559 119.08 48.58C119.119 48.6042 119.147 48.6424 119.159 48.6867C119.165 48.7098 119.166 48.7338 119.162 48.7573C119.158 48.7807 119.149 48.8031 119.135 48.8228C119.122 48.8426 119.105 48.8594 119.085 48.8722C119.065 48.8849 119.042 48.8933 119.019 48.8967C118.614 48.9771 118.201 49.0107 117.789 48.9967Z" fill="#263238"/>
<path d="M111.719 40.4364C111.673 40.4458 111.625 40.4458 111.579 40.4364C111.536 40.419 111.497 40.3931 111.465 40.3602C111.432 40.3274 111.407 40.2882 111.39 40.2452C111.373 40.2021 111.365 40.156 111.367 40.1098C111.368 40.0636 111.379 40.0182 111.399 39.9764C111.612 39.4697 111.946 39.0228 112.371 38.6742C112.797 38.3257 113.3 38.0862 113.839 37.9764C113.931 37.9673 114.023 37.9931 114.097 38.0486C114.172 38.1041 114.222 38.1854 114.239 38.2764C114.251 38.369 114.226 38.4624 114.17 38.537C114.114 38.6116 114.031 38.6616 113.939 38.6764C113.516 38.7717 113.122 38.9679 112.792 39.2483C112.461 39.5286 112.203 39.8848 112.039 40.2864C112.004 40.3375 111.956 40.3784 111.899 40.4048C111.843 40.4311 111.781 40.442 111.719 40.4364Z" fill="#263238"/>
<path d="M123.169 37.7867C123.117 37.7871 123.066 37.7756 123.019 37.753C122.972 37.7305 122.931 37.6975 122.899 37.6567C122.618 37.3068 122.261 37.0245 121.856 36.8307C121.451 36.6368 121.008 36.5364 120.559 36.5367C120.466 36.5446 120.374 36.5154 120.303 36.4554C120.231 36.3954 120.187 36.3095 120.179 36.2167C120.171 36.1239 120.2 36.0317 120.26 35.9604C120.32 35.8892 120.406 35.8447 120.499 35.8367C121.061 35.8253 121.618 35.9428 122.128 36.1803C122.638 36.4178 123.086 36.7689 123.439 37.2067C123.498 37.2801 123.525 37.3735 123.516 37.4669C123.506 37.5603 123.461 37.6463 123.389 37.7067C123.327 37.7578 123.249 37.7861 123.169 37.7867Z" fill="#263238"/>
<path d="M98.919 79.5067L97.479 82.6167C96.999 83.6867 96.529 84.7667 96.069 85.8467C95.149 88.0067 94.279 90.1967 93.439 92.3767C92.599 94.5567 91.859 96.7567 91.149 98.9567C90.439 101.157 89.889 103.347 89.429 105.527V105.717V105.657C89.4333 105.603 89.4333 105.55 89.429 105.497C89.4157 105.386 89.3854 105.278 89.339 105.177C89.259 104.987 89.169 104.947 89.209 105.057C89.5732 105.568 90.044 105.995 90.589 106.307C92.3835 107.401 94.2956 108.29 96.289 108.957C100.752 110.49 105.3 111.765 109.909 112.777L109.449 118.327C104.291 118.493 99.1295 118.09 94.059 117.127C91.2743 116.623 88.5679 115.755 86.009 114.547C84.3474 113.756 82.8536 112.652 81.609 111.297C80.7594 110.328 80.1193 109.195 79.729 107.967C79.5169 107.271 79.3893 106.553 79.349 105.827C79.329 105.467 79.329 105.106 79.349 104.747L79.399 104.227V103.957C80.0645 98.7503 81.2539 93.6243 82.949 88.6567C83.7624 86.2167 84.659 83.8134 85.639 81.4467C86.139 80.2667 86.639 79.0967 87.189 77.9267C87.739 76.7567 88.269 75.6367 88.919 74.3867L98.919 79.5067Z" fill="#CE7A63"/>
<path d="M91.0889 68.8364C84.0889 69.8364 76.9189 95.5463 76.9189 95.5463L93.7889 101.966C93.7889 101.966 98.0289 90.9164 100.929 82.3364C103.969 73.3464 98.5689 67.7364 91.0889 68.8364Z" fill="#F3BE22"/>
<path opacity="0.2" d="M91.0889 68.8364C84.0889 69.8364 76.9189 95.5463 76.9189 95.5463L93.7889 101.966C93.7889 101.966 98.0289 90.9164 100.929 82.3364C103.969 73.3464 98.5689 67.7364 91.0889 68.8364Z" fill="white"/>
<path d="M101.729 321.877H109.149L110.109 304.707H102.699L101.729 321.877Z" fill="#CE7A63"/>
<path opacity="0.2" d="M102.689 304.707H110.109L109.609 313.557H102.189L102.689 304.707Z" fill="black"/>
<path d="M109.539 321.017H101.209C101.14 321.012 101.071 321.022 101.005 321.045C100.94 321.068 100.88 321.104 100.829 321.151C100.778 321.197 100.736 321.254 100.707 321.317C100.678 321.379 100.662 321.447 100.659 321.517L100.249 328.107C100.248 328.279 100.28 328.449 100.345 328.609C100.41 328.768 100.505 328.913 100.626 329.036C100.746 329.158 100.89 329.256 101.049 329.323C101.207 329.39 101.377 329.425 101.549 329.427C104.449 329.377 105.839 329.207 109.549 329.207C111.799 329.207 121.379 329.447 124.489 329.447C127.599 329.447 127.489 326.366 126.199 326.086C120.279 324.836 112.959 323.086 110.859 321.466C110.482 321.172 110.017 321.013 109.539 321.017Z" fill="#263238"/>
<path d="M112.159 322.296C112.655 322.344 113.15 322.205 113.549 321.906C113.665 321.785 113.745 321.634 113.782 321.47C113.819 321.307 113.811 321.136 113.759 320.976C113.741 320.87 113.695 320.769 113.627 320.685C113.559 320.601 113.47 320.536 113.369 320.496C112.459 320.136 110.369 321.566 110.129 321.736C110.103 321.756 110.083 321.782 110.071 321.812C110.058 321.842 110.054 321.874 110.059 321.906C110.068 321.937 110.085 321.965 110.107 321.988C110.13 322.011 110.158 322.027 110.189 322.036C110.835 322.192 111.495 322.279 112.159 322.296ZM113.019 320.766C113.095 320.751 113.173 320.751 113.249 320.766C113.298 320.787 113.341 320.82 113.375 320.862C113.408 320.904 113.43 320.954 113.439 321.006C113.474 321.113 113.482 321.227 113.461 321.337C113.44 321.447 113.391 321.55 113.319 321.636C112.969 321.976 111.979 322.016 110.649 321.756C111.358 321.259 112.167 320.921 113.019 320.766Z" fill="#F3BE22"/>
<path d="M110.229 322.037H110.309C111.049 321.597 112.149 320.037 111.979 319.247C111.948 319.103 111.87 318.975 111.758 318.88C111.646 318.786 111.505 318.732 111.359 318.727C111.227 318.71 111.093 318.722 110.967 318.764C110.84 318.805 110.725 318.875 110.629 318.967C109.889 319.687 110.049 321.817 110.059 321.907C110.061 321.934 110.071 321.961 110.087 321.984C110.102 322.006 110.124 322.025 110.149 322.037C110.175 322.047 110.203 322.047 110.229 322.037ZM111.229 319.037H111.309C111.569 319.037 111.619 319.197 111.649 319.297C111.769 319.857 110.979 321.037 110.369 321.557C110.267 320.735 110.436 319.904 110.849 319.187C110.901 319.137 110.962 319.098 111.029 319.072C111.096 319.047 111.167 319.034 111.239 319.037H111.229Z" fill="#F3BE22"/>
<path d="M167.609 303.557L174.909 302.287L172.919 285.207L165.619 286.477L167.609 303.557Z" fill="#CE7A63"/>
<path opacity="0.2" d="M165.619 286.486L172.929 285.216L173.949 294.016L166.639 295.286L165.619 286.486Z" fill="black"/>
<path d="M174.919 301.396L166.689 300.136C166.551 300.11 166.409 300.139 166.292 300.218C166.176 300.297 166.096 300.419 166.069 300.556L164.669 307.006C164.617 307.35 164.702 307.699 164.906 307.98C165.11 308.261 165.417 308.45 165.759 308.506C168.629 308.896 170.029 308.936 173.649 309.506C175.879 309.846 185.309 311.506 188.389 311.986C191.469 312.466 191.839 309.406 190.579 308.926C184.919 306.806 177.939 303.996 176.109 302.056C175.802 301.704 175.381 301.471 174.919 301.396Z" fill="#263238"/>
<path d="M135.299 133.296C135.299 133.296 158.299 187.066 162.949 207.806C168.059 230.516 176.719 291.366 176.719 291.366L163.339 293.696C163.339 293.696 151.019 236.856 143.919 214.946C136.209 191.176 105.419 133.296 105.419 133.296H135.299Z" fill="#263238"/>
<path opacity="0.3" d="M116.339 145.177L115.799 153.307C119.269 160.147 123.269 168.127 127.179 176.227C128.919 168.207 124.479 148.937 116.339 145.177Z" fill="black"/>
<path d="M122.029 133.297C122.029 133.297 121.899 189.947 120.699 211.177C119.379 234.417 112.789 311.427 112.789 311.427H99.2089C99.2089 311.427 99.6189 236.297 98.7989 213.287C97.9089 188.287 95.6089 133.287 95.6089 133.287L122.029 133.297Z" fill="#263238"/>
<path d="M98.669 311.546H113.339L114.149 306.396L97.959 307.196L98.669 311.546Z" fill="#F3BE22"/>
<path opacity="0.3" d="M98.669 311.546H113.339L114.149 306.396L97.959 307.196L98.669 311.546Z" fill="black"/>
<path d="M162.799 293.787L177.249 291.277L177.169 286.057L161.359 289.627L162.799 293.787Z" fill="#F3BE22"/>
<path opacity="0.3" d="M162.799 293.787L177.249 291.277L177.169 286.057L161.359 289.627L162.799 293.787Z" fill="black"/>
<path d="M177.359 303.057C177.84 303.179 178.35 303.119 178.789 302.887C178.919 302.78 179.02 302.643 179.083 302.488C179.146 302.332 179.168 302.163 179.149 301.997C179.145 301.887 179.113 301.78 179.057 301.686C179.001 301.592 178.923 301.513 178.829 301.457C177.989 300.967 175.699 302.067 175.439 302.197C175.411 302.21 175.388 302.231 175.372 302.258C175.356 302.285 175.348 302.315 175.349 302.347C175.347 302.379 175.356 302.411 175.374 302.438C175.392 302.465 175.418 302.486 175.449 302.497C176.062 302.755 176.703 302.943 177.359 303.057ZM178.439 301.677C178.517 301.682 178.592 301.706 178.659 301.747C178.708 301.771 178.749 301.81 178.776 301.858C178.803 301.906 178.815 301.962 178.809 302.017C178.829 302.126 178.82 302.239 178.784 302.344C178.747 302.45 178.683 302.543 178.599 302.616C178.199 302.906 177.219 302.797 175.939 302.327C176.715 301.931 177.568 301.709 178.439 301.677Z" fill="#F3BE22"/>
<path d="M175.489 302.506C175.518 302.516 175.55 302.516 175.579 302.506C176.369 302.186 177.699 300.826 177.649 300.006C177.64 299.859 177.582 299.719 177.484 299.608C177.387 299.498 177.254 299.423 177.109 299.396C176.982 299.36 176.849 299.353 176.719 299.375C176.589 299.398 176.466 299.449 176.359 299.526C175.509 300.126 175.359 302.256 175.359 302.346C175.355 302.374 175.36 302.402 175.373 302.427C175.385 302.452 175.405 302.473 175.429 302.486C175.446 302.5 175.467 302.507 175.489 302.506ZM176.939 299.686H177.019C177.269 299.756 177.309 299.886 177.319 299.996C177.319 300.566 176.399 301.606 175.709 301.996C175.736 301.169 176.031 300.372 176.549 299.726C176.663 299.667 176.795 299.653 176.919 299.686H176.939Z" fill="#F3BE22"/>
<path d="M108.799 112.716L114.879 111.046L115.719 118.736C115.719 118.736 109.719 120.536 108.229 117.386L108.799 112.716Z" fill="#CE7A63"/>
<path d="M120.399 112.106L120.029 119.036L115.719 118.736L114.879 111.046L120.399 112.106Z" fill="#CE7A63"/>
<path d="M221.799 293.697C189.859 288.887 165.599 229.186 165.599 160.046C165.599 90.9065 189.859 31.2065 221.799 26.3965L251.569 21.9165V298.177L221.799 293.697Z" fill="#F3BE22"/>
<path opacity="0.3" d="M221.799 293.697C189.859 288.887 165.599 229.186 165.599 160.046C165.599 90.9065 189.859 31.2065 221.799 26.3965L251.569 21.9165V298.177L221.799 293.697Z" fill="black"/>
<path d="M251.569 298.177C280.382 298.177 303.739 236.334 303.739 160.046C303.739 83.7594 280.382 21.9165 251.569 21.9165C222.756 21.9165 199.399 83.7594 199.399 160.046C199.399 236.334 222.756 298.177 251.569 298.177Z" fill="#F3BE22"/>
<path opacity="0.2" d="M261.229 91.5063C245.229 91.5063 232.339 122.196 232.339 160.056C232.339 197.916 245.269 228.596 261.229 228.596C277.189 228.596 290.119 197.916 290.119 160.056C290.119 122.196 277.189 91.5063 261.229 91.5063ZM284.229 160.056C284.229 170.946 282.469 180.846 279.589 188.276L271.249 159.506L279.429 131.336C282.429 138.806 284.269 148.906 284.269 160.046L284.229 160.056ZM266.639 118.346C270.169 118.346 273.439 120.806 276.189 125.036L268.719 150.946L260.099 121.346C261.812 119.517 264.176 118.436 266.679 118.336L266.639 118.346ZM249.069 160.056C249.069 145.956 252.019 133.506 256.529 125.956L266.289 159.506L256.389 193.826C251.979 186.266 249.109 173.956 249.109 160.046L249.069 160.056ZM266.639 201.766C265.359 201.696 264.105 201.372 262.952 200.812C261.798 200.252 260.767 199.469 259.919 198.506L268.759 168.036L276.469 194.676C273.669 199.166 270.309 201.756 266.679 201.756L266.639 201.766Z" fill="#FAFAFA"/>
<path opacity="0.4" d="M252.979 294.677C229.479 294.677 204.319 240.576 204.319 160.046C204.319 79.5165 229.479 25.4165 252.979 25.4165C276.479 25.4165 301.649 79.5165 301.649 160.046C301.649 240.576 276.489 294.677 252.979 294.677ZM252.979 26.4165C229.979 26.4165 205.319 80.1065 205.319 160.046C205.319 239.986 229.919 293.677 252.979 293.677C276.039 293.677 300.649 239.976 300.649 160.046C300.649 80.1165 275.999 26.4165 252.979 26.4165Z" fill="#FAFAFA"/>
</svg>
