<svg width="1654" height="1216" viewBox="0 0 1654 1216" fill="none" xmlns="http://www.w3.org/2000/svg">
<g clip-path="url(#clip0_229_2947)">
<rect width="1654" height="1216" fill="#F9F6E8"/>
<path fill-rule="evenodd" clip-rule="evenodd" d="M-175 171.015C663.074 593.677 755.711 1300.48 765.321 1488.4C765.972 1501.05 771.461 1512.97 780.656 1521.69C789.85 1530.42 802.049 1535.29 814.736 1535.3H1475.49C1482.06 1535.29 1488.56 1533.97 1494.62 1531.42C1500.67 1528.88 1506.16 1525.15 1510.76 1520.47C1515.35 1515.79 1518.97 1510.24 1521.4 1504.15C1523.83 1498.05 1525.02 1491.54 1524.91 1484.98C1509.76 430.034 1001.23 95.7066 711.151 -9.11536C701.478 -12.6947 693.135 -19.144 687.243 -27.5963C681.35 -36.0486 678.192 -46.0987 678.192 -56.3956C678.192 -66.6925 681.35 -76.7427 687.243 -85.195C693.135 -93.6472 701.478 -100.097 711.151 -103.676C787.072 -131.139 877.955 -174.315 971.042 -242H-175V171.015Z" fill="#F3BE22" fill-opacity="0.1"/>
<path d="M358.227 540.489L354.952 538.796C383.538 482.984 421.927 432.767 468.287 390.541L470.789 393.264C424.747 435.195 386.619 485.064 358.227 540.489Z" fill="#F3BE22"/>
<path d="M312.157 671.855L308.477 671.119C313.803 645.099 321.11 619.524 330.334 594.618L333.793 595.906C324.643 620.63 317.41 646.021 312.157 671.855Z" fill="#F3BE22"/>
<path opacity="0.9" d="M1112.83 1069.42C1275.34 906.913 1275.34 643.429 1112.83 480.917C950.316 318.404 686.832 318.404 524.319 480.917C361.807 643.429 361.807 906.913 524.319 1069.42C686.831 1231.94 950.316 1231.94 1112.83 1069.42Z" fill="#FAFAFA"/>
<g opacity="0.4">
<path d="M524.107 1007.92H426.264L445.178 961.485H505.194L524.107 1007.92Z" fill="#F3BE22"/>
<path opacity="0.2" d="M524.107 1007.92H426.264L445.178 961.485H505.194L524.107 1007.92Z" fill="#FAFAFA"/>
<path d="M672.804 1007.92H524.107L505.193 961.485H653.89L672.804 1007.92Z" fill="#F3BE22"/>
<path opacity="0.3" d="M672.804 1007.92H524.107L505.193 961.485H653.89L672.804 1007.92Z" fill="black"/>
<path d="M648.997 1007.92H551.117L570.03 961.485H630.083L648.997 1007.92Z" fill="#F3BE22"/>
<path opacity="0.2" d="M648.997 1007.92H551.117L570.03 961.485H630.083L648.997 1007.92Z" fill="#FAFAFA"/>
<path d="M797.657 1007.92H648.997L630.083 961.485H778.743L797.657 1007.92Z" fill="#F3BE22"/>
<path opacity="0.3" d="M797.657 1007.92H648.997L630.083 961.485H778.743L797.657 1007.92Z" fill="black"/>
<path d="M773.849 1007.92H676.006L694.92 961.485H754.936L773.849 1007.92Z" fill="#F3BE22"/>
<path opacity="0.2" d="M773.849 1007.92H676.006L694.92 961.485H754.936L773.849 1007.92Z" fill="#FAFAFA"/>
<path d="M922.51 1007.92H773.849L754.936 961.485H903.633L922.51 1007.92Z" fill="#F3BE22"/>
<path opacity="0.3" d="M922.51 1007.92H773.849L754.936 961.485H903.633L922.51 1007.92Z" fill="black"/>
<path d="M898.702 1007.92H800.858L819.772 961.485H879.788L898.702 1007.92Z" fill="#F3BE22"/>
<path opacity="0.2" d="M898.702 1007.92H800.858L819.772 961.485H879.788L898.702 1007.92Z" fill="#FAFAFA"/>
<path d="M1047.4 1007.92H898.702L879.788 961.485H1028.49L1047.4 1007.92Z" fill="#F3BE22"/>
<path opacity="0.3" d="M1047.4 1007.92H898.702L879.788 961.485H1028.49L1047.4 1007.92Z" fill="black"/>
<path d="M1023.59 1007.92H925.711L944.624 961.485H1004.68L1023.59 1007.92Z" fill="#F3BE22"/>
<path opacity="0.2" d="M1023.59 1007.92H925.711L944.624 961.485H1004.68L1023.59 1007.92Z" fill="#FAFAFA"/>
<path d="M1102.93 1007.92C1107.66 992.541 1111.95 977.062 1115.8 961.485H1004.68L1023.59 1007.92H1102.93Z" fill="#F3BE22"/>
<path opacity="0.3" d="M1102.93 1007.92C1107.66 992.541 1111.95 977.062 1115.8 961.485H1004.68L1023.59 1007.92H1102.93Z" fill="black"/>
<path d="M1115.8 961.485H1069.51L1050.6 1007.92H1102.93C1107.68 992.541 1111.98 977.062 1115.8 961.485Z" fill="#F3BE22"/>
<path opacity="0.2" d="M1115.8 961.485H1069.51L1050.6 1007.92H1102.93C1107.68 992.541 1111.98 977.062 1115.8 961.485Z" fill="#FAFAFA"/>
<path d="M562.266 961.485H464.386L483.299 915.01H543.352L562.266 961.485Z" fill="#F3BE22"/>
<path opacity="0.2" d="M562.266 961.485H464.386L483.299 915.01H543.352L562.266 961.485Z" fill="#FAFAFA"/>
<path d="M710.927 961.485H562.266L543.353 915.01H692.013L710.927 961.485Z" fill="#F3BE22"/>
<path opacity="0.3" d="M710.927 961.485H562.266L543.353 915.01H692.013L710.927 961.485Z" fill="black"/>
<path d="M687.119 961.485H589.275L608.189 915.01H668.205L687.119 961.485Z" fill="#F3BE22"/>
<path opacity="0.2" d="M687.119 961.485H589.275L608.189 915.01H668.205L687.119 961.485Z" fill="#FAFAFA"/>
<path d="M835.779 961.485H687.119L668.205 915.01H816.902L835.779 961.485Z" fill="#F3BE22"/>
<path opacity="0.3" d="M835.779 961.485H687.119L668.205 915.01H816.902L835.779 961.485Z" fill="black"/>
<path d="M811.971 961.485H714.127L733.041 915.01H793.057L811.971 961.485Z" fill="#F3BE22"/>
<path opacity="0.2" d="M811.971 961.485H714.127L733.041 915.01H793.057L811.971 961.485Z" fill="#FAFAFA"/>
<path d="M960.668 961.485H811.971L793.057 915.01H941.754L960.668 961.485Z" fill="#F3BE22"/>
<path opacity="0.3" d="M960.668 961.485H811.971L793.057 915.01H941.754L960.668 961.485Z" fill="black"/>
<path d="M936.86 961.485H838.98L857.894 915.01H917.946L936.86 961.485Z" fill="#F3BE22"/>
<path opacity="0.2" d="M936.86 961.485H838.98L857.894 915.01H917.946L936.86 961.485Z" fill="#FAFAFA"/>
<path d="M1085.52 961.485H936.86L917.947 915.01H1066.61L1085.52 961.485Z" fill="#F3BE22"/>
<path opacity="0.3" d="M1085.52 961.485H936.86L917.947 915.01H1066.61L1085.52 961.485Z" fill="black"/>
<path d="M1061.71 961.485H963.869L982.783 915.01H1042.8L1061.71 961.485Z" fill="#F3BE22"/>
<path opacity="0.2" d="M1061.71 961.485H963.869L982.783 915.01H1042.8L1061.71 961.485Z" fill="#FAFAFA"/>
<path d="M1115.8 961.485C1119.48 946.067 1122.98 930.612 1125.85 915.01H1042.98L1061.9 961.485H1115.8Z" fill="#F3BE22"/>
<path opacity="0.3" d="M1115.8 961.485C1119.48 946.067 1122.98 930.612 1125.85 915.01H1042.98L1061.9 961.485H1115.8Z" fill="black"/>
<path d="M1125.85 915.01H1107.64L1088.72 961.485H1115.8C1119.59 946.067 1122.98 930.612 1125.85 915.01Z" fill="#F3BE22"/>
<path opacity="0.2" d="M1125.85 915.01H1107.64L1088.72 961.485H1115.8C1119.59 946.067 1122.98 930.612 1125.85 915.01Z" fill="#FAFAFA"/>
<path d="M594.942 915.01H497.099L516.012 868.572H576.028L594.942 915.01Z" fill="#F3BE22"/>
<path opacity="0.2" d="M594.942 915.01H497.099L516.012 868.572H576.028L594.942 915.01Z" fill="#FAFAFA"/>
<path d="M743.639 915.01H594.942L576.028 868.572H724.725L743.639 915.01Z" fill="#F3BE22"/>
<path opacity="0.3" d="M743.639 915.01H594.942L576.028 868.572H724.725L743.639 915.01Z" fill="black"/>
<path d="M719.831 915.01H621.951L640.865 868.572H700.881L719.831 915.01Z" fill="#F3BE22"/>
<path opacity="0.2" d="M719.831 915.01H621.951L640.865 868.572H700.881L719.831 915.01Z" fill="#FAFAFA"/>
<path d="M868.491 915.01H719.831L700.88 868.572H849.577L868.491 915.01Z" fill="#F3BE22"/>
<path opacity="0.3" d="M868.491 915.01H719.831L700.88 868.572H849.577L868.491 915.01Z" fill="black"/>
<path d="M844.684 915.01H746.84L765.754 868.572H825.77L844.684 915.01Z" fill="#F3BE22"/>
<path opacity="0.2" d="M844.684 915.01H746.84L765.754 868.572H825.77L844.684 915.01Z" fill="#FAFAFA"/>
<path d="M993.344 915.01H844.684L825.77 868.572H974.43L993.344 915.01Z" fill="#F3BE22"/>
<path opacity="0.3" d="M993.344 915.01H844.684L825.77 868.572H974.43L993.344 915.01Z" fill="black"/>
<path d="M969.536 915.01H871.693L890.607 868.572H950.623L969.536 915.01Z" fill="#F3BE22"/>
<path opacity="0.2" d="M969.536 915.01H871.693L890.607 868.572H950.623L969.536 915.01Z" fill="#FAFAFA"/>
<path d="M1118.23 915.01H969.536L950.623 868.572H1099.32L1118.23 915.01Z" fill="#F3BE22"/>
<path opacity="0.3" d="M1118.23 915.01H969.536L950.623 868.572H1099.32L1118.23 915.01Z" fill="black"/>
<path d="M1094.43 915.01H996.545L1015.46 868.572H1075.51L1094.43 915.01Z" fill="#F3BE22"/>
<path opacity="0.2" d="M1094.43 915.01H996.545L1015.46 868.572H1075.51L1094.43 915.01Z" fill="#FAFAFA"/>
<path d="M1125.85 915.01C1128.72 899.629 1131.17 884.149 1133.21 868.572H1075.51L1094.5 915.01H1125.85Z" fill="#F3BE22"/>
<path opacity="0.3" d="M1125.85 915.01C1128.72 899.629 1131.17 884.149 1133.21 868.572H1075.51L1094.5 915.01H1125.85Z" fill="black"/>
<path d="M1129.12 896.096L1121.43 915.01H1125.85C1127.03 908.73 1128.12 902.425 1129.12 896.096Z" fill="#F3BE22"/>
<path opacity="0.2" d="M1129.12 896.096L1121.43 915.01H1125.85C1127.03 908.73 1128.12 902.425 1129.12 896.096Z" fill="#FAFAFA"/>
<path d="M633.064 868.572H535.22L554.134 822.134H614.187L633.064 868.572Z" fill="#F3BE22"/>
<path opacity="0.2" d="M633.064 868.572H535.22L554.134 822.134H614.187L633.064 868.572Z" fill="#FAFAFA"/>
<path d="M781.761 868.572H633.064L614.187 822.134H762.847L781.761 868.572Z" fill="#F3BE22"/>
<path opacity="0.3" d="M781.761 868.572H633.064L614.187 822.134H762.847L781.761 868.572Z" fill="black"/>
<path d="M757.953 868.572H660.109L679.023 822.134H739.039L757.953 868.572Z" fill="#F3BE22"/>
<path opacity="0.2" d="M757.953 868.572H660.109L679.023 822.134H739.039L757.953 868.572Z" fill="#FAFAFA"/>
<path d="M906.613 868.572H757.953L739.039 822.134H887.736L906.613 868.572Z" fill="#F3BE22"/>
<path opacity="0.3" d="M906.613 868.572H757.953L739.039 822.134H887.736L906.613 868.572Z" fill="black"/>
<path d="M882.805 868.572H784.962L803.876 822.134H863.892L882.805 868.572Z" fill="#F3BE22"/>
<path opacity="0.2" d="M882.805 868.572H784.962L803.876 822.134H863.892L882.805 868.572Z" fill="#FAFAFA"/>
<path d="M1031.5 868.572H882.805L863.892 822.134H1012.59L1031.5 868.572Z" fill="#F3BE22"/>
<path opacity="0.3" d="M1031.5 868.572H882.805L863.892 822.134H1012.59L1031.5 868.572Z" fill="black"/>
<path d="M1007.69 868.572H909.815L928.728 822.134H988.781L1007.69 868.572Z" fill="#F3BE22"/>
<path opacity="0.2" d="M1007.69 868.572H909.815L928.728 822.134H988.781L1007.69 868.572Z" fill="#FAFAFA"/>
<path d="M1133.06 868.572C1134.98 853.142 1136.39 837.663 1137.29 822.134H988.781L1007.7 868.572H1133.06Z" fill="#F3BE22"/>
<path opacity="0.3" d="M1133.06 868.572C1134.98 853.142 1136.39 837.663 1137.29 822.134H988.781L1007.7 868.572H1133.06Z" fill="black"/>
<path d="M1132.55 868.572H1034.7L1053.62 822.134H1113.63L1132.55 868.572Z" fill="#F3BE22"/>
<path opacity="0.2" d="M1132.55 868.572H1034.7L1053.62 822.134H1113.63L1132.55 868.572Z" fill="#FAFAFA"/>
<path d="M1133.06 868.572C1134.98 853.142 1136.39 837.663 1137.29 822.134H1113.63L1132.55 868.572H1133.06Z" fill="#F3BE22"/>
<path opacity="0.3" d="M1133.06 868.572C1134.98 853.142 1136.39 837.663 1137.29 822.134H1113.63L1132.55 868.572H1133.06Z" fill="black"/>
<path d="M611.39 1193.71H644.802L625.888 1147.27H551.779C572.818 1161.19 592.748 1176.72 611.39 1193.71Z" fill="#F3BE22"/>
<path opacity="0.3" d="M611.39 1193.71H644.802L625.888 1147.27H551.779C572.818 1161.19 592.748 1176.72 611.39 1193.71Z" fill="black"/>
<path d="M611.39 1193.71H620.994L602.08 1147.27H551.779C572.818 1161.19 592.748 1176.72 611.39 1193.71Z" fill="#F3BE22"/>
<path opacity="0.2" d="M611.39 1193.71H620.994L602.08 1147.27H551.779C572.818 1161.19 592.748 1176.72 611.39 1193.71Z" fill="#FAFAFA"/>
<path d="M769.655 1193.71H620.994L602.081 1147.27H750.741L769.655 1193.71Z" fill="#F3BE22"/>
<path opacity="0.3" d="M769.655 1193.71H620.994L602.081 1147.27H750.741L769.655 1193.71Z" fill="black"/>
<path d="M745.847 1193.71H648.003L666.917 1147.27H726.933L745.847 1193.71Z" fill="#F3BE22"/>
<path opacity="0.2" d="M745.847 1193.71H648.003L666.917 1147.27H726.933L745.847 1193.71Z" fill="#FAFAFA"/>
<path d="M894.507 1193.71H745.847L726.933 1147.27H875.593L894.507 1193.71Z" fill="#F3BE22"/>
<path opacity="0.3" d="M894.507 1193.71H745.847L726.933 1147.27H875.593L894.507 1193.71Z" fill="black"/>
<path d="M870.699 1193.71H772.856L791.769 1147.27H851.785L870.699 1193.71Z" fill="#F3BE22"/>
<path opacity="0.2" d="M870.699 1193.71H772.856L791.769 1147.27H851.785L870.699 1193.71Z" fill="#FAFAFA"/>
<path d="M1018.59 1191.72L1000.48 1147.27H851.638L870.552 1193.71H1016.38C1017.23 1193.09 1017.89 1192.39 1018.59 1191.72Z" fill="#F3BE22"/>
<path opacity="0.3" d="M1018.59 1191.72L1000.48 1147.27H851.638L870.552 1193.71H1016.38C1017.23 1193.09 1017.89 1192.39 1018.59 1191.72Z" fill="black"/>
<path d="M995.588 1193.71H897.708L916.622 1147.27H976.675L995.588 1193.71Z" fill="#F3BE22"/>
<path opacity="0.2" d="M995.588 1193.71H897.708L916.622 1147.27H976.675L995.588 1193.71Z" fill="#FAFAFA"/>
<path d="M1016.53 1193.71C1030.23 1180.21 1041.58 1164.51 1050.12 1147.27H976.748L995.662 1193.71H1016.53Z" fill="#F3BE22"/>
<path opacity="0.3" d="M1016.53 1193.71C1030.23 1180.21 1041.58 1164.51 1050.12 1147.27H976.748L995.662 1193.71H1016.53Z" fill="black"/>
<path d="M1050.12 1147.27H1041.51L1027.23 1182.3C1036.1 1171.48 1043.77 1159.74 1050.12 1147.27Z" fill="#F3BE22"/>
<path opacity="0.2" d="M1050.12 1147.27H1041.51L1027.23 1182.3C1036.1 1171.48 1043.77 1159.74 1050.12 1147.27Z" fill="#FAFAFA"/>
<path d="M495.884 1106.02C513.583 1121 532.681 1134.06 551.779 1147.27H558.071L539.157 1100.84H489.886C491.873 1102.56 493.86 1104.33 495.884 1106.02Z" fill="#F3BE22"/>
<path opacity="0.3" d="M495.884 1106.02C513.583 1121 532.681 1134.06 551.779 1147.27H558.071L539.157 1100.84H489.886C491.873 1102.56 493.86 1104.33 495.884 1106.02Z" fill="black"/>
<path d="M495.884 1106.02C505.966 1114.56 516.527 1122.47 527.272 1130.13L515.35 1100.69H489.886C491.873 1102.56 493.86 1104.33 495.884 1106.02Z" fill="#F3BE22"/>
<path opacity="0.2" d="M495.884 1106.02C505.966 1114.56 516.527 1122.47 527.272 1130.13L515.35 1100.69H489.886C491.873 1102.56 493.86 1104.33 495.884 1106.02Z" fill="#FAFAFA"/>
<path d="M551.779 1147.27H682.924L663.973 1100.84H515.313L527.235 1130.27C535.367 1135.94 543.61 1141.57 551.779 1147.27Z" fill="#F3BE22"/>
<path opacity="0.3" d="M551.779 1147.27H682.924L663.973 1100.84H515.313L527.235 1130.27C535.367 1135.94 543.61 1141.57 551.779 1147.27Z" fill="black"/>
<path d="M659.116 1147.27H561.272L580.186 1100.84H640.202L659.116 1147.27Z" fill="#F3BE22"/>
<path opacity="0.2" d="M659.116 1147.27H561.272L580.186 1100.84H640.202L659.116 1147.27Z" fill="#FAFAFA"/>
<path d="M807.813 1147.27H659.116L640.202 1100.84H788.899L807.813 1147.27Z" fill="#F3BE22"/>
<path opacity="0.3" d="M807.813 1147.27H659.116L640.202 1100.84H788.899L807.813 1147.27Z" fill="black"/>
<path d="M783.968 1147.27H686.125L705.039 1100.84H765.055L783.968 1147.27Z" fill="#F3BE22"/>
<path opacity="0.2" d="M783.968 1147.27H686.125L705.039 1100.84H765.055L783.968 1147.27Z" fill="#FAFAFA"/>
<path d="M932.666 1147.27H783.969L765.055 1100.84H913.752L932.666 1147.27Z" fill="#F3BE22"/>
<path opacity="0.3" d="M932.666 1147.27H783.969L765.055 1100.84H913.752L932.666 1147.27Z" fill="black"/>
<path d="M908.858 1147.27H811.015L829.928 1100.84H889.944L908.858 1147.27Z" fill="#F3BE22"/>
<path opacity="0.2" d="M908.858 1147.27H811.015L829.928 1100.84H889.944L908.858 1147.27Z" fill="#FAFAFA"/>
<path d="M1054.21 1139.18L1038.6 1100.84H889.944L908.858 1147.27H1050.12C1051.56 1144.59 1052.88 1141.9 1054.21 1139.18Z" fill="#F3BE22"/>
<path opacity="0.3" d="M1054.21 1139.18L1038.6 1100.84H889.944L908.858 1147.27H1050.12C1051.56 1144.59 1052.88 1141.9 1054.21 1139.18Z" fill="black"/>
<path d="M1033.71 1147.27H935.867L954.781 1100.84H1014.8L1033.71 1147.27Z" fill="#F3BE22"/>
<path opacity="0.2" d="M1033.71 1147.27H935.867L954.781 1100.84H1014.8L1033.71 1147.27Z" fill="#FAFAFA"/>
<path d="M1050.12 1147.27C1057.82 1132.22 1064.6 1116.71 1070.43 1100.84H1014.8L1033.71 1147.27H1050.12Z" fill="#F3BE22"/>
<path opacity="0.3" d="M1050.12 1147.27C1057.82 1132.22 1064.6 1116.71 1070.43 1100.84H1014.8L1033.71 1147.27H1050.12Z" fill="black"/>
<path d="M489.886 1100.84H590.747L571.981 1054.36H445.288C458.861 1071.04 473.777 1086.59 489.886 1100.84Z" fill="#F3BE22"/>
<path opacity="0.3" d="M489.886 1100.84H590.747L571.981 1054.36H445.288C458.861 1071.04 473.777 1086.59 489.886 1100.84Z" fill="black"/>
<path d="M489.886 1100.84H566.939L548.025 1054.36H488.009L474.799 1086.78C479.681 1091.61 484.71 1096.3 489.886 1100.84Z" fill="#F3BE22"/>
<path opacity="0.2" d="M489.886 1100.84H566.939L548.025 1054.36H488.009L474.799 1086.78C479.681 1091.61 484.71 1096.3 489.886 1100.84Z" fill="#FAFAFA"/>
<path d="M715.636 1100.84H566.939L548.025 1054.36H696.722L715.636 1100.84Z" fill="#F3BE22"/>
<path opacity="0.3" d="M715.636 1100.84H566.939L548.025 1054.36H696.722L715.636 1100.84Z" fill="black"/>
<path d="M691.792 1100.84H593.948L612.862 1054.36H672.915L691.792 1100.84Z" fill="#F3BE22"/>
<path opacity="0.2" d="M691.792 1100.84H593.948L612.862 1054.36H672.915L691.792 1100.84Z" fill="#FAFAFA"/>
<path d="M840.489 1100.84H691.792L672.915 1054.36H821.575L840.489 1100.84Z" fill="#F3BE22"/>
<path opacity="0.3" d="M840.489 1100.84H691.792L672.915 1054.36H821.575L840.489 1100.84Z" fill="black"/>
<path d="M816.681 1100.84H718.838L737.751 1054.36H797.767L816.681 1100.84Z" fill="#F3BE22"/>
<path opacity="0.2" d="M816.681 1100.84H718.838L737.751 1054.36H797.767L816.681 1100.84Z" fill="#FAFAFA"/>
<path d="M965.341 1100.84H816.681L797.767 1054.36H946.428L965.341 1100.84Z" fill="#F3BE22"/>
<path opacity="0.3" d="M965.341 1100.84H816.681L797.767 1054.36H946.428L965.341 1100.84Z" fill="black"/>
<path d="M941.533 1100.84H843.69L862.604 1054.36H922.62L941.533 1100.84Z" fill="#F3BE22"/>
<path opacity="0.2" d="M941.533 1100.84H843.69L862.604 1054.36H922.62L941.533 1100.84Z" fill="#FAFAFA"/>
<path d="M1079.78 1075.11L1071.35 1054.36H922.62L941.534 1100.84H1070.32C1073.75 1092.08 1076.8 1083.43 1079.78 1075.11Z" fill="#F3BE22"/>
<path opacity="0.3" d="M1079.78 1075.11L1071.35 1054.36H922.62L941.534 1100.84H1070.32C1073.75 1092.08 1076.8 1083.43 1079.78 1075.11Z" fill="black"/>
<path d="M1066.42 1100.84H968.542L987.456 1054.36H1047.51L1066.42 1100.84Z" fill="#F3BE22"/>
<path opacity="0.2" d="M1066.42 1100.84H968.542L987.456 1054.36H1047.51L1066.42 1100.84Z" fill="#FAFAFA"/>
<path d="M1070.43 1100.84C1076.51 1084.76 1081.8 1069.04 1086.96 1055.13C1087.03 1054.87 1087.11 1054.61 1087.21 1054.36H1047.51L1066.42 1100.84H1070.43Z" fill="#F3BE22"/>
<path opacity="0.3" d="M1070.43 1100.84C1076.51 1084.76 1081.8 1069.04 1086.96 1055.13C1087.03 1054.87 1087.11 1054.61 1087.21 1054.36H1047.51L1066.42 1100.84H1070.43Z" fill="black"/>
<path d="M445.288 1054.36H480.208L461.295 1007.92H412.502C422.341 1024.14 433.296 1039.66 445.288 1054.36Z" fill="#F3BE22"/>
<path opacity="0.2" d="M445.288 1054.36H480.208L461.295 1007.92H412.502C422.341 1024.14 433.296 1039.66 445.288 1054.36Z" fill="#FAFAFA"/>
<path d="M628.906 1054.36H480.209L461.295 1007.92H609.992L628.906 1054.36Z" fill="#F3BE22"/>
<path opacity="0.3" d="M628.906 1054.36H480.209L461.295 1007.92H609.992L628.906 1054.36Z" fill="black"/>
<path d="M605.098 1054.36H507.218L526.132 1007.92H586.184L605.098 1054.36Z" fill="#F3BE22"/>
<path opacity="0.2" d="M605.098 1054.36H507.218L526.132 1007.92H586.184L605.098 1054.36Z" fill="#FAFAFA"/>
<path d="M753.758 1054.36H605.098L586.184 1007.92H734.844L753.758 1054.36Z" fill="#F3BE22"/>
<path opacity="0.3" d="M753.758 1054.36H605.098L586.184 1007.92H734.844L753.758 1054.36Z" fill="black"/>
<path d="M729.95 1054.36H632.107L651.02 1007.92H711.036L729.95 1054.36Z" fill="#F3BE22"/>
<path opacity="0.2" d="M729.95 1054.36H632.107L651.02 1007.92H711.036L729.95 1054.36Z" fill="#FAFAFA"/>
<path d="M878.611 1054.36H729.951L711.037 1007.92H859.697L878.611 1054.36Z" fill="#F3BE22"/>
<path opacity="0.3" d="M878.611 1054.36H729.951L711.037 1007.92H859.697L878.611 1054.36Z" fill="black"/>
<path d="M854.803 1054.36H756.959L775.873 1007.92H835.889L854.803 1054.36Z" fill="#F3BE22"/>
<path opacity="0.2" d="M854.803 1054.36H756.959L775.873 1007.92H835.889L854.803 1054.36Z" fill="#FAFAFA"/>
<path d="M1003.5 1054.36H854.803L835.889 1007.92H984.586L1003.5 1054.36Z" fill="#F3BE22"/>
<path opacity="0.3" d="M1003.5 1054.36H854.803L835.889 1007.92H984.586L1003.5 1054.36Z" fill="black"/>
<path d="M979.692 1054.36H881.812L900.726 1007.92H960.779L979.692 1054.36Z" fill="#F3BE22"/>
<path opacity="0.2" d="M979.692 1054.36H881.812L900.726 1007.92H960.779L979.692 1054.36Z" fill="#FAFAFA"/>
<path d="M1087.14 1054.36C1092.81 1039 1098.04 1023.52 1102.85 1007.92H960.779L979.692 1054.36H1087.14Z" fill="#F3BE22"/>
<path opacity="0.3" d="M1087.14 1054.36C1092.81 1039 1098.04 1023.52 1102.85 1007.92H960.779L979.692 1054.36H1087.14Z" fill="black"/>
<path d="M1095.23 1031.55L1085.63 1007.92H1025.61L1006.7 1054.36H1087.14C1090.01 1046.82 1092.66 1039.2 1095.23 1031.55Z" fill="#F3BE22"/>
<path opacity="0.2" d="M1095.23 1031.55L1085.63 1007.92H1025.61L1006.7 1054.36H1087.14C1090.01 1046.82 1092.66 1039.2 1095.23 1031.55Z" fill="#FAFAFA"/>
<path d="M1102.93 1007.92H1085.63L1095.23 1031.55C1097.93 1023.72 1100.5 1015.85 1102.93 1007.92Z" fill="#F3BE22"/>
<path opacity="0.3" d="M1102.93 1007.92H1085.63L1095.23 1031.55C1097.93 1023.72 1100.5 1015.85 1102.93 1007.92Z" fill="black"/>
</g>
<path d="M819.184 267.308C718.656 267.308 620.385 297.118 536.8 352.968C453.214 408.818 388.066 488.201 349.596 581.076C311.126 673.952 301.06 776.15 320.672 874.746C340.284 973.342 388.693 1063.91 459.777 1134.99C530.861 1206.08 621.427 1254.49 720.024 1274.1C818.62 1293.71 920.818 1283.64 1013.69 1245.17C1106.57 1206.7 1185.95 1141.56 1241.8 1057.97C1297.65 974.384 1327.46 876.114 1327.46 775.586C1327.46 640.782 1273.91 511.5 1178.59 416.179C1083.27 320.858 953.987 267.308 819.184 267.308ZM818.521 1191.32C736.219 1191.31 655.766 1166.9 587.337 1121.17C518.909 1075.44 465.577 1010.44 434.086 934.405C402.595 858.365 394.359 774.694 410.42 693.974C426.481 613.253 466.118 539.108 524.317 480.914C582.516 422.72 656.665 383.09 737.387 367.036C818.109 350.982 901.779 359.225 977.816 390.723C1053.85 422.221 1118.84 475.558 1164.57 543.991C1210.29 612.424 1234.7 692.878 1234.7 775.181C1234.7 829.832 1223.93 883.948 1203.02 934.439C1182.1 984.929 1151.45 1030.81 1112.8 1069.45C1074.15 1108.09 1028.27 1138.74 977.782 1159.65C927.289 1180.56 873.172 1191.32 818.521 1191.32Z" fill="#F3BE22"/>
<path opacity="0.4" d="M819.183 1257.7C1085.01 1257.7 1301.23 1041.41 1301.23 775.659C1301.23 509.911 1084.93 293.618 819.183 293.618C553.435 293.618 337.142 509.874 337.142 775.659C337.142 1041.44 553.324 1257.7 819.183 1257.7ZM819.183 297.297C946.002 297.463 1067.58 347.915 1157.25 437.589C1246.93 527.264 1297.38 648.841 1297.55 775.659C1297.55 1039.46 1082.91 1254.02 819.183 1254.02C555.459 1254.02 340.821 1039.38 340.821 775.659C340.821 511.935 555.348 297.15 819.183 297.15V297.297Z" fill="#FAFAFA"/>
<path d="M690.394 442.425C711.221 447.356 732.564 452.287 753.648 456.776C774.733 461.265 795.928 465.35 816.682 468.146L824.372 469.029L826.249 469.213H825.955C825.955 469.213 826.139 469.213 826.543 469.213C829.861 468.368 833.009 466.962 835.853 465.055C844.114 459.627 851.872 453.469 859.035 446.657C874.343 432.49 889.282 416.446 903.67 400.477L920.486 412.141C909.47 432.112 896.596 450.998 882.033 468.551C874.339 477.981 865.641 486.544 856.091 494.088C850.146 498.864 843.373 502.506 836.111 504.833C833.711 505.562 831.246 506.055 828.751 506.305C827.281 506.399 825.806 506.399 824.335 506.305H822.091L813.333 505.863C790.688 504.186 768.157 501.225 745.847 496.995C723.769 492.948 702.132 488.164 680.238 482.276L690.394 442.425Z" fill="#CE7A63"/>
<path d="M658.822 479.811C673.541 501.08 761.854 509.249 761.854 509.249L767.263 452.655C744.775 444.777 721.639 438.892 698.121 435.066C635.75 426.161 642.778 456.482 658.822 479.811Z" fill="#F3BE22"/>
<path opacity="0.2" d="M658.822 479.811C673.541 501.08 761.854 509.249 761.854 509.249L767.263 452.655C744.775 444.777 721.639 438.892 698.121 435.066C635.75 426.161 642.778 456.482 658.822 479.811Z" fill="white"/>
<path d="M900.21 407.542L907.239 381.489L931.488 391.903C931.488 391.903 921.258 419.979 912.022 418.581L900.21 407.542Z" fill="#CE7A63"/>
<path d="M927.257 365.372L947.311 364.121L931.488 391.903L907.239 381.489L927.257 365.372Z" fill="#CE7A63"/>
<path d="M718.139 441.358C718.139 441.358 753.17 523.747 727.927 677.154H581.99C580.224 654.744 590.49 545.494 565.247 439.96C581.297 436.835 597.535 434.77 613.856 433.778C634.519 432.6 655.233 432.6 675.896 433.778C690.15 435.225 704.272 437.759 718.139 441.358Z" fill="#F3BE22"/>
<path opacity="0.2" d="M718.139 441.358C718.139 441.358 753.17 523.747 727.927 677.154H581.99C580.224 654.744 590.49 545.494 565.247 439.96C581.297 436.835 597.535 434.77 613.856 433.778C634.519 432.6 655.233 432.6 675.896 433.778C690.15 435.225 704.272 437.759 718.139 441.358Z" fill="white"/>
<path opacity="0.3" d="M569.81 461.081C576.636 497.196 580.672 533.782 581.879 570.516C587.225 548.994 590.843 527.079 592.698 504.98C594.243 480.51 584.75 465.019 569.81 461.081Z" fill="black"/>
<path d="M674.608 558.225C661.655 543.985 639.393 515.614 632.475 490.114L667.211 471.716L699.556 488.274C699.225 509.948 687.671 539.312 679.391 557.195C678.324 559.366 676.116 559.918 674.608 558.225Z" fill="#FAFAFA"/>
<path d="M617.609 363.937C622.209 383.918 627.36 420.457 613.929 433.851C613.929 433.851 619.78 450.373 656.872 450.373C697.643 450.373 675.969 433.851 675.969 433.851C653.523 428.553 653.523 412.031 656.872 396.539L617.609 363.937Z" fill="#CE7A63"/>
<path opacity="0.2" d="M633.579 377.221L656.798 396.429C655.962 400.056 655.445 403.75 655.253 407.468C646.716 406.254 634.72 396.907 633.506 388.002C632.856 384.435 632.881 380.778 633.579 377.221Z" fill="black"/>
<path d="M677.589 352.53C683.623 347.378 686.346 316.579 674.461 301.823C662.575 287.068 652.383 322.834 652.383 322.834C652.383 322.834 657.829 369.456 677.589 352.53Z" fill="#263238"/>
<path d="M608.778 343.073C617.094 368.831 620.627 384.396 637.406 394.957C642.819 398.436 649.08 400.369 655.513 400.546C661.945 400.724 668.303 399.139 673.9 395.964C679.496 392.788 684.118 388.143 687.265 382.531C690.412 376.918 691.965 370.552 691.755 364.121C691.424 339.356 677.883 301.235 649.365 296.488C643.221 295.293 636.871 295.735 630.951 297.769C625.032 299.803 619.751 303.358 615.64 308.078C611.528 312.797 608.729 318.515 607.525 324.657C606.321 330.799 606.753 337.15 608.778 343.073Z" fill="#CE7A63"/>
<path d="M678.251 289.864C679.108 288.299 679.527 286.533 679.465 284.75C679.449 282.606 678.752 280.522 677.475 278.8C676.198 277.078 674.407 275.806 672.36 275.167C670.314 274.528 668.117 274.557 666.087 275.247C664.057 275.938 662.299 277.255 661.067 279.009C658.98 276.619 656.39 274.72 653.482 273.447C650.575 272.175 647.423 271.561 644.25 271.65C640.913 271.762 637.648 272.657 634.72 274.263C632.827 272.65 630.397 271.81 627.913 271.907C625.499 271.994 623.195 272.938 621.415 274.57C619.635 276.202 618.494 278.415 618.198 280.812C617.164 280.646 616.118 280.572 615.07 280.592C610.74 280.745 606.647 282.609 603.688 285.775C600.729 288.941 599.145 293.15 599.284 297.481C599.284 297.481 599.284 297.481 599.284 297.702C598.659 297.664 598.033 297.664 597.408 297.702C595.663 297.764 593.947 298.169 592.359 298.894C590.771 299.619 589.342 300.651 588.152 301.929C586.963 303.207 586.037 304.707 585.428 306.343C584.819 307.979 584.538 309.72 584.602 311.464V311.685C582.941 312.587 581.566 313.939 580.635 315.585C579.705 317.231 579.256 319.106 579.34 320.995C579.416 323.005 580.081 324.948 581.252 326.584C582.423 328.219 584.049 329.475 585.927 330.194C586.179 333.311 587.531 336.237 589.743 338.448C591.954 340.659 594.88 342.012 597.997 342.263C599.432 355.142 604.068 375.086 619.118 364.783C624.858 360.846 630.157 336.965 624.454 320.406C624.895 320.406 625.374 320.406 625.852 320.406C628.337 320.314 630.767 319.652 632.955 318.472C635.144 317.292 637.032 315.624 638.473 313.599C641.62 314.634 644.964 314.93 648.244 314.464C651.524 313.998 654.653 312.783 657.387 310.912C658.569 311.325 659.815 311.525 661.067 311.501C662.783 311.423 664.453 310.917 665.924 310.029C668.015 311.451 670.498 312.184 673.026 312.127C675.654 312.046 678.181 311.099 680.215 309.432C682.249 307.766 683.675 305.474 684.271 302.913C684.867 300.352 684.6 297.666 683.511 295.273C682.423 292.88 680.573 290.914 678.251 289.68V289.864Z" fill="#263238"/>
<path d="M604.325 374.498C609.26 379.294 615.843 382.019 622.724 382.115C631.813 382.115 633.763 373.504 628.869 366.292C624.527 359.853 614.592 352.052 606.57 355.51C598.548 358.969 598.291 368.573 604.325 374.498Z" fill="#CE7A63"/>
<path d="M650.8 341.601C651.315 343.736 652.898 345.281 654.48 344.913C656.062 344.545 656.577 342.595 656.025 340.461C655.473 338.326 653.891 336.781 652.346 337.186C650.8 337.59 650.248 339.393 650.8 341.601Z" fill="#263238"/>
<path d="M675.013 336.266C675.564 338.4 677.147 339.945 678.692 339.577C680.238 339.209 680.79 337.296 680.238 335.162C679.686 333.028 678.103 331.482 676.558 331.85C675.013 332.218 674.534 334.131 675.013 336.266Z" fill="#263238"/>
<path d="M667.653 339.025C671.911 344.992 676.934 350.374 682.593 355.032C681.364 356.398 679.851 357.478 678.16 358.196C676.469 358.914 674.641 359.254 672.805 359.19L667.653 339.025Z" fill="#BA4D3C"/>
<path d="M663.495 366.954C659.014 366.999 654.665 365.432 651.242 362.539C651.125 362.421 651.06 362.263 651.06 362.097C651.06 361.932 651.125 361.773 651.242 361.656C651.301 361.592 651.372 361.541 651.451 361.507C651.53 361.472 651.616 361.454 651.702 361.454C651.788 361.454 651.874 361.472 651.953 361.507C652.032 361.541 652.103 361.592 652.162 361.656C654.316 363.406 656.839 364.647 659.541 365.284C662.243 365.921 665.054 365.939 667.764 365.335C667.929 365.301 668.102 365.332 668.245 365.421C668.389 365.51 668.493 365.65 668.537 365.814C668.558 365.898 668.562 365.987 668.547 366.073C668.532 366.159 668.499 366.242 668.451 366.314C668.402 366.387 668.339 366.449 668.265 366.496C668.191 366.543 668.108 366.574 668.022 366.586C666.532 366.882 665.013 367.006 663.495 366.954Z" fill="#263238"/>
<path d="M641.16 335.456C640.99 335.491 640.814 335.491 640.645 335.456C640.487 335.392 640.344 335.297 640.224 335.176C640.105 335.055 640.011 334.911 639.949 334.752C639.887 334.594 639.858 334.424 639.864 334.254C639.869 334.084 639.91 333.917 639.982 333.763C640.767 331.899 641.995 330.254 643.56 328.972C645.125 327.689 646.978 326.808 648.961 326.404C649.3 326.37 649.639 326.465 649.911 326.669C650.184 326.874 650.37 327.173 650.433 327.508C650.475 327.848 650.384 328.192 650.178 328.467C649.972 328.741 649.667 328.925 649.329 328.98C647.772 329.33 646.323 330.052 645.106 331.084C643.889 332.115 642.939 333.426 642.337 334.904C642.208 335.092 642.03 335.242 641.823 335.339C641.616 335.436 641.387 335.477 641.16 335.456Z" fill="#263238"/>
<path d="M683.292 325.705C683.101 325.706 682.912 325.664 682.74 325.581C682.567 325.498 682.417 325.377 682.298 325.226C681.263 323.939 679.952 322.9 678.462 322.187C676.971 321.474 675.34 321.104 673.688 321.105C673.346 321.134 673.007 321.027 672.745 320.806C672.483 320.585 672.319 320.269 672.29 319.928C672.26 319.586 672.368 319.247 672.589 318.985C672.81 318.722 673.126 318.559 673.467 318.529C675.536 318.487 677.586 318.92 679.462 319.794C681.337 320.668 682.987 321.96 684.286 323.57C684.501 323.841 684.602 324.184 684.568 324.528C684.533 324.872 684.366 325.188 684.102 325.41C683.873 325.598 683.588 325.702 683.292 325.705Z" fill="#263238"/>
<path d="M594.059 479.222L588.76 490.666C586.994 494.603 585.264 498.577 583.572 502.551C580.186 510.5 576.985 518.558 573.894 526.58C570.803 534.602 568.08 542.697 565.467 550.792C562.855 558.888 560.831 566.946 559.138 574.968V575.667V575.446C559.154 575.251 559.154 575.054 559.138 574.858C559.089 574.451 558.978 574.053 558.807 573.68C558.513 572.981 558.182 572.834 558.329 573.239C559.669 575.121 561.401 576.691 563.407 577.838C570.01 581.866 577.046 585.137 584.381 587.59C600.804 593.231 617.538 597.924 634.499 601.646L632.806 622.068C613.824 622.679 594.833 621.198 576.175 617.653C565.929 615.798 555.97 612.606 546.554 608.159C540.439 605.249 534.943 601.188 530.363 596.2C527.237 592.636 524.881 588.465 523.445 583.947C522.665 581.387 522.195 578.744 522.047 576.072C521.973 574.748 521.973 573.422 522.047 572.098L522.231 570.185V569.191C524.68 550.033 529.056 531.171 535.294 512.891C538.287 503.913 541.586 495.069 545.192 486.361C547.032 482.019 548.872 477.713 550.896 473.408C552.92 469.103 554.87 464.982 557.262 460.382L594.059 479.222Z" fill="#CE7A63"/>
<path d="M565.247 439.96C539.489 443.639 513.106 538.245 513.106 538.245L575.182 561.868C575.182 561.868 590.784 521.208 601.455 489.636C612.642 456.555 592.771 435.912 565.247 439.96Z" fill="#F3BE22"/>
<path opacity="0.2" d="M565.247 439.96C539.489 443.639 513.106 538.245 513.106 538.245L575.182 561.868C575.182 561.868 590.784 521.208 601.455 489.636C612.642 456.555 592.771 435.912 565.247 439.96Z" fill="white"/>
<path d="M727.927 677.154C727.927 677.154 812.56 875.011 829.671 951.329C848.474 1034.89 880.34 1258.81 880.34 1258.81L831.106 1267.38C831.106 1267.38 785.772 1058.22 759.646 977.602C731.276 890.135 617.977 677.154 617.977 677.154H727.927Z" fill="#263238"/>
<path opacity="0.3" d="M658.16 720.869L656.173 750.785C668.941 775.954 683.66 805.318 698.048 835.124C704.45 805.612 688.112 734.704 658.16 720.869Z" fill="black"/>
<path d="M679.097 677.154C679.097 677.154 678.619 885.609 674.203 963.729C669.346 1049.25 645.097 1332.62 645.097 1332.62H595.126C595.126 1332.62 596.635 1056.16 593.617 971.494C590.342 879.501 581.879 677.117 581.879 677.117L679.097 677.154Z" fill="#263238"/>
<path d="M630.415 601.425L652.787 595.28L655.878 623.577C655.878 623.577 633.8 630.201 628.317 618.61L630.415 601.425Z" fill="#CE7A63"/>
<path d="M673.099 599.181L671.738 624.681L655.878 623.577L652.787 595.28L673.099 599.181Z" fill="#CE7A63"/>
<path d="M1046.22 1267.38C928.692 1249.68 839.422 1030 839.422 775.586C839.422 521.171 928.692 301.492 1046.22 283.793L1155.77 267.308V1283.86L1046.22 1267.38Z" fill="#F3BE22"/>
<path opacity="0.3" d="M1046.22 1267.38C928.692 1249.68 839.422 1030 839.422 775.586C839.422 521.171 928.692 301.492 1046.22 283.793L1155.77 267.308V1283.86L1046.22 1267.38Z" fill="black"/>
<path d="M1155.77 1283.86C1261.79 1283.86 1347.74 1056.3 1347.74 775.586C1347.74 494.872 1261.79 267.308 1155.77 267.308C1049.74 267.308 963.796 494.872 963.796 775.586C963.796 1056.3 1049.74 1283.86 1155.77 1283.86Z" fill="#F3BE22"/>
<path opacity="0.2" d="M1191.31 523.379C1132.44 523.379 1085.01 636.309 1085.01 775.623C1085.01 914.936 1132.58 1027.83 1191.31 1027.83C1250.04 1027.83 1297.62 914.936 1297.62 775.623C1297.62 636.309 1250.04 523.379 1191.31 523.379ZM1275.95 775.623C1275.95 815.695 1269.47 852.124 1258.87 879.464L1228.18 773.599L1258.28 669.941C1269.32 697.429 1276.09 734.594 1276.09 775.586L1275.95 775.623ZM1211.22 622.142C1224.21 622.142 1236.24 631.194 1246.36 646.759L1218.87 742.1L1187.15 633.181C1193.45 626.45 1202.15 622.47 1211.37 622.105L1211.22 622.142ZM1146.57 775.623C1146.57 723.739 1157.42 677.926 1174.02 650.144L1209.93 773.599L1173.5 899.886C1157.27 872.068 1146.71 826.77 1146.71 775.586L1146.57 775.623ZM1211.22 929.103C1206.51 928.845 1201.89 927.651 1197.65 925.592C1193.4 923.532 1189.61 920.648 1186.49 917.107L1219.02 804.987L1247.39 903.014C1237.09 919.536 1224.72 929.066 1211.37 929.066L1211.22 929.103Z" fill="#FAFAFA"/>
<path opacity="0.4" d="M1160.95 1270.98C1074.48 1270.98 981.9 1071.91 981.9 775.586C981.9 479.259 1074.48 280.187 1160.95 280.187C1247.43 280.187 1340.05 479.259 1340.05 775.586C1340.05 1071.91 1247.46 1270.98 1160.95 1270.98ZM1160.95 283.866C1076.32 283.866 985.58 481.43 985.58 775.586C985.58 1069.74 1076.1 1267.31 1160.95 1267.31C1245.81 1267.31 1336.37 1069.7 1336.37 775.586C1336.37 481.467 1245.66 283.866 1160.95 283.866Z" fill="#FAFAFA"/>
</g>
<defs>
<clipPath id="clip0_229_2947">
<rect width="1654" height="1216" fill="white"/>
</clipPath>
</defs>
</svg>
