<svg width="122" height="312" viewBox="0 0 122 312" fill="none" xmlns="http://www.w3.org/2000/svg">
<path d="M80.2892 267.73C80.2892 267.73 73.1241 276.647 70.5213 285.492C67.9185 294.337 69.0926 306.664 69.0926 306.664C69.0926 306.664 58.7396 296.725 51.9575 293.26C45.1754 289.795 34.6992 289.088 34.6992 289.088" stroke="#242930" stroke-width="8.99986" stroke-linecap="round" stroke-linejoin="round"/>
<path fill-rule="evenodd" clip-rule="evenodd" d="M115.382 3.29229C111.282 -0.807363 105.19 0.271455 100.429 2.31674C95.2448 4.54338 89.3267 8.79024 83.259 14.7155C71.0654 26.6228 57.5544 46.0046 47.4221 72.2395C37.6463 97.5515 31.0077 129.255 31.7135 166.857L31.4555 167.176C19.5785 181.842 8.55575 193.979 0 201.837V213.689C8.46747 207.016 19.8914 195.085 32.272 180.335C34.6612 217.78 44.2834 260.614 64.868 308.4L73.1336 304.839C51.0989 253.687 41.9531 208.551 40.791 169.93C55.0135 152.141 70.0677 131.261 83.2573 110.399C97.1467 88.4304 109.09 66.2901 115.764 47.7032C119.095 38.4265 121.206 29.7847 121.473 22.3584C121.739 14.9688 120.189 8.09914 115.382 3.29229ZM75.6502 105.59C64.7825 122.779 52.6177 139.999 40.7267 155.433C41.4097 123.88 47.4586 97.1252 55.8176 75.4819C65.5413 50.3051 78.3829 32.0562 89.5468 21.1545C95.1578 15.6752 100.17 12.223 103.981 10.586C105.891 9.76555 107.272 9.49946 108.148 9.50002C108.565 9.5003 108.802 9.56099 108.909 9.59985C108.962 9.61892 108.989 9.63445 108.999 9.64069C109.008 9.64654 109.013 9.65072 109.018 9.65615C111.33 11.9679 112.7 15.8841 112.479 22.0347C112.259 28.1487 110.475 35.8018 107.293 44.6619C100.943 62.3487 89.3948 83.85 75.6502 105.59Z" fill="#242930"/>
</svg>
