<svg width="1654" height="1216" viewBox="0 0 1654 1216" fill="none"
    xmlns="http://www.w3.org/2000/svg">
    <rect width="1654" height="1216" fill="#FAFCFE"/>
    <rect opacity="0.1" x="134" y="349" width="1386" height="636" fill="#7C7F83"/>
    <rect x="203" y="541" width="261" height="57" fill="#64C254"/>
    <rect opacity="0.3" x="491" y="541" width="193" height="57" fill="#EC0B43"/>
    <rect x="711" y="541" width="329" height="57" fill="#64C254"/>
    <rect x="1067" y="541" width="261" height="57" fill="#64C254"/>
    <rect x="203" y="625" width="207" height="57" fill="#64C254"/>
    <rect opacity="0.3" x="203" y="753" width="40" height="40" fill="#EC0B43"/>
    <rect opacity="0.3" x="203" y="820" width="40" height="40" fill="#EC0B43"/>
    <rect opacity="0.3" x="203" y="887" width="40" height="40" fill="#EC0B43"/>
    <rect x="528" y="753" width="40" height="40" fill="#64C254"/>
    <rect opacity="0.3" x="528" y="820" width="40" height="40" fill="#EC0B43"/>
    <rect opacity="0.3" x="528" y="887" width="40" height="40" fill="#EC0B43"/>
    <rect x="853" y="753" width="40" height="40" fill="#64C254"/>
    <rect opacity="0.3" x="853" y="820" width="40" height="40" fill="#EC0B43"/>
    <rect x="853" y="887" width="40" height="40" fill="#64C254"/>
    <rect x="1178" y="753" width="40" height="40" fill="#64C254"/>
    <rect x="1178" y="820" width="40" height="40" fill="#64C254"/>
    <rect opacity="0.3" x="1178" y="887" width="40" height="40" fill="#EC0B43"/>
    <rect x="437" y="625" width="261" height="57" fill="#64C254"/>
    <rect opacity="0.3" x="725" y="625" width="177" height="57" fill="#EC0B43"/>
    <rect x="929" y="625" width="303" height="57" fill="#64C254"/>
    <path d="M440 237C440 233.686 442.686 231 446 231H1213V466H446C442.686 466 440 463.314 440 460V237Z" fill="#242930"/>
    <rect x="491" y="286" width="336" height="27" fill="#FAFCFE"/>
    <rect x="491" y="349" width="211" height="27" fill="#FAFCFE"/>
    <rect opacity="0.3" x="266" y="762" width="147" height="21" fill="#242930"/>
    <rect opacity="0.3" x="266" y="829" width="147" height="21" fill="#242930"/>
    <rect opacity="0.3" x="266" y="896" width="147" height="21" fill="#242930"/>
    <rect x="591" y="762" width="147" height="21" fill="#242930"/>
    <rect opacity="0.3" x="591" y="829" width="147" height="21" fill="#242930"/>
    <rect opacity="0.3" x="591" y="896" width="147" height="21" fill="#242930"/>
    <rect x="916" y="762" width="147" height="21" fill="#242930"/>
    <rect opacity="0.3" x="916" y="829" width="147" height="21" fill="#242930"/>
    <rect x="916" y="896" width="147" height="21" fill="#242930"/>
    <rect x="1241" y="762" width="147" height="21" fill="#242930"/>
    <rect x="1241" y="829" width="147" height="21" fill="#242930"/>
    <rect opacity="0.3" x="1241" y="896" width="147" height="21" fill="#242930"/>
    <rect x="1045" y="299" width="100" height="100" fill="#FAFCFE"/>
</svg>
