<svg width="25" height="24" viewBox="0 0 25 24" fill="none" xmlns="http://www.w3.org/2000/svg">
<mask id="mask0_427_889" style="mask-type:alpha" maskUnits="userSpaceOnUse" x="0" y="0" width="25" height="24">
<rect x="0.0595703" width="24.0795" height="24" fill="#D9D9D9"/>
</mask>
<g mask="url(#mask0_427_889)">
<path d="M7.08237 22C6.53055 22 6.05815 21.8042 5.66519 21.4125C5.27223 21.0208 5.07575 20.55 5.07575 20C5.07575 19.45 5.27223 18.9792 5.66519 18.5875C6.05815 18.1958 6.53055 18 7.08237 18C7.63419 18 8.10658 18.1958 8.49954 18.5875C8.89251 18.9792 9.08899 19.45 9.08899 20C9.08899 20.55 8.89251 21.0208 8.49954 21.4125C8.10658 21.8042 7.63419 22 7.08237 22ZM17.1155 22C16.5637 22 16.0913 21.8042 15.6983 21.4125C15.3053 21.0208 15.1089 20.55 15.1089 20C15.1089 19.45 15.3053 18.9792 15.6983 18.5875C16.0913 18.1958 16.5637 18 17.1155 18C17.6673 18 18.1397 18.1958 18.5327 18.5875C18.9256 18.9792 19.1221 19.45 19.1221 20C19.1221 20.55 18.9256 21.0208 18.5327 21.4125C18.1397 21.8042 17.6673 22 17.1155 22ZM5.27641 4H20.0752C20.4599 4 20.7525 4.17083 20.9531 4.5125C21.1538 4.85417 21.1622 5.2 20.9782 5.55L17.4165 11.95C17.2325 12.2833 16.9859 12.5417 16.6765 12.725C16.3672 12.9083 16.0286 13 15.6607 13H8.18601L7.08237 15H19.1221V17H7.08237C6.32988 17 5.76134 16.6708 5.37674 16.0125C4.99214 15.3542 4.97541 14.7 5.32657 14.05L6.68104 11.6L3.06912 4H1.0625V2H4.32326L5.27641 4Z" fill="#EC0B43"/>
</g>
</svg>
