<svg width="24" height="24" viewBox="0 0 24 24" fill="none" xmlns="http://www.w3.org/2000/svg">
<mask id="mask0_427_406" style="mask-type:alpha" maskUnits="userSpaceOnUse" x="0" y="0" width="24" height="24">
<rect width="24" height="24" fill="#D9D9D9"/>
</mask>
<g mask="url(#mask0_427_406)">
<path d="M3.97461 21V18H7.07461L4.52461 9.65002C4.07461 9.40002 3.70378 9.03336 3.41211 8.55002C3.12044 8.06669 2.97461 7.55002 2.97461 7.00002C2.97461 6.16669 3.26628 5.45836 3.84961 4.87502C4.43294 4.29169 5.14128 4.00002 5.97461 4.00002C6.62461 4.00002 7.20378 4.18752 7.71211 4.56252C8.22044 4.93752 8.57461 5.41669 8.77461 6.00002H11.9746V5.00002C11.9746 4.71669 12.0704 4.47919 12.2621 4.28752C12.4538 4.09586 12.6913 4.00002 12.9746 4.00002C13.1246 4.00002 13.2704 4.03336 13.4121 4.10002C13.5538 4.16669 13.6746 4.26669 13.7746 4.40002L15.4746 2.80002C15.6246 2.65002 15.8038 2.55419 16.0121 2.51252C16.2204 2.47086 16.4246 2.50002 16.6246 2.60002L20.5246 4.40002C20.7246 4.50002 20.8621 4.64586 20.9371 4.83752C21.0121 5.02919 21.0079 5.21669 20.9246 5.40002C20.8246 5.60002 20.6788 5.72919 20.4871 5.78752C20.2954 5.84586 20.1079 5.83336 19.9246 5.75002L16.3246 4.10002L13.9746 6.30002V7.70002L16.3246 9.85002L19.9246 8.20002C20.1079 8.11669 20.2996 8.10836 20.4996 8.17502C20.6996 8.24169 20.8413 8.36669 20.9246 8.55002C21.0246 8.75002 21.0329 8.94169 20.9496 9.12502C20.8663 9.30836 20.7246 9.45002 20.5246 9.55002L16.6246 11.4C16.4246 11.5 16.2204 11.5292 16.0121 11.4875C15.8038 11.4459 15.6246 11.35 15.4746 11.2L13.7746 9.60002C13.6746 9.70002 13.5538 9.79169 13.4121 9.87502C13.2704 9.95836 13.1246 10 12.9746 10C12.6913 10 12.4538 9.90419 12.2621 9.71252C12.0704 9.52086 11.9746 9.28336 11.9746 9.00002V8.00002H8.77461C8.72461 8.13336 8.67044 8.25836 8.61211 8.37502C8.55378 8.49169 8.47461 8.61669 8.37461 8.75002L13.3746 18H16.9746V21H3.97461ZM5.97461 8.00002C6.25794 8.00002 6.49544 7.90419 6.68711 7.71252C6.87878 7.52086 6.97461 7.28336 6.97461 7.00002C6.97461 6.71669 6.87878 6.47919 6.68711 6.28752C6.49544 6.09586 6.25794 6.00002 5.97461 6.00002C5.69128 6.00002 5.45378 6.09586 5.26211 6.28752C5.07044 6.47919 4.97461 6.71669 4.97461 7.00002C4.97461 7.28336 5.07044 7.52086 5.26211 7.71252C5.45378 7.90419 5.69128 8.00002 5.97461 8.00002Z" fill="#EC0B43"/>
</g>
</svg>
