<svg width="20" height="20" viewBox="0 0 20 20" fill="none" xmlns="http://www.w3.org/2000/svg">
<path d="M0 20V16H20V20H17V18H11.5V20H8.5V18H3V20H0ZM4 14C3.71667 14 3.47917 13.9042 3.2875 13.7125C3.09583 13.5208 3 13.2833 3 13V1C3 0.716667 3.09583 0.479167 3.2875 0.2875C3.47917 0.0958333 3.71667 0 4 0H16C16.2833 0 16.5208 0.0958333 16.7125 0.2875C16.9042 0.479167 17 0.716667 17 1V13C17 13.2833 16.9042 13.5208 16.7125 13.7125C16.5208 13.9042 16.2833 14 16 14H4ZM7 6H13V4H7V6Z" fill="#EC0B43"/>
</svg>
