<svg width="1654" height="1216" viewBox="0 0 1654 1216" fill="none"
    xmlns="http://www.w3.org/2000/svg">
    <g clip-path="url(#clip0_417_1920)">
        <rect width="1654" height="1216" fill="#FAFCFE"/>
        <rect opacity="0.1" x="81" y="80" width="458.975" height="403.72" fill="#7C7F83"/>
        <rect opacity="0.3" x="127.344" y="238.636" width="366.289" height="117.64" fill="#7C7F83"/>
        <circle cx="159.873" cy="153.525" r="32.5293" fill="#EC0B43"/>
        <rect x="127.344" y="408.858" width="201.414" height="33.8661" fill="#EC0B43"/>
        <rect opacity="0.1" x="597.013" y="80" width="458.975" height="403.72" fill="#7C7F83"/>
        <rect opacity="0.3" x="643.355" y="238.636" width="366.289" height="117.64" fill="#7C7F83"/>
        <circle cx="675.885" cy="153.525" r="32.5293" fill="#EC0B43"/>
        <rect x="643.355" y="408.858" width="201.414" height="33.8661" fill="#EC0B43"/>
        <rect opacity="0.1" x="1113.03" y="80" width="458.975" height="403.72" fill="#7C7F83"/>
        <rect opacity="0.3" x="1159.37" y="238.636" width="366.289" height="117.64" fill="#7C7F83"/>
        <circle cx="1191.9" cy="153.525" r="32.5293" fill="#EC0B43"/>
        <rect x="1159.37" y="408.858" width="201.414" height="33.8661" fill="#EC0B43"/>
        <rect opacity="0.1" x="81" y="542" width="458.975" height="403.72" fill="#7C7F83"/>
        <rect opacity="0.3" x="127.344" y="700.636" width="366.289" height="117.64" fill="#7C7F83"/>
        <circle cx="159.873" cy="615.525" r="32.5293" fill="#EC0B43"/>
        <rect x="127.344" y="870.858" width="201.414" height="33.8661" fill="#EC0B43"/>
        <rect opacity="0.1" x="597.013" y="542" width="458.975" height="403.72" fill="#7C7F83"/>
        <rect opacity="0.3" x="643.355" y="700.636" width="366.289" height="117.64" fill="#7C7F83"/>
        <circle cx="675.885" cy="615.525" r="32.5293" fill="#EC0B43"/>
        <rect x="643.355" y="870.858" width="201.414" height="33.8661" fill="#EC0B43"/>
        <rect opacity="0.1" x="1113.03" y="542" width="458.975" height="403.72" fill="#7C7F83"/>
        <rect opacity="0.3" x="1159.37" y="700.636" width="366.289" height="117.64" fill="#7C7F83"/>
        <circle cx="1191.9" cy="615.525" r="32.5293" fill="#EC0B43"/>
        <rect x="1159.37" y="870.858" width="201.414" height="33.8661" fill="#EC0B43"/>
        <rect opacity="0.1" x="81" y="1004" width="458.975" height="403.72" fill="#7C7F83"/>
        <rect opacity="0.3" x="127.344" y="1162.64" width="366.289" height="117.64" fill="#7C7F83"/>
        <circle cx="159.873" cy="1077.53" r="32.5293" fill="#EC0B43"/>
        <rect opacity="0.1" x="597.013" y="1004" width="458.975" height="403.72" fill="#7C7F83"/>
        <rect opacity="0.3" x="643.355" y="1162.64" width="366.289" height="117.64" fill="#7C7F83"/>
        <circle cx="675.885" cy="1077.53" r="32.5293" fill="#EC0B43"/>
        <rect opacity="0.1" x="1113.03" y="1004" width="458.975" height="403.72" fill="#7C7F83"/>
        <rect opacity="0.3" x="1159.37" y="1162.64" width="366.289" height="117.64" fill="#7C7F83"/>
        <circle cx="1191.9" cy="1077.53" r="32.5293" fill="#EC0B43"/>
    </g>
    <defs>
        <clipPath id="clip0_417_1920">
            <rect width="1654" height="1216" fill="white"/>
        </clipPath>
    </defs>
</svg>
