<svg width="1654" height="1216" viewBox="0 0 1654 1216" fill="none" xmlns="http://www.w3.org/2000/svg">
<rect width="1654" height="1216" fill="#FAFCFE"/>
<circle cx="250.5" cy="567.5" r="120.5" fill="#EC0B43"/>
<path d="M261.051 523.634V610.242H247.592V544.818L231.207 544.935V536.859L234.016 536.04C238.385 534.714 241.896 533.231 244.549 531.593C247.28 529.954 249.855 527.692 252.274 524.805L253.327 523.634H261.051Z" fill="#FAFCFE"/>
<rect opacity="0.3" x="130" y="769" width="411" height="254" fill="#7C7F83"/>
<circle cx="742.5" cy="567.5" r="120.5" fill="#1A62C6"/>
<path d="M712.543 610V600.52L730.216 584.486C735.834 579.492 740.71 575.162 744.846 571.495C748.981 567.75 752.18 564.2 754.443 560.844C756.783 557.411 757.954 553.666 757.954 549.609C757.954 546.41 757.174 543.679 755.613 541.416C754.053 539.154 752.063 537.437 749.644 536.267C747.225 535.018 744.69 534.394 742.037 534.394C738.838 534.394 736.185 534.94 734.078 536.033C732.05 537.047 730.411 538.373 729.163 540.012C727.992 541.572 727.134 543.211 726.588 544.927C726.042 546.566 725.691 548.048 725.535 549.375C725.379 550.623 725.301 551.404 725.301 551.716H712.192C712.192 550.857 712.348 549.297 712.661 547.034C713.051 544.771 713.792 542.275 714.884 539.544C716.055 536.735 717.732 534.004 719.917 531.351C722.18 528.698 725.105 526.514 728.695 524.797C732.362 523.081 736.926 522.222 742.388 522.222C747.616 522.222 752.453 523.276 756.901 525.382C761.348 527.489 764.898 530.571 767.551 534.628C770.282 538.607 771.647 543.445 771.647 549.141C771.647 554.368 770.321 559.128 767.668 563.419C765.093 567.633 761.582 571.807 757.135 575.942C752.765 580 747.889 584.369 742.505 589.05L732.791 597.828H773.286V610H712.543Z" fill="#FAFCFE"/>
<rect opacity="0.3" x="622" y="769" width="411" height="254" fill="#7C7F83"/>
<circle cx="1231.5" cy="567.5" r="120.5" fill="#F3BE22"/>
<path d="M1231.62 611.17C1225.15 611.17 1219.61 609.922 1215 607.425C1210.4 604.928 1206.89 601.612 1204.47 597.477C1202.05 593.342 1200.84 588.777 1200.84 583.784H1213.72C1213.72 588.621 1215.39 592.483 1218.75 595.37C1222.1 598.257 1226.39 599.701 1231.62 599.701C1234.74 599.701 1237.59 599.116 1240.17 597.945C1242.82 596.775 1244.93 595.058 1246.49 592.796C1248.05 590.533 1248.83 587.802 1248.83 584.603C1248.83 580.468 1247.42 577.152 1244.61 574.655C1241.8 572.158 1237.98 570.91 1233.14 570.91H1221.44V560.259H1233.14C1237.2 560.259 1240.6 559.089 1243.33 556.748C1246.14 554.329 1247.54 551.208 1247.54 547.385C1247.54 544.576 1246.8 542.158 1245.32 540.129C1243.91 538.022 1242 536.423 1239.58 535.33C1237.16 534.16 1234.51 533.575 1231.62 533.575C1226.94 533.575 1223 535.096 1219.8 538.139C1216.68 541.104 1215.12 544.966 1215.12 549.726H1202.48C1202.48 544.81 1203.65 540.285 1205.99 536.15C1208.33 531.936 1211.69 528.581 1216.06 526.085C1220.5 523.51 1225.77 522.222 1231.86 522.222C1236.77 522.222 1241.41 523.198 1245.78 525.148C1250.23 527.021 1253.82 529.752 1256.55 533.341C1259.36 536.93 1260.76 541.221 1260.76 546.215C1260.76 551.052 1259.48 555.071 1256.9 558.27C1254.41 561.469 1251.44 563.731 1248.01 565.058V565.643C1252.06 567.047 1255.46 569.388 1258.19 572.665C1261 575.942 1262.4 580.117 1262.4 585.188C1262.4 590.65 1260.96 595.331 1258.07 599.233C1255.26 603.056 1251.52 606.021 1246.84 608.127C1242.16 610.156 1237.08 611.17 1231.62 611.17Z" fill="#FAFCFE"/>
<rect opacity="0.3" x="1111" y="769" width="411" height="254" fill="#7C7F83"/>
<rect opacity="0.3" x="130" y="193" width="739" height="97" fill="#7C7F83"/>
</svg>
