<svg width="1654" height="1216" viewBox="0 0 1654 1216" fill="none" xmlns="http://www.w3.org/2000/svg">
<rect width="1654" height="1216" fill="#FAFCFE"/>
<rect opacity="0.3" x="249" y="309" width="829" height="97" fill="#7C7F83"/>
<rect opacity="0.3" x="249" y="474" width="1155" height="17" fill="#242930"/>
<path d="M1344 406V369.25H1307V346H1344V309H1367.25V346H1404V369.25H1367.25V406H1344Z" fill="#D4D6D9"/>
<rect opacity="0.3" x="249" y="559" width="829" height="97" fill="#7C7F83"/>
<rect opacity="0.3" x="249" y="724" width="1155" height="17" fill="#242930"/>
<path d="M1344 656V619.25H1307V596H1344V559H1367.25V596H1404V619.25H1367.25V656H1344Z" fill="#D4D6D9"/>
<rect opacity="0.3" x="249" y="809" width="829" height="97" fill="#7C7F83"/>
<path d="M1344 906V869.25H1307V846H1344V809H1367.25V846H1404V869.25H1367.25V906H1344Z" fill="#D4D6D9"/>
</svg>
