<svg style="overflow:hidden;" width="451" height="304" viewBox="0 0 430 280" fill="none" xmlns="http://www.w3.org/2000/svg">
<path d="M22 282.126C26.9332 268.384 39.4765 255.401 48.8421 244.525C61.7872 229.492 76.7586 216.389 91.6536 203.356C140.306 160.785 191.868 122.498 245.798 86.8699C272.655 69.1264 300.296 52.5357 328.759 37.4894C343.124 29.8958 362.194 19.5022 379.215 21.1803C398.551 23.0866 349.298 89.8786 347.39 92.646C334.046 112.001 321.086 131.552 308.712 151.54C299.217 166.879 288.805 182.548 282.38 199.505C280.698 203.943 278.372 211.201 281.361 215.757C284.978 221.274 297.98 215.848 301.973 213.945C314.829 207.82 326.556 198.482 337.933 190.048C368.706 167.233 398.315 142.881 429.049 119.998" stroke="#1A62C6" stroke-opacity="0.1" stroke-width="32" stroke-linecap="round"/>
</svg>
