<svg style="overflow:hidden;" width="901" height="771" viewBox="50 0 871 771" fill="none" xmlns="http://www.w3.org/2000/svg">
<path d="M22 298.988C23.2417 355.486 27.735 412.318 41.7554 467.238C47.4357 489.489 53.8659 512.13 62.9925 533.255C73.3849 557.309 88.0425 580.017 101.927 602.152C147.007 674.017 232.341 770.426 328.703 744.226C366.899 733.841 399.295 700.523 423.859 671.131C460.086 627.784 481.658 578.551 490.698 522.883C498.916 472.273 505.887 412.537 490.863 362.535C481.023 329.789 460.501 296.413 428.633 281.373C375.594 256.341 319.659 271.862 298.905 329.033C286.147 364.18 290.757 408.367 295.942 444.52C303.395 496.486 319.531 554.242 350.434 597.377C382.82 642.582 431.286 683.893 489.628 681.338C552.654 678.578 586.596 629.091 613.84 577.704C669.696 472.353 714.634 360.893 764.805 252.81C815.236 144.165 821.342 126.906 879 22" stroke="#EC0B43" stroke-opacity="0.1" stroke-width="32" stroke-linecap="round"/>
</svg>
