<svg style="overflow:hidden;" width="572" height="433" viewBox="0 0 542 403" fill="none" xmlns="http://www.w3.org/2000/svg">
<path d="M540.519 410.781C557.053 348.13 523.163 274.493 488.402 224.21C462.282 186.425 426.928 155.896 390.955 127.814C347.767 94.0979 300.715 68.3423 249.714 48.3854C190.537 25.229 115.528 5.25952 57.6482 43.3757C39.133 55.5686 22.6157 75.9462 22.0147 99.1289C21.281 127.429 48.2274 154.134 69.6877 168.618C107.767 194.32 153.299 211.919 197.274 224.291C261.587 242.384 334.343 252.973 400.894 243.36C443.321 237.232 487.514 218.127 514.259 183.324C540.484 149.198 545.758 107.048 549.812 65.8386" stroke="#F3BE22" stroke-opacity="0.1" stroke-width="32" stroke-linecap="round"/>
</svg>
