<svg width="1654" height="1216" viewBox="0 0 1654 1216" fill="none" xmlns="http://www.w3.org/2000/svg">
<g clip-path="url(#clip0_306_1714)">
<rect width="1654" height="1216" fill="#FAFCFE"/>
<rect x="827" width="827" height="608" fill="#F3BE22" fill-opacity="0.1"/>
<path d="M0 8.8479C0 3.96133 3.96135 0 8.84793 0H827V1216H8.8479C3.96133 1216 0 1212.04 0 1207.15V8.8479Z" fill="#EC0B43" fill-opacity="0.1"/>
<path d="M827 608H1645.15C1650.04 608 1654 611.961 1654 616.848V1207.15C1654 1212.04 1650.04 1216 1645.15 1216H827V608Z" fill="#1A62C6" fill-opacity="0.1"/>
<rect x="976" y="981" width="237" height="69" fill="#1A62C6"/>
<rect x="976" y="373" width="237" height="69" fill="#F3BE22"/>
<rect x="130" y="677" width="237" height="69" fill="#EC0B43"/>
<rect opacity="0.3" x="130" y="470" width="530" height="97" fill="#7C7F83"/>
<rect opacity="0.3" x="976" y="166" width="530" height="97" fill="#7C7F83"/>
<rect opacity="0.3" x="976" y="774" width="530" height="97" fill="#7C7F83"/>
</g>
<defs>
<clipPath id="clip0_306_1714">
<rect width="1654" height="1216" fill="white"/>
</clipPath>
</defs>
</svg>
