<svg width="1654" height="1216" viewBox="0 0 1654 1216" fill="none" xmlns="http://www.w3.org/2000/svg">
<g clip-path="url(#clip0_436_1886)">
<rect width="1654" height="1216" fill="#FAFCFE"/>
<rect opacity="0.1" x="81" y="293" width="458.975" height="403.72" fill="#7C7F83"/>
<rect opacity="0.3" x="127.344" y="451.636" width="366.289" height="117.64" fill="#7C7F83"/>
<circle cx="159.873" cy="366.525" r="32.5293" fill="#EC0B43"/>
<rect x="127.344" y="621.858" width="201.414" height="33.8661" fill="#EC0B43"/>
<rect opacity="0.1" x="597.012" y="293" width="458.975" height="403.72" fill="#7C7F83"/>
<rect opacity="0.3" x="643.355" y="451.636" width="366.289" height="117.64" fill="#7C7F83"/>
<circle cx="675.885" cy="366.525" r="32.5293" fill="#EC0B43"/>
<rect x="643.355" y="621.858" width="201.414" height="33.8661" fill="#EC0B43"/>
<rect opacity="0.1" x="1113.03" y="293" width="458.975" height="403.72" fill="#7C7F83"/>
<rect opacity="0.3" x="1159.37" y="451.636" width="366.289" height="117.64" fill="#7C7F83"/>
<circle cx="1191.9" cy="366.525" r="32.5293" fill="#EC0B43"/>
<rect x="1159.37" y="621.858" width="201.414" height="33.8661" fill="#EC0B43"/>
<rect opacity="0.1" x="1629" y="293" width="458.975" height="403.72" fill="#7C7F83"/>
<circle cx="113.529" cy="805.529" r="32.5293" fill="#EC0B43" fill-opacity="0.1"/>
<circle cx="205.529" cy="805.529" r="32.5293" fill="#EC0B43" fill-opacity="0.1"/>
<rect x="81" y="897" width="1573" height="25" fill="#EC0B43" fill-opacity="0.1"/>
<rect x="81" y="897" width="248" height="25" fill="#EC0B43"/>
</g>
<defs>
<clipPath id="clip0_436_1886">
<rect width="1654" height="1216" fill="white"/>
</clipPath>
</defs>
</svg>
