<svg width="250" height="250" viewBox="0 0 250 250" fill="none" xmlns="http://www.w3.org/2000/svg">
<rect width="250" height="250" fill="#242930"/>
<path d="M114.012 126.774C113.653 126.639 113.344 126.396 113.126 126.077C112.907 125.759 112.79 125.38 112.79 124.992C112.79 124.603 112.907 124.225 113.126 123.906C113.344 123.587 113.653 123.344 114.012 123.209C124.759 119.253 143.601 106.649 144.166 66.8969C144.171 66.6497 144.127 66.4042 144.037 66.1745C143.947 65.9448 143.812 65.7356 143.642 65.559C143.472 65.3825 143.268 65.2422 143.044 65.1462C142.82 65.0502 142.579 65.0005 142.335 65H117.854C117.383 65.0004 116.932 65.1841 116.591 65.513C116.25 65.842 116.047 66.2912 116.023 66.7679C115.609 74.9837 111.042 109.644 63.8189 123.205C63.4538 123.304 63.1293 123.519 62.8928 123.818C62.6563 124.117 62.5201 124.486 62.5041 124.869H62.5C62.5 124.915 62.5 124.956 62.5 124.998C62.5 125.04 62.5 125.085 62.5 125.131C62.516 125.514 62.6522 125.883 62.8887 126.182C63.1252 126.481 63.4497 126.696 63.8148 126.795C111.038 140.356 115.605 175 116.019 183.232C116.043 183.709 116.246 184.158 116.587 184.487C116.927 184.816 117.379 185 117.849 185H142.331C142.575 184.999 142.816 184.95 143.04 184.854C143.264 184.758 143.468 184.618 143.638 184.441C143.808 184.264 143.942 184.055 144.032 183.826C144.123 183.596 144.167 183.35 144.162 183.103C143.601 143.331 124.759 130.726 114.012 126.774Z" fill="#FAFCFE"/>
<path d="M162.083 141.667C171.979 141.667 180 134.205 180 125C180 115.795 171.979 108.333 162.083 108.333C152.188 108.333 144.167 115.795 144.167 125C144.167 134.205 152.188 141.667 162.083 141.667Z" fill="#EC0B43"/>
</svg>
