<svg width="139" height="180" viewBox="0 0 139 180" fill="none" xmlns="http://www.w3.org/2000/svg">
<path d="M0 6.00001C0 2.6863 2.68629 0 6 0H133C136.314 0 139 2.68629 139 6V174C139 177.314 136.314 180 133 180H6C2.68629 180 0 177.314 0 174V6.00001Z" fill="#FAFCFE"/>
<path d="M31.7382 34.16C30.7889 34.16 29.9569 33.9893 29.2422 33.648C28.5382 33.296 27.9462 32.832 27.4662 32.256C26.9969 31.6693 26.6395 31.0187 26.3942 30.304C26.1595 29.5787 26.0422 28.8373 26.0422 28.08C26.0422 27.3227 26.1595 26.5813 26.3942 25.856C26.6395 25.1307 26.9969 24.48 27.4662 23.904C27.9462 23.3173 28.5382 22.8533 29.2422 22.512C29.9569 22.1707 30.7889 22 31.7382 22C32.5169 22 33.1835 22.1013 33.7382 22.304C34.3035 22.5067 34.7729 22.768 35.1462 23.088C35.5302 23.3973 35.8342 23.728 36.0582 24.08C36.2929 24.432 36.4635 24.768 36.5702 25.088C36.6875 25.408 36.7675 25.6693 36.8102 25.872C36.8529 26.064 36.8742 26.16 36.8742 26.16H35.0022C35.0022 26.16 34.9809 26.08 34.9382 25.92C34.9062 25.7493 34.8262 25.5413 34.6982 25.296C34.5809 25.0507 34.3995 24.8107 34.1542 24.576C33.9195 24.3307 33.6049 24.128 33.2102 23.968C32.8262 23.7973 32.3409 23.712 31.7542 23.712C31.1249 23.712 30.5702 23.8347 30.0902 24.08C29.6209 24.3253 29.2262 24.656 28.9062 25.072C28.5862 25.488 28.3462 25.9573 28.1862 26.48C28.0369 27.0027 27.9622 27.536 27.9622 28.08C27.9622 28.624 28.0369 29.1573 28.1862 29.68C28.3462 30.192 28.5862 30.6613 28.9062 31.088C29.2262 31.504 29.6209 31.8347 30.0902 32.08C30.5702 32.3253 31.1249 32.448 31.7542 32.448C32.3409 32.448 32.8262 32.368 33.2102 32.208C33.6049 32.0373 33.9195 31.8293 34.1542 31.584C34.3995 31.3387 34.5809 31.0933 34.6982 30.848C34.8262 30.6027 34.9062 30.4 34.9382 30.24C34.9809 30.0693 35.0022 29.984 35.0022 29.984H36.8742C36.8742 29.984 36.8529 30.0853 36.8102 30.288C36.7675 30.4907 36.6875 30.752 36.5702 31.072C36.4635 31.3813 36.2929 31.7173 36.0582 32.08C35.8342 32.432 35.5302 32.768 35.1462 33.088C34.7729 33.3973 34.3035 33.6533 33.7382 33.856C33.1835 34.0587 32.5169 34.16 31.7382 34.16ZM42.3997 25.36C42.933 25.36 43.3757 25.4453 43.7277 25.616C44.0904 25.7867 44.3784 25.984 44.5917 26.208C44.805 26.432 44.9597 26.624 45.0557 26.784H45.1517V25.52H46.9757V34H45.1517V32.736H45.0557C44.9597 32.896 44.805 33.088 44.5917 33.312C44.3784 33.536 44.0904 33.7333 43.7277 33.904C43.3757 34.0747 42.933 34.16 42.3997 34.16C41.7597 34.16 41.1997 34.0373 40.7197 33.792C40.2504 33.536 39.8557 33.2 39.5357 32.784C39.2157 32.3573 38.9757 31.8827 38.8157 31.36C38.6664 30.8373 38.5917 30.304 38.5917 29.76C38.5917 29.216 38.6664 28.6827 38.8157 28.16C38.9757 27.6373 39.2157 27.168 39.5357 26.752C39.8557 26.3253 40.2504 25.9893 40.7197 25.744C41.1997 25.488 41.7597 25.36 42.3997 25.36ZM42.7997 26.88C42.277 26.88 41.8397 27.024 41.4877 27.312C41.1357 27.5893 40.869 27.9467 40.6877 28.384C40.517 28.8213 40.4317 29.28 40.4317 29.76C40.4317 30.24 40.517 30.6987 40.6877 31.136C40.869 31.5733 41.1357 31.936 41.4877 32.224C41.8397 32.5013 42.277 32.64 42.7997 32.64C43.3224 32.64 43.7544 32.5013 44.0957 32.224C44.4477 31.936 44.709 31.5733 44.8797 31.136C45.061 30.6987 45.1517 30.24 45.1517 29.76C45.1517 29.28 45.061 28.8213 44.8797 28.384C44.709 27.9467 44.4477 27.5893 44.0957 27.312C43.7544 27.024 43.3224 26.88 42.7997 26.88ZM52.5571 34.16C51.8851 34.16 51.3464 34.0373 50.9411 33.792C50.5357 33.5467 50.2424 33.2213 50.0611 32.816C49.8904 32.4 49.8051 31.952 49.8051 31.472V26.992H48.3171V25.52H49.8051V23.408H51.6291V25.52H53.6131V26.992H51.6291V31.44C51.6291 32.24 52.0717 32.64 52.9571 32.64C53.1811 32.64 53.3891 32.624 53.5811 32.592C53.7731 32.56 53.8691 32.544 53.8691 32.544V34.032C53.8691 34.032 53.7357 34.0533 53.4691 34.096C53.2131 34.1387 52.9091 34.16 52.5571 34.16ZM60.1737 24.288L58.7177 24.272L60.0617 21.392H61.8537L60.1737 24.288ZM59.5177 34.16C58.8137 34.16 58.2004 34.0373 57.6777 33.792C57.155 33.536 56.723 33.2 56.3817 32.784C56.051 32.3573 55.8004 31.8827 55.6297 31.36C55.4697 30.8373 55.3897 30.304 55.3897 29.76C55.3897 29.2267 55.4697 28.6987 55.6297 28.176C55.8004 27.6533 56.051 27.1787 56.3817 26.752C56.7124 26.3253 57.1284 25.9893 57.6297 25.744C58.1417 25.488 58.7497 25.36 59.4537 25.36C60.1897 25.36 60.8457 25.5307 61.4217 25.872C61.9977 26.2027 62.4457 26.6987 62.7657 27.36C63.0964 28.0107 63.2617 28.8213 63.2617 29.792V30.288H57.2297C57.2724 30.9387 57.491 31.4987 57.8857 31.968C58.2804 32.4373 58.8244 32.672 59.5177 32.672C59.9124 32.672 60.2377 32.608 60.4937 32.48C60.7497 32.3413 60.947 32.1867 61.0857 32.016C61.235 31.8453 61.3364 31.696 61.3897 31.568C61.443 31.44 61.4697 31.376 61.4697 31.376H63.1657C63.1657 31.376 63.139 31.472 63.0857 31.664C63.0324 31.8453 62.9364 32.0747 62.7977 32.352C62.659 32.6293 62.451 32.9067 62.1737 33.184C61.907 33.4613 61.555 33.696 61.1177 33.888C60.691 34.0693 60.1577 34.16 59.5177 34.16ZM57.2457 29.008H61.4857C61.4537 28.2613 61.235 27.712 60.8297 27.36C60.4244 27.008 59.9604 26.832 59.4377 26.832C58.8297 26.832 58.3284 27.0293 57.9337 27.424C57.539 27.808 57.3097 28.336 57.2457 29.008ZM69.3804 37.376C68.6444 37.376 68.0364 37.28 67.5564 37.088C67.0764 36.896 66.6924 36.656 66.4044 36.368C66.1164 36.0907 65.9031 35.808 65.7644 35.52C65.6258 35.2427 65.5351 35.008 65.4924 34.816C65.4498 34.624 65.4284 34.528 65.4284 34.528H67.2364C67.2364 34.528 67.2578 34.592 67.3004 34.72C67.3431 34.8587 67.4338 35.0133 67.5724 35.184C67.7218 35.3653 67.9404 35.52 68.2284 35.648C68.5164 35.7867 68.8951 35.856 69.3644 35.856C69.9191 35.856 70.3618 35.744 70.6924 35.52C71.0338 35.3067 71.2738 35.0187 71.4124 34.656C71.5618 34.304 71.6364 33.92 71.6364 33.504V32.544H71.5564C71.4391 32.7253 71.2684 32.928 71.0444 33.152C70.8311 33.3653 70.5431 33.552 70.1804 33.712C69.8178 33.872 69.3804 33.952 68.8684 33.952C68.2284 33.952 67.6684 33.8293 67.1884 33.584C66.7191 33.3387 66.3244 33.0133 66.0044 32.608C65.6951 32.192 65.4604 31.728 65.3004 31.216C65.1404 30.704 65.0604 30.1813 65.0604 29.648C65.0604 29.1147 65.1404 28.5973 65.3004 28.096C65.4604 27.584 65.6951 27.1253 66.0044 26.72C66.3244 26.304 66.7191 25.9733 67.1884 25.728C67.6684 25.4827 68.2284 25.36 68.8684 25.36C69.3804 25.36 69.8178 25.44 70.1804 25.6C70.5431 25.7493 70.8364 25.936 71.0604 26.16C71.2844 26.3733 71.4498 26.576 71.5564 26.768H71.6364V25.52H73.4604V33.488C73.4604 34.2453 73.3058 34.9173 72.9964 35.504C72.6871 36.0907 72.2284 36.5493 71.6204 36.88C71.0124 37.2107 70.2658 37.376 69.3804 37.376ZM69.2844 32.448C69.8071 32.448 70.2444 32.3147 70.5964 32.048C70.9484 31.7707 71.2098 31.4187 71.3804 30.992C71.5511 30.5653 71.6364 30.1173 71.6364 29.648C71.6364 29.1787 71.5511 28.7307 71.3804 28.304C71.2098 27.8773 70.9484 27.5307 70.5964 27.264C70.2444 26.9973 69.8071 26.864 69.2844 26.864C68.7511 26.864 68.3084 26.9973 67.9564 27.264C67.6044 27.5307 67.3431 27.8773 67.1724 28.304C67.0018 28.7307 66.9164 29.1787 66.9164 29.648C66.9164 30.1173 67.0018 30.5653 67.1724 30.992C67.3431 31.4187 67.6044 31.7707 67.9564 32.048C68.3084 32.3147 68.7511 32.448 69.2844 32.448ZM79.4574 34.16C78.5294 34.16 77.7454 33.952 77.1054 33.536C76.4761 33.12 75.9961 32.576 75.6654 31.904C75.3454 31.232 75.1854 30.5173 75.1854 29.76C75.1854 29.0027 75.3454 28.288 75.6654 27.616C75.9961 26.944 76.4761 26.4 77.1054 25.984C77.7454 25.568 78.5294 25.36 79.4574 25.36C80.3748 25.36 81.1481 25.568 81.7774 25.984C82.4174 26.4 82.8974 26.944 83.2174 27.616C83.5481 28.288 83.7134 29.0027 83.7134 29.76C83.7134 30.5173 83.5481 31.232 83.2174 31.904C82.8974 32.576 82.4174 33.12 81.7774 33.536C81.1481 33.952 80.3748 34.16 79.4574 34.16ZM79.4574 32.608C79.9801 32.608 80.4174 32.4747 80.7694 32.208C81.1321 31.9413 81.4041 31.5893 81.5854 31.152C81.7774 30.7147 81.8734 30.2507 81.8734 29.76C81.8734 29.2587 81.7774 28.7947 81.5854 28.368C81.4041 27.9307 81.1321 27.5787 80.7694 27.312C80.4174 27.0453 79.9801 26.912 79.4574 26.912C78.9348 26.912 78.4921 27.0453 78.1294 27.312C77.7668 27.5787 77.4948 27.9307 77.3134 28.368C77.1321 28.7947 77.0414 29.2587 77.0414 29.76C77.0414 30.2507 77.1321 30.7147 77.3134 31.152C77.4948 31.5893 77.7668 31.9413 78.1294 32.208C78.4921 32.4747 78.9348 32.608 79.4574 32.608ZM85.6888 34V25.52H87.5128V26.64H87.5768C87.7368 26.3093 87.9875 26.016 88.3288 25.76C88.6808 25.4933 89.1875 25.36 89.8488 25.36C90.0515 25.36 90.2221 25.3707 90.3608 25.392C90.5101 25.4133 90.5848 25.424 90.5848 25.424V27.184C90.5848 27.184 90.5048 27.1733 90.3448 27.152C90.1848 27.1307 90.0035 27.12 89.8008 27.12C89.0541 27.12 88.4835 27.3333 88.0888 27.76C87.7048 28.176 87.5128 28.8533 87.5128 29.792V34H85.6888ZM93.5748 24.064C93.2441 24.064 92.9721 23.952 92.7588 23.728C92.5455 23.504 92.4388 23.2427 92.4388 22.944C92.4388 22.6347 92.5455 22.3733 92.7588 22.16C92.9721 21.936 93.2441 21.824 93.5748 21.824C93.9055 21.824 94.1775 21.936 94.3908 22.16C94.6148 22.3733 94.7268 22.6347 94.7268 22.944C94.7268 23.2533 94.6148 23.52 94.3908 23.744C94.1775 23.9573 93.9055 24.064 93.5748 24.064ZM92.6788 34V25.52H94.5028V34H92.6788ZM100.829 34.16C100.114 34.16 99.4957 34.0373 98.9731 33.792C98.4611 33.536 98.0344 33.2 97.6931 32.784C97.3624 32.3573 97.1117 31.8827 96.9411 31.36C96.7811 30.8373 96.7011 30.304 96.7011 29.76C96.7011 29.2267 96.7811 28.6987 96.9411 28.176C97.1011 27.6533 97.3464 27.1787 97.6771 26.752C98.0077 26.3253 98.4291 25.9893 98.9411 25.744C99.4531 25.488 100.056 25.36 100.749 25.36C101.496 25.36 102.152 25.5307 102.717 25.872C103.293 26.2027 103.741 26.6987 104.061 27.36C104.392 28.0107 104.557 28.8213 104.557 29.792V30.288H98.5411C98.5837 30.9387 98.8024 31.4987 99.1971 31.968C99.5917 32.4373 100.136 32.672 100.829 32.672C101.224 32.672 101.549 32.608 101.805 32.48C102.061 32.3413 102.258 32.1867 102.397 32.016C102.536 31.8453 102.632 31.696 102.685 31.568C102.749 31.44 102.781 31.376 102.781 31.376H104.477C104.477 31.376 104.45 31.472 104.397 31.664C104.344 31.8453 104.242 32.0747 104.093 32.352C103.954 32.6293 103.752 32.9067 103.485 33.184C103.218 33.4613 102.866 33.696 102.429 33.888C101.992 34.0693 101.458 34.16 100.829 34.16ZM98.5571 29.008H102.797C102.754 28.2613 102.53 27.712 102.125 27.36C101.73 27.008 101.266 26.832 100.733 26.832C100.136 26.832 99.6397 27.0293 99.2451 27.424C98.8504 27.808 98.6211 28.336 98.5571 29.008ZM109.797 34.16C109.125 34.16 108.57 34.0693 108.133 33.888C107.706 33.696 107.365 33.4667 107.109 33.2C106.853 32.9227 106.661 32.6453 106.533 32.368C106.415 32.0907 106.341 31.8613 106.309 31.68C106.277 31.488 106.261 31.392 106.261 31.392H108.037C108.037 31.392 108.053 31.4613 108.085 31.6C108.127 31.728 108.207 31.8773 108.325 32.048C108.442 32.2187 108.623 32.3733 108.869 32.512C109.114 32.64 109.439 32.704 109.845 32.704C110.335 32.704 110.698 32.592 110.933 32.368C111.178 32.144 111.301 31.888 111.301 31.6C111.301 31.3227 111.199 31.104 110.997 30.944C110.794 30.784 110.506 30.6613 110.133 30.576L108.981 30.32C108.533 30.2133 108.111 30.0693 107.717 29.888C107.333 29.696 107.018 29.4453 106.773 29.136C106.538 28.816 106.421 28.4053 106.421 27.904C106.421 27.168 106.698 26.56 107.253 26.08C107.807 25.6 108.554 25.36 109.493 25.36C110.101 25.36 110.602 25.4453 110.997 25.616C111.402 25.7867 111.722 26 111.957 26.256C112.191 26.5013 112.367 26.752 112.485 27.008C112.602 27.2533 112.677 27.4613 112.709 27.632C112.751 27.792 112.773 27.872 112.773 27.872H111.061C111.061 27.872 111.045 27.8187 111.013 27.712C110.981 27.6053 110.911 27.4827 110.805 27.344C110.698 27.1947 110.538 27.0667 110.325 26.96C110.122 26.8427 109.845 26.784 109.493 26.784C109.013 26.784 108.666 26.8907 108.453 27.104C108.239 27.3173 108.133 27.5467 108.133 27.792C108.133 28.048 108.234 28.2507 108.437 28.4C108.65 28.5387 108.927 28.6453 109.269 28.72L110.405 28.976C111.162 29.1467 111.786 29.4293 112.277 29.824C112.767 30.208 113.013 30.768 113.013 31.504C113.013 31.9947 112.885 32.4427 112.629 32.848C112.383 33.2427 112.021 33.5627 111.541 33.808C111.061 34.0427 110.479 34.16 109.797 34.16Z" fill="#08142A"/>
<path d="M69.0321 114.584V113.144C68.2428 113.08 67.5975 112.909 67.0961 112.632C66.6055 112.355 66.2215 112.029 65.9441 111.656C65.6668 111.283 65.4695 110.92 65.3521 110.568C65.2455 110.205 65.1761 109.907 65.1441 109.672C65.1228 109.427 65.1121 109.304 65.1121 109.304H66.9521C66.9521 109.304 66.9628 109.405 66.9841 109.608C67.0161 109.8 67.0908 110.035 67.2081 110.312C67.3361 110.589 67.5441 110.851 67.8321 111.096C68.1201 111.331 68.5201 111.491 69.0321 111.576V107.688L68.9521 107.672C68.3015 107.523 67.7095 107.325 67.1761 107.08C66.6535 106.835 66.2321 106.499 65.9121 106.072C65.6028 105.635 65.4481 105.075 65.4481 104.392C65.4481 103.72 65.6135 103.144 65.9441 102.664C66.2748 102.184 66.7121 101.805 67.2561 101.528C67.8001 101.251 68.3921 101.08 69.0321 101.016V99.608H70.2961V101.048C70.9788 101.133 71.5388 101.304 71.9761 101.56C72.4135 101.816 72.7548 102.109 73.0001 102.44C73.2561 102.771 73.4428 103.096 73.5601 103.416C73.6775 103.725 73.7521 103.987 73.7841 104.2C73.8161 104.403 73.8321 104.504 73.8321 104.504H72.0081C72.0081 104.504 71.9921 104.424 71.9601 104.264C71.9388 104.104 71.8748 103.912 71.7681 103.688C71.6615 103.464 71.4908 103.251 71.2561 103.048C71.0215 102.845 70.7015 102.691 70.2961 102.584V106.248L70.4401 106.28C70.8455 106.376 71.2561 106.493 71.6721 106.632C72.0881 106.771 72.4668 106.963 72.8081 107.208C73.1601 107.443 73.4428 107.757 73.6561 108.152C73.8695 108.536 73.9761 109.032 73.9761 109.64C73.9761 110.269 73.8161 110.835 73.4961 111.336C73.1868 111.837 72.7548 112.248 72.2001 112.568C71.6455 112.877 71.0108 113.069 70.2961 113.144V114.584H69.0321ZM67.2401 104.344C67.2401 104.76 67.3841 105.096 67.6721 105.352C67.9601 105.597 68.4135 105.8 69.0321 105.96V102.536C68.4775 102.621 68.0401 102.835 67.7201 103.176C67.4001 103.507 67.2401 103.896 67.2401 104.344ZM72.1681 109.656C72.1681 109.165 72.0028 108.797 71.6721 108.552C71.3415 108.307 70.8828 108.109 70.2961 107.96V111.576C70.8401 111.48 71.2881 111.261 71.6401 110.92C71.9921 110.579 72.1681 110.157 72.1681 109.656Z" fill="#08142A"/>
<path fill-rule="evenodd" clip-rule="evenodd" d="M54.4472 86.1033C58.3656 83.3466 62.9657 81.7188 67.7458 81.3975C72.526 81.0762 77.3026 82.0736 81.5546 84.2811C85.8067 86.4886 89.3709 89.8213 91.8586 93.9157C94.3463 98.0102 95.6619 102.709 95.6619 107.5H122C122 97.8857 119.36 88.456 114.368 80.2394C114.218 79.9916 114.065 79.7451 113.911 79.5C108.943 71.6214 101.966 65.2012 93.6904 60.905C85.4149 56.6087 76.1493 54.5964 66.8474 55.0671C66.5581 55.0817 66.2687 55.0988 65.9793 55.1182C56.3896 55.7629 47.1609 59.0277 39.2992 64.5566C39.2968 64.5583 39.2944 64.56 39.292 64.5617L54.4472 86.1033Z" fill="#1A62C6" fill-opacity="0.6"/>
<path fill-rule="evenodd" clip-rule="evenodd" d="M60.7634 132.159L60.759 132.158C56.2449 130.558 52.2567 127.749 49.2291 124.038C46.2005 120.326 44.2494 115.853 43.5886 111.108C42.9279 106.363 43.5828 101.528 45.482 97.1291C47.3812 92.7307 50.4518 88.9383 54.3588 86.1655L39.115 64.6865C31.2745 70.2509 25.1126 77.8614 21.3014 86.688C21.1864 86.9543 21.0737 87.2213 20.9633 87.4892C17.4132 96.0999 16.2157 105.506 17.5017 114.741C18.7877 123.976 22.5092 132.697 28.2767 140.01C28.4561 140.237 28.6375 140.463 28.8208 140.688C34.8986 148.138 42.9053 153.775 51.9676 156.986L60.7634 132.159Z" fill="#F3BE22" fill-opacity="0.6"/>
<path fill-rule="evenodd" clip-rule="evenodd" d="M95.6602 107.314C95.6905 111.568 94.6827 115.766 92.7241 119.543C90.7656 123.32 87.9154 126.562 84.4206 128.989C80.9258 131.416 76.8919 132.953 72.6685 133.469C68.4452 133.984 64.1599 133.462 60.1841 131.947L50.8057 156.559C58.7842 159.599 67.3838 160.648 75.8591 159.613C77.2002 159.45 78.5318 159.235 79.8511 158.969C86.8692 157.558 93.5393 154.723 99.4428 150.624C105.346 146.525 110.333 141.265 114.108 135.183C114.817 134.039 115.484 132.867 116.106 131.667C120.037 124.088 122.059 115.664 121.998 107.126L95.6602 107.314Z" fill="#EC0B43" fill-opacity="0.6"/>
</svg>
