<svg width="223" height="126" viewBox="0 0 223 126" fill="none" xmlns="http://www.w3.org/2000/svg">
<path d="M0 6C0 2.68629 2.68629 0 6 0H217C220.314 0 223 2.68629 223 6V120C223 123.314 220.314 126 217 126H6C2.68629 126 0 123.314 0 120V6Z" fill="#FAFCFE"/>
<path d="M17.216 29V17.16H19.696L22.912 23.896L26.176 17.16H28.624V29H26.784V19.944L23.792 26.056H22.048L19.056 19.912V29H17.216ZM34.9965 29.16C34.0685 29.16 33.2845 28.952 32.6445 28.536C32.0152 28.12 31.5352 27.576 31.2045 26.904C30.8845 26.232 30.7245 25.5173 30.7245 24.76C30.7245 24.0027 30.8845 23.288 31.2045 22.616C31.5352 21.944 32.0152 21.4 32.6445 20.984C33.2845 20.568 34.0685 20.36 34.9965 20.36C35.9138 20.36 36.6872 20.568 37.3165 20.984C37.9565 21.4 38.4365 21.944 38.7565 22.616C39.0872 23.288 39.2525 24.0027 39.2525 24.76C39.2525 25.5173 39.0872 26.232 38.7565 26.904C38.4365 27.576 37.9565 28.12 37.3165 28.536C36.6872 28.952 35.9138 29.16 34.9965 29.16ZM34.9965 27.608C35.5192 27.608 35.9565 27.4747 36.3085 27.208C36.6712 26.9413 36.9432 26.5893 37.1245 26.152C37.3165 25.7147 37.4125 25.2507 37.4125 24.76C37.4125 24.2587 37.3165 23.7947 37.1245 23.368C36.9432 22.9307 36.6712 22.5787 36.3085 22.312C35.9565 22.0453 35.5192 21.912 34.9965 21.912C34.4738 21.912 34.0312 22.0453 33.6685 22.312C33.3058 22.5787 33.0338 22.9307 32.8525 23.368C32.6712 23.7947 32.5805 24.2587 32.5805 24.76C32.5805 25.2507 32.6712 25.7147 32.8525 26.152C33.0338 26.5893 33.3058 26.9413 33.6685 27.208C34.0312 27.4747 34.4738 27.608 34.9965 27.608ZM41.1446 32.12C40.878 32.12 40.6593 32.1093 40.4886 32.088C40.318 32.0667 40.2326 32.056 40.2326 32.056V30.536C40.2326 30.536 40.318 30.5413 40.4886 30.552C40.6593 30.5733 40.846 30.584 41.0486 30.584C41.6353 30.584 42.1153 30.472 42.4886 30.248C42.8726 30.0347 43.198 29.656 43.4646 29.112L40.2326 20.52H42.0886L44.3766 26.872L46.6646 20.52H48.5526L45.3526 28.904C44.926 30.0027 44.382 30.8133 43.7206 31.336C43.0593 31.8587 42.2006 32.12 41.1446 32.12ZM53.54 29.16C52.8253 29.16 52.2067 29.0373 51.684 28.792C51.172 28.536 50.7453 28.2 50.404 27.784C50.0733 27.3573 49.8227 26.8827 49.652 26.36C49.492 25.8373 49.412 25.304 49.412 24.76C49.412 24.2267 49.492 23.6987 49.652 23.176C49.812 22.6533 50.0573 22.1787 50.388 21.752C50.7187 21.3253 51.14 20.9893 51.652 20.744C52.164 20.488 52.7667 20.36 53.46 20.36C54.2067 20.36 54.8627 20.5307 55.428 20.872C56.004 21.2027 56.452 21.6987 56.772 22.36C57.1027 23.0107 57.268 23.8213 57.268 24.792V25.288H51.252C51.2947 25.9387 51.5133 26.4987 51.908 26.968C52.3027 27.4373 52.8467 27.672 53.54 27.672C53.9347 27.672 54.26 27.608 54.516 27.48C54.772 27.3413 54.9693 27.1867 55.108 27.016C55.2467 26.8453 55.3427 26.696 55.396 26.568C55.46 26.44 55.492 26.376 55.492 26.376H57.188C57.188 26.376 57.1613 26.472 57.108 26.664C57.0547 26.8453 56.9533 27.0747 56.804 27.352C56.6653 27.6293 56.4627 27.9067 56.196 28.184C55.9293 28.4613 55.5773 28.696 55.14 28.888C54.7027 29.0693 54.1693 29.16 53.54 29.16ZM51.268 24.008H55.508C55.4653 23.2613 55.2413 22.712 54.836 22.36C54.4413 22.008 53.9773 21.832 53.444 21.832C52.8467 21.832 52.3507 22.0293 51.956 22.424C51.5613 22.808 51.332 23.336 51.268 24.008ZM59.2122 29V20.52H61.0363V21.752H61.1323C61.2069 21.6027 61.3349 21.4213 61.5163 21.208C61.6976 20.984 61.9483 20.7867 62.2682 20.616C62.5989 20.4453 63.0149 20.36 63.5163 20.36C64.1456 20.36 64.6736 20.504 65.1003 20.792C65.5269 21.08 65.8469 21.464 66.0603 21.944C66.2843 22.424 66.3963 22.952 66.3963 23.528V29H64.5723V23.72C64.5723 23.208 64.4283 22.776 64.1403 22.424C63.8629 22.072 63.4469 21.896 62.8923 21.896C62.4549 21.896 62.0976 22.008 61.8203 22.232C61.5536 22.4453 61.3563 22.728 61.2283 23.08C61.1003 23.4213 61.0363 23.7893 61.0363 24.184V29H59.2122ZM68.5091 29V20.52H70.3331V21.752H70.4291C70.5038 21.6027 70.6318 21.4213 70.8131 21.208C70.9945 20.984 71.2451 20.7867 71.5651 20.616C71.8958 20.4453 72.3118 20.36 72.8131 20.36C73.4425 20.36 73.9705 20.504 74.3971 20.792C74.8238 21.08 75.1438 21.464 75.3571 21.944C75.5811 22.424 75.6931 22.952 75.6931 23.528V29H73.8691V23.72C73.8691 23.208 73.7251 22.776 73.4371 22.424C73.1598 22.072 72.7438 21.896 72.1891 21.896C71.7518 21.896 71.3945 22.008 71.1171 22.232C70.8505 22.4453 70.6531 22.728 70.5251 23.08C70.3971 23.4213 70.3331 23.7893 70.3331 24.184V29H68.5091ZM81.7588 29.16C81.0441 29.16 80.4254 29.0373 79.9028 28.792C79.3908 28.536 78.9641 28.2 78.6228 27.784C78.2921 27.3573 78.0414 26.8827 77.8708 26.36C77.7108 25.8373 77.6308 25.304 77.6308 24.76C77.6308 24.2267 77.7108 23.6987 77.8708 23.176C78.0308 22.6533 78.2761 22.1787 78.6068 21.752C78.9374 21.3253 79.3588 20.9893 79.8708 20.744C80.3828 20.488 80.9854 20.36 81.6788 20.36C82.4254 20.36 83.0814 20.5307 83.6468 20.872C84.2228 21.2027 84.6708 21.6987 84.9908 22.36C85.3214 23.0107 85.4868 23.8213 85.4868 24.792V25.288H79.4708C79.5134 25.9387 79.7321 26.4987 80.1268 26.968C80.5214 27.4373 81.0654 27.672 81.7588 27.672C82.1534 27.672 82.4788 27.608 82.7348 27.48C82.9908 27.3413 83.1881 27.1867 83.3268 27.016C83.4654 26.8453 83.5614 26.696 83.6148 26.568C83.6788 26.44 83.7108 26.376 83.7108 26.376H85.4068C85.4068 26.376 85.3801 26.472 85.3268 26.664C85.2734 26.8453 85.1721 27.0747 85.0228 27.352C84.8841 27.6293 84.6814 27.9067 84.4148 28.184C84.1481 28.4613 83.7961 28.696 83.3588 28.888C82.9214 29.0693 82.3881 29.16 81.7588 29.16ZM79.4868 24.008H83.7268C83.6841 23.2613 83.4601 22.712 83.0548 22.36C82.6601 22.008 82.1961 21.832 81.6628 21.832C81.0654 21.832 80.5694 22.0293 80.1748 22.424C79.7801 22.808 79.5508 23.336 79.4868 24.008Z" fill="#08142A"/>
<path d="M16 88C16 84.6863 18.6863 82 22 82H36C39.3137 82 42 84.6863 42 88V106C42 109.314 39.3137 112 36 112H22C18.6863 112 16 109.314 16 106V88Z" fill="#F3BE22"/>
<path d="M49 76C49 72.6863 51.6863 70 55 70H69C72.3137 70 75 72.6863 75 76V106C75 109.314 72.3137 112 69 112H55C51.6863 112 49 109.314 49 106V76Z" fill="#F3BE22"/>
<path d="M82 82C82 78.6863 84.6863 76 88 76H102C105.314 76 108 78.6863 108 82V106C108 109.314 105.314 112 102 112H88C84.6863 112 82 109.314 82 106V82Z" fill="#F3BE22"/>
<path d="M115 57C115 53.6863 117.686 51 121 51H135C138.314 51 141 53.6863 141 57V106C141 109.314 138.314 112 135 112H121C117.686 112 115 109.314 115 106V57Z" fill="#F3BE22"/>
<path d="M148 88C148 84.6863 150.686 82 154 82H168C171.314 82 174 84.6863 174 88V106C174 109.314 171.314 112 168 112H154C150.686 112 148 109.314 148 106V88Z" fill="#F3BE22"/>
<path d="M181 41C181 37.6863 183.686 35 187 35H201C204.314 35 207 37.6863 207 41V106C207 109.314 204.314 112 201 112H187C183.686 112 181 109.314 181 106V41Z" fill="#F3BE22"/>
</svg>
