<svg width="61" height="60" viewBox="0 0 61 60" fill="none"
    xmlns="http://www.w3.org/2000/svg">
    <ellipse cx="30.0993" cy="30" rx="30.0993" ry="30" fill="#EC0B43"/>
    <mask id="mask0_364_2951" style="mask-type:alpha" maskUnits="userSpaceOnUse" x="18" y="19" width="25" height="24">
        <rect x="18.0596" y="19" width="24.0795" height="24" fill="#D9D9D9"/>
    </mask>
    <g mask="url(#mask0_364_2951)">
        <path d="M25.0829 41C24.531 41 24.0586 40.8042 23.6657 40.4125C23.2727 40.0208 23.0762 39.55 23.0762 39C23.0762 38.45 23.2727 37.9792 23.6657 37.5875C24.0586 37.1958 24.531 37 25.0829 37C25.6347 37 26.1071 37.1958 26.5 37.5875C26.893 37.9792 27.0895 38.45 27.0895 39C27.0895 39.55 26.893 40.0208 26.5 40.4125C26.1071 40.8042 25.6347 41 25.0829 41ZM35.116 41C34.5641 41 34.0918 40.8042 33.6988 40.4125C33.3058 40.0208 33.1093 39.55 33.1093 39C33.1093 38.45 33.3058 37.9792 33.6988 37.5875C34.0918 37.1958 34.5641 37 35.116 37C35.6678 37 36.1402 37.1958 36.5331 37.5875C36.9261 37.9792 37.1226 38.45 37.1226 39C37.1226 39.55 36.9261 40.0208 36.5331 40.4125C36.1402 40.8042 35.6678 41 35.116 41ZM23.2769 23H38.0757C38.4603 23 38.753 23.1708 38.9536 23.5125C39.1543 23.8542 39.1627 24.2 38.9787 24.55L35.417 30.95C35.233 31.2833 34.9864 31.5417 34.677 31.725C34.3677 31.9083 34.029 32 33.6612 32H26.1865L25.0829 34H37.1226V36H25.0829C24.3304 36 23.7618 35.6708 23.3772 35.0125C22.9926 34.3542 22.9759 33.7 23.3271 33.05L24.6815 30.6L21.0696 23H19.063V21H22.3238L23.2769 23Z" fill="#FAFCFE"/>
    </g>
</svg>
