<svg width="472" height="491" viewBox="0 0 472 491" fill="none"
    xmlns="http://www.w3.org/2000/svg">
    <path d="M471.795 121.241H459.814C459.005 150.231 449.523 304.387 339.177 390.888C241.164 467.746 138.624 476.611 78.2907 476.611C67.7206 476.611 58.4589 476.346 50.7261 476.111C45.4631 475.964 40.9058 475.831 37.4951 475.831V417.027C41.9054 417.027 46.8009 417.174 52.5343 417.336C101.871 418.806 204.529 421.746 302.968 344.609C390.189 276.205 399.995 146.982 401.024 121.241H389.263L430.588 65.3765L471.795 121.241Z" fill="#1A62C6"/>
    <path opacity="0.2" d="M471.795 121.24H459.814C459.005 150.231 449.523 304.387 339.177 390.888C241.164 467.746 138.624 476.61 78.2907 476.61C67.7206 476.61 58.4589 476.346 50.7261 476.11C45.4631 475.963 40.9058 475.831 37.4951 475.831V454.191C170.511 452.721 259.879 425.921 331.385 364.514C429.574 280.218 435.381 122.564 435.381 122.564L456.521 116.683L430.559 65.3027L471.795 121.24Z" fill="black"/>
    <path d="M459.724 124.798H400.92C400.335 124.798 399.774 124.566 399.361 124.152C398.947 123.739 398.715 123.178 398.715 122.593C398.715 122.008 398.947 121.447 399.361 121.034C399.774 120.62 400.335 120.388 400.92 120.388H459.724C460.309 120.388 460.87 120.62 461.284 121.034C461.697 121.447 461.93 122.008 461.93 122.593C461.93 123.178 461.697 123.739 461.284 124.152C460.87 124.566 460.309 124.798 459.724 124.798Z" fill="#1A62C6"/>
    <path opacity="0.4" d="M459.724 124.798H400.92C400.335 124.798 399.774 124.566 399.361 124.152C398.947 123.739 398.715 123.178 398.715 122.593C398.715 122.008 398.947 121.447 399.361 121.034C399.774 120.62 400.335 120.388 400.92 120.388H459.724C460.309 120.388 460.87 120.62 461.284 121.034C461.697 121.447 461.93 122.008 461.93 122.593C461.93 123.178 461.697 123.739 461.284 124.152C460.87 124.566 460.309 124.798 459.724 124.798Z" fill="white"/>
    <path d="M129.466 158.552L128.26 161.066C128.26 161.066 122.38 166.285 124.805 169.725L129.598 172.195L135.978 168.681C136.464 168.413 136.885 168.041 137.211 167.591C137.536 167.141 137.758 166.625 137.86 166.079L138.713 161.434C138.882 160.505 138.696 159.548 138.192 158.75C137.689 157.952 136.904 157.373 135.993 157.126L133.802 156.553C132.96 156.333 132.067 156.412 131.276 156.777C130.486 157.141 129.846 157.769 129.466 158.552Z" fill="#E4897B"/>
    <path d="M122.602 172.077L123.954 168.284L130.614 171.71L129.055 175.179L122.602 172.077Z" fill="#1A62C6"/>
    <path opacity="0.7" d="M122.602 172.077L123.954 168.284L130.614 171.71L129.055 175.179L122.602 172.077Z" fill="white"/>
    <path d="M130.055 174.209C127.57 180.53 124.836 186.675 121.807 192.747C120.337 195.775 118.72 198.818 116.971 201.817C116.544 202.567 116.089 203.288 115.618 204.081C115.148 204.875 114.707 205.551 114.148 206.36L113.369 207.521L112.458 208.727L112.002 209.33C111.796 209.58 111.517 209.859 111.267 210.124C110.814 210.613 110.322 211.065 109.797 211.476C108.089 212.814 106.229 213.944 104.254 214.843C102.548 215.643 100.801 216.355 99.0207 216.974C95.6455 218.138 92.2103 219.119 88.7299 219.914C86.0837 220.547 83.4669 221.091 80.8355 221.576C77.8952 222.12 74.955 222.575 71.9413 222.943C70.7211 223.105 69.5009 223.252 68.266 223.384L66.7959 209.903C73.088 209.065 79.6153 208.036 85.9073 206.772C89.024 206.154 92.0965 205.419 95.0073 204.596C96.4774 204.17 97.8593 203.699 99.1383 203.126C100.242 202.721 101.301 202.204 102.299 201.582L102.696 201.318L102.843 201.215L103.166 200.847L103.828 200.097L104.519 199.23C104.989 198.657 105.475 198.054 105.989 197.422C106.504 196.79 106.93 196.172 107.459 195.511C109.326 192.894 111.208 190.204 113.046 187.469C116.75 182.015 122.984 170.607 122.984 170.607L130.055 174.209Z" fill="#263238"/>
    <path opacity="0.3" d="M80.8787 221.59C77.9385 222.134 74.9983 222.59 71.9845 222.958L70.0293 215.328C74.1188 216.46 77.8526 218.616 80.8787 221.59Z" fill="black"/>
    <path d="M22.2207 235.116C27.485 242.855 32.1444 250.989 36.1573 259.446C39.2152 265.694 41.8761 271.795 44.1695 277.381C49.5354 290.495 52.8578 300.815 54.4602 304.137L98.5636 284.129C86.9938 230.911 65.8095 210.3 65.8095 210.3C62.0048 211.239 58.2633 212.417 54.6072 213.828C53.8281 214.122 53.1371 214.446 52.2845 214.784C46.1148 217.694 40.1212 220.963 34.3344 224.575C33.2465 225.236 32.1586 225.927 31.1149 226.633C27.7268 228.98 24.726 231.842 22.2207 235.116Z" fill="#1A62C6"/>
    <path opacity="0.7" d="M22.2207 235.116C27.485 242.855 32.1444 250.989 36.1573 259.446C39.2152 265.694 41.8761 271.795 44.1695 277.381C49.5354 290.495 52.8578 300.815 54.4602 304.137L98.5636 284.129C86.9938 230.911 65.8095 210.3 65.8095 210.3C62.0048 211.239 58.2633 212.417 54.6072 213.828C53.8281 214.122 53.1371 214.446 52.2845 214.784C46.1148 217.694 40.1212 220.963 34.3344 224.575C33.2465 225.236 32.1586 225.927 31.1149 226.633C27.7268 228.98 24.726 231.842 22.2207 235.116Z" fill="white"/>
    <path d="M23.9268 480.271L32.4093 483.108L41.377 464.262L32.8944 461.424L23.9268 480.271Z" fill="#E4897B"/>
    <path d="M175.274 483.05L183.8 480.315L179.905 459.822L171.393 462.542L175.274 483.05Z" fill="#E4897B"/>
    <path d="M86.8333 277.778C86.8333 277.778 88.3034 369.204 85.128 389.962C81.9525 410.72 40.6571 474.508 40.6571 474.508L25.6914 466.996C25.6914 466.996 58.7542 398.621 59.6657 389.742C60.5771 380.862 51.977 308.18 51.977 308.18L86.8333 277.778Z" fill="#263238"/>
    <path opacity="0.1" d="M51.977 308.18C51.977 308.18 52.2857 310.914 52.8149 315.398C53.5059 321.426 54.5497 330.614 55.6082 340.537C57.828 361.119 60.1655 384.89 59.6657 389.727C58.7542 398.548 25.6914 466.996 25.6914 466.996L40.6571 474.494C40.6571 474.494 82.0408 410.706 85.1574 390.006C88.274 369.307 86.8627 277.822 86.8627 277.822L51.977 308.18Z" fill="white"/>
    <path d="M92.5066 273.765C92.5066 273.765 134.14 330.893 147.739 353.327C162.646 377.907 184.065 465.57 184.065 465.57L169.952 473.891C169.952 473.891 145.386 394.505 129.054 370.983C110.795 344.786 65.0449 294.111 65.0449 294.111L92.5066 273.765Z" fill="#263238"/>
    <g opacity="0.1">
        <path d="M92.5076 273.765C92.5076 273.765 134.141 330.893 147.74 353.327C162.647 377.907 184.066 465.57 184.066 465.57L169.953 473.891C169.953 473.891 145.387 394.505 129.055 370.983C110.796 344.786 65.0459 294.111 65.0459 294.111L92.5076 273.765Z" fill="white"/>
    </g>
    <path d="M184.685 478.213H173.777C173.599 478.218 173.428 478.281 173.29 478.392C173.152 478.504 173.054 478.658 173.012 478.831L171.175 486.784C171.132 486.977 171.135 487.178 171.181 487.371C171.228 487.563 171.317 487.743 171.443 487.896C171.569 488.048 171.728 488.171 171.908 488.253C172.089 488.336 172.285 488.376 172.483 488.372C175.982 488.372 178.54 488.092 182.965 488.077C185.685 488.077 193.873 488.342 197.666 488.327C201.459 488.313 201.929 484.608 200.401 484.285C193.52 482.814 188.346 480.727 186.155 478.742C185.748 478.39 185.224 478.201 184.685 478.213Z" fill="#263238"/>
    <path d="M54.9603 226.824C60.221 232.325 65.0016 238.267 69.2498 244.583C69.485 246.597 70.8963 250.993 70.9698 253.095C69.191 251.786 65.7509 248.949 63.8398 247.714C59.7088 239.746 56.1805 231.337 53.2256 227.662L54.9603 226.824Z" fill="#1A62C6"/>
    <path d="M56.0048 229.5L55.7255 224.707L52.1972 224.736L50.5801 227.074L56.0048 229.5Z" fill="#1A62C6"/>
    <path d="M52.0648 224.795C49.4761 226.113 46.6336 226.857 43.7312 226.976C40.8288 227.095 37.9349 226.587 35.2468 225.486C36.7169 221.811 35.0263 216.342 32.5565 211.417C31.2105 208.731 29.6778 206.142 27.9697 203.67L43.6264 208.345C44.1409 211.402 44.9495 214.225 46.8165 215.857C47.5942 216.487 48.5087 216.925 49.4866 217.137C50.4645 217.349 51.4785 217.328 52.4471 217.077C54.4611 218.562 57.2249 222.414 52.0648 224.795Z" fill="#E4897B"/>
    <path d="M52.1972 224.737C52.1972 224.737 51.3593 228.088 50.1832 231.573C45.9934 231.323 35.9231 230.102 34.2178 225.56C34.2491 224.431 34.6757 223.349 35.4233 222.502C40.8585 224.142 46.5223 224.896 52.1972 224.737Z" fill="white"/>
    <path d="M52.1966 224.737C54.5241 225.402 56.7462 226.392 58.7974 227.677C60.4586 224.869 54.3871 217.386 53.0787 216.901C51.1944 216.235 49.1797 216.024 47.1982 216.283C49.8358 218.4 51.6126 221.405 52.1966 224.737Z" fill="white"/>
    <path opacity="0.2" d="M46.8165 215.857C41.7475 215.729 36.8125 214.203 32.5565 211.447C31.2105 208.76 29.6778 206.171 27.9697 203.699L43.6264 208.374C44.1409 211.403 44.9495 214.255 46.8165 215.857Z" fill="black"/>
    <path d="M113.765 299.947L98.5351 304.137L85.0689 288.245L84.4808 309.768L50.5801 320.235C50.9728 311.182 50.2071 302.117 48.3014 293.258C48.2279 292.95 48.1544 292.641 48.0515 292.303C46.3755 286.158 41.1272 274.867 35.6584 263.944C28.3079 249.243 20.6045 235.233 20.6045 235.233C24.0012 231.417 28.017 228.202 32.483 225.721C32.483 225.721 52.1825 238.644 70.9705 253.08C70.9705 253.08 66.5602 221.59 51.6973 215.019C56.4244 212.473 61.5413 210.729 66.8395 209.859C66.8395 209.859 88.8911 234.41 96.1535 274.103L113.765 299.947Z" fill="#263238"/>
    <path opacity="0.1" d="M46.8451 238.394L45.6543 250.346C45.6543 250.346 67.0885 251.419 82.6276 266.076L74.5273 256.888L75.6887 232.175L65.6772 228.809L69.1173 219.665C69.1173 219.665 57.3564 213.784 51.6965 215.019C66.5299 221.59 70.9696 253.08 70.9696 253.08C52.1816 238.644 32.4674 225.721 32.4674 225.721C30.6694 231.189 30.4402 237.051 31.8059 242.642L46.8451 238.394Z" fill="white"/>
    <path d="M45.9938 181.78C48.3166 184.514 50.5071 191.203 45.2147 190.968C39.9223 190.733 42.0098 177.09 45.9938 181.78Z" fill="#263238"/>
    <path d="M25.1016 195.614C28.0419 203.92 29.3209 208.845 34.8338 212.005C43.1105 216.621 52.4751 209.668 52.0194 200.627C51.6665 192.497 46.9181 180.295 37.7005 179.384C35.6574 179.179 33.5959 179.497 31.7091 180.307C29.8224 181.117 28.1721 182.393 26.913 184.015C25.654 185.637 24.8273 187.552 24.5105 189.58C24.1937 191.609 24.3971 193.685 25.1016 195.614Z" fill="#E4897B"/>
    <path d="M28.9094 188.822L25.1018 179.781C25.1018 179.781 15.1639 183.132 17.6778 187.866C13.4586 192.762 19.486 199.995 28.3655 201.097C30.9676 196.305 27.3217 188.925 27.3217 188.925C27.8215 188.881 28.3655 188.851 28.9094 188.822Z" fill="#263238"/>
    <path d="M23.8538 203.596C24.4622 204.504 25.2445 205.282 26.1554 205.885C27.0664 206.488 28.0879 206.904 29.1609 207.11C32.1011 207.639 33.2331 204.993 32.2334 202.391C31.3367 200.068 28.7493 196.981 25.9561 197.613C25.3477 197.768 24.7869 198.07 24.3237 198.494C23.8606 198.917 23.5093 199.449 23.3012 200.041C23.0931 200.633 23.0347 201.268 23.1311 201.888C23.2275 202.508 23.4758 203.095 23.8538 203.596Z" fill="#E4897B"/>
    <path d="M38.5692 194.188C38.775 194.864 39.2895 195.32 39.7452 195.187C40.201 195.055 40.3921 194.393 40.201 193.717C40.0099 193.041 39.4806 192.57 39.0396 192.703C38.5986 192.835 38.378 193.497 38.5692 194.188Z" fill="#263238"/>
    <path d="M46.3463 191.88C46.5374 192.571 47.0666 193.012 47.5076 192.879C47.9487 192.747 48.1692 192.085 47.9634 191.409C47.7576 190.733 47.243 190.277 46.802 190.409C46.361 190.542 46.1404 191.189 46.3463 191.88Z" fill="#263238"/>
    <path d="M43.9941 193.011C45.4193 194.798 47.0868 196.376 48.9484 197.701C48.5627 198.149 48.0874 198.511 47.5531 198.765C47.0189 199.018 46.4375 199.156 45.8465 199.171L43.9941 193.011Z" fill="#DE5753"/>
    <path d="M42.8169 203.023C43.1291 203.008 43.4392 202.963 43.7431 202.891C43.7991 202.88 43.8488 202.848 43.8817 202.801C43.9146 202.755 43.9281 202.697 43.9195 202.641C43.9029 202.589 43.8689 202.545 43.8234 202.515C43.7778 202.486 43.7235 202.473 43.6696 202.479C42.8041 202.687 41.9013 202.685 41.0368 202.473C40.1722 202.261 39.3711 201.844 38.7006 201.259C38.6602 201.223 38.6079 201.203 38.5536 201.203C38.4994 201.203 38.447 201.223 38.4066 201.259C38.3847 201.278 38.3672 201.302 38.3551 201.328C38.3431 201.355 38.3369 201.384 38.3369 201.413C38.3369 201.442 38.3431 201.471 38.3551 201.498C38.3672 201.524 38.3847 201.548 38.4066 201.568C39.0044 202.097 39.7037 202.499 40.462 202.749C41.2202 202.999 42.0215 203.092 42.8169 203.023Z" fill="#263238"/>
    <path d="M34.7315 191.321C34.7958 191.36 34.8695 191.38 34.9447 191.38C35.0198 191.38 35.0935 191.36 35.1578 191.321C35.6014 191.032 36.1062 190.852 36.632 190.793C37.1578 190.734 37.69 190.799 38.1863 190.983C38.2364 191.008 38.2911 191.023 38.3471 191.027C38.4031 191.031 38.4594 191.024 38.5126 191.006C38.5659 190.989 38.6151 190.96 38.6575 190.924C38.6999 190.887 38.7346 190.842 38.7596 190.792C38.8013 190.69 38.8033 190.576 38.7652 190.472C38.7271 190.369 38.6517 190.284 38.5538 190.233C37.9303 189.985 37.2564 189.89 36.5887 189.956C35.921 190.023 35.279 190.249 34.7168 190.615C34.6688 190.642 34.6268 190.679 34.5933 190.723C34.5598 190.767 34.5354 190.817 34.5217 190.871C34.508 190.924 34.5052 190.98 34.5134 191.034C34.5217 191.089 34.5408 191.141 34.5698 191.189C34.6141 191.243 34.6691 191.288 34.7315 191.321Z" fill="#263238"/>
    <path d="M49.095 186.44C49.1242 186.359 49.1242 186.271 49.095 186.19C49.0803 186.082 49.0249 185.984 48.9402 185.916C48.8554 185.848 48.7478 185.814 48.6393 185.823C47.9753 185.884 47.3355 186.102 46.7729 186.46C46.2104 186.818 45.7414 187.305 45.405 187.881C45.3801 187.93 45.3652 187.984 45.3614 188.038C45.3575 188.093 45.3647 188.148 45.3825 188.201C45.4003 188.253 45.4284 188.301 45.4651 188.342C45.5018 188.383 45.5463 188.416 45.5961 188.44C45.6443 188.465 45.6971 188.481 45.7514 188.485C45.8056 188.49 45.8603 188.484 45.9123 188.468C45.9643 188.452 46.0125 188.425 46.0541 188.39C46.0957 188.355 46.1299 188.312 46.1548 188.263C46.423 187.809 46.7969 187.426 47.2448 187.147C47.6927 186.868 48.2013 186.701 48.7275 186.661C48.8034 186.663 48.8784 186.643 48.9436 186.604C49.0087 186.565 49.0613 186.508 49.095 186.44Z" fill="#263238"/>
    <path d="M26.0586 193.982C26.0586 193.982 30.8365 189.571 32.0567 185.161C32.0567 185.161 37.7754 184.338 39.716 185.984C40.0357 185.364 40.1105 184.646 39.9252 183.974C39.74 183.301 39.3085 182.722 38.7163 182.353C38.7163 182.353 42.9061 181.545 44.7878 183.823C45.2974 183.254 45.6075 182.534 45.6712 181.773C45.7348 181.011 45.5486 180.25 45.1407 179.604C45.9184 179.682 46.6649 179.951 47.3137 180.387C47.9625 180.823 48.4937 181.413 48.8601 182.103C48.8601 182.103 49.3746 171.43 34.2472 174.753C35.1494 173.941 36.1771 173.281 37.2903 172.797C37.2903 172.797 25.8234 172.989 19.649 179.898C13.4745 186.808 17.679 193.232 26.0586 193.982Z" fill="#263238"/>
    <path d="M34.6293 478.213H23.7358C23.5583 478.218 23.3872 478.281 23.249 478.392C23.1108 478.504 23.0133 478.658 22.9713 478.83L21.1337 486.784C21.0917 486.976 21.0936 487.175 21.1393 487.367C21.1849 487.558 21.2733 487.737 21.3976 487.89C21.5219 488.042 21.6791 488.165 21.8574 488.248C22.0357 488.332 22.2306 488.374 22.4274 488.371C25.941 488.371 28.499 488.092 32.924 488.077C35.6437 488.077 43.8322 488.342 47.6251 488.327C51.418 488.313 51.8884 484.608 50.3595 484.285C43.4794 482.814 38.3046 480.727 36.1141 478.742C35.7027 478.386 35.173 478.198 34.6293 478.213Z" fill="#263238"/>
    <path d="M8.35813 490.753C6.38818 490.753 4.38883 490.753 2.34537 490.562C2.05578 490.545 1.77246 490.47 1.51157 490.344C1.25068 490.217 1.01732 490.04 0.824833 489.823C0.632351 489.606 0.484507 489.353 0.38974 489.079C0.294973 488.804 0.255146 488.514 0.272521 488.225C0.289896 487.935 0.364137 487.652 0.49101 487.391C0.617882 487.13 0.794896 486.897 1.01195 486.704C1.22901 486.512 1.48185 486.364 1.75605 486.269C2.03024 486.174 2.32041 486.134 2.60999 486.152C23.1915 487.401 39.5686 482.035 51.2854 470.186C74.4102 446.797 73.337 404.34 72.3668 391.873C67.2508 320.955 84.3923 260.166 84.5687 259.564L84.6863 259.27L182.537 42.5458C185.555 35.8606 190.438 30.1881 196.6 26.2089C202.762 22.2297 209.941 20.1127 217.276 20.1119H277.109C286.024 20.0976 294.716 22.8905 301.954 28.0946L429.486 119.506C429.962 119.847 430.282 120.363 430.378 120.941C430.473 121.519 430.334 122.11 429.993 122.586C429.652 123.062 429.136 123.382 428.558 123.477C427.981 123.573 427.389 123.434 426.913 123.093L299.381 31.7257C292.893 27.0593 285.101 24.5544 277.109 24.5663H217.276C210.8 24.5627 204.46 26.4278 199.018 29.9377C193.576 33.4476 189.262 38.4532 186.594 44.354L88.7732 260.916C87.8323 264.297 71.8375 323.146 76.7624 391.565C77.9679 408.133 78.2325 449.252 54.4167 473.288C42.9498 484.887 27.4843 490.753 8.35813 490.753Z" fill="#1A62C6"/>
    <path opacity="0.4" d="M8.35813 490.753C6.38818 490.753 4.38883 490.753 2.34537 490.562C2.05578 490.545 1.77246 490.47 1.51157 490.344C1.25068 490.217 1.01732 490.04 0.824833 489.823C0.632351 489.606 0.484507 489.353 0.38974 489.079C0.294973 488.804 0.255146 488.514 0.272521 488.225C0.289896 487.935 0.364137 487.652 0.49101 487.391C0.617882 487.13 0.794896 486.897 1.01195 486.704C1.22901 486.512 1.48185 486.364 1.75605 486.269C2.03024 486.174 2.32041 486.134 2.60999 486.152C23.1915 487.401 39.5686 482.035 51.2854 470.186C74.4102 446.797 73.337 404.34 72.3668 391.873C67.2508 320.955 84.3923 260.166 84.5687 259.564L84.6863 259.27L182.537 42.5458C185.555 35.8606 190.438 30.1881 196.6 26.2089C202.762 22.2297 209.941 20.1127 217.276 20.1119H277.109C286.024 20.0976 294.716 22.8905 301.954 28.0946L429.486 119.506C429.962 119.847 430.282 120.363 430.378 120.941C430.473 121.519 430.334 122.11 429.993 122.586C429.652 123.062 429.136 123.382 428.558 123.477C427.981 123.573 427.389 123.434 426.913 123.093L299.381 31.7257C292.893 27.0593 285.101 24.5544 277.109 24.5663H217.276C210.8 24.5627 204.46 26.4278 199.018 29.9377C193.576 33.4476 189.262 38.4532 186.594 44.354L88.7732 260.916C87.8323 264.297 71.8375 323.146 76.7624 391.565C77.9679 408.133 78.2325 449.252 54.4167 473.288C42.9498 484.887 27.4843 490.753 8.35813 490.753Z" fill="white"/>
    <path opacity="0.3" d="M83.4946 260.166C83.4946 260.166 64.5743 283.908 48.0503 292.303C46.3743 286.158 41.126 274.867 35.6572 263.944C37.8771 257.726 40.0676 253.08 40.0676 253.08C43.4217 255.955 46.4178 259.222 48.9911 262.812C59.5686 262.008 69.9962 259.828 80.0105 256.329L83.4946 260.166Z" fill="black"/>
    <path d="M85.6871 254.095C85.6871 254.095 77.675 252.624 77.0723 256.726L78.8364 261.769L86.6868 263.753C87.3202 263.917 87.9909 263.855 88.5832 263.577L92.0233 261.96C92.4627 261.752 92.841 261.435 93.1218 261.038C93.4025 260.641 93.5761 260.179 93.6257 259.696L93.9785 256.226C94.028 255.787 93.9733 255.341 93.819 254.927C93.6648 254.512 93.4152 254.139 93.0904 253.839C92.7656 253.539 92.3747 253.319 91.9493 253.197C91.5239 253.075 91.0759 253.056 90.6414 253.139L85.6871 254.095Z" fill="#E4897B"/>
    <path d="M78.5708 264.003L80.8201 262.856L76.6008 256.329L74.3516 257.858L78.5708 264.003Z" fill="#1A62C6"/>
    <path opacity="0.7" d="M78.5708 264.003L80.8201 262.856L76.6008 256.329L74.3516 257.858L78.5708 264.003Z" fill="white"/>
    <path d="M20.5898 235.233C18.1788 239.643 32.5859 277.778 38.2312 282.38C45.3612 288.084 80.7468 265.047 80.7468 265.047L74.4694 256.888C74.4694 256.888 46.5373 266.914 45.3465 266.076C44.1557 265.238 39.3337 251.375 39.3337 251.375C39.3337 251.375 34.4383 243.848 29.2341 239.952C26.6714 237.855 23.7398 236.255 20.5898 235.233Z" fill="#263238"/>
    <path d="M215.173 21.376C209.277 21.376 203.512 23.1245 198.61 26.4005C193.707 29.6765 189.885 34.3328 187.629 39.7806C185.372 45.2283 184.782 51.2229 185.932 57.0062C187.083 62.7895 189.922 68.1019 194.092 72.2714C198.261 76.4409 203.574 79.2804 209.357 80.4308C215.14 81.5812 221.135 80.9908 226.583 78.7342C232.03 76.4777 236.687 72.6564 239.963 67.7535C243.239 62.8507 244.987 57.0864 244.987 51.1898C244.983 43.2839 241.841 35.7029 236.251 30.1126C230.66 24.5222 223.079 21.3799 215.173 21.376ZM197.532 56.4234C196.497 56.4234 195.485 56.1165 194.624 55.5414C193.764 54.9663 193.093 54.1489 192.697 53.1926C192.301 52.2363 192.197 51.184 192.399 50.1688C192.601 49.1536 193.099 48.221 193.831 47.4891C194.563 46.7572 195.496 46.2587 196.511 46.0568C197.526 45.8549 198.578 45.9585 199.535 46.3546C200.491 46.7507 201.308 47.4215 201.883 48.2822C202.459 49.1429 202.766 50.1547 202.766 51.1898C202.766 52.5779 202.214 53.909 201.233 54.8905C200.251 55.872 198.92 56.4234 197.532 56.4234ZM215.173 74.0647C214.138 74.0647 213.126 73.7578 212.266 73.1827C211.405 72.6077 210.734 71.7903 210.338 70.834C209.942 69.8776 209.838 68.8253 210.04 67.8101C210.242 66.7949 210.741 65.8624 211.473 65.1304C212.204 64.3985 213.137 63.9001 214.152 63.6981C215.167 63.4962 216.22 63.5998 217.176 63.9959C218.132 64.3921 218.95 65.0629 219.525 65.9235C220.1 66.7842 220.407 67.796 220.407 68.8312C220.407 70.2192 219.855 71.5504 218.874 72.5319C217.892 73.5134 216.561 74.0647 215.173 74.0647ZM215.173 38.7821C214.138 38.7821 213.126 38.4751 212.266 37.9001C211.405 37.325 210.734 36.5076 210.338 35.5513C209.942 34.595 209.838 33.5427 210.04 32.5275C210.242 31.5123 210.741 30.5797 211.473 29.8478C212.204 29.1159 213.137 28.6174 214.152 28.4155C215.167 28.2135 216.22 28.3172 217.176 28.7133C218.132 29.1094 218.95 29.7802 219.525 30.6409C220.1 31.5015 220.407 32.5134 220.407 33.5485C220.409 34.237 220.275 34.9192 220.013 35.5558C219.751 36.1925 219.365 36.7712 218.879 37.2587C218.393 37.7462 217.815 38.1331 217.179 38.397C216.544 38.6609 215.862 38.7968 215.173 38.7968V38.7821ZM232.815 56.4234C231.779 56.4234 230.768 56.1165 229.907 55.5414C229.046 54.9663 228.375 54.1489 227.979 53.1926C227.583 52.2363 227.48 51.184 227.682 50.1688C227.883 49.1536 228.382 48.221 229.114 47.4891C229.846 46.7572 230.778 46.2587 231.794 46.0568C232.809 45.8549 233.861 45.9585 234.817 46.3546C235.774 46.7507 236.591 47.4215 237.166 48.2822C237.741 49.1429 238.048 50.1547 238.048 51.1898C238.048 51.8783 237.912 52.5601 237.648 53.196C237.384 53.832 236.998 54.4096 236.51 54.8957C236.023 55.3819 235.444 55.7671 234.807 56.0293C234.171 56.2914 233.488 56.4253 232.8 56.4234H232.815Z" fill="#263238"/>
    <path opacity="0.4" d="M215.173 21.376C209.277 21.376 203.512 23.1245 198.61 26.4005C193.707 29.6765 189.885 34.3328 187.629 39.7806C185.372 45.2283 184.782 51.2229 185.932 57.0062C187.083 62.7895 189.922 68.1019 194.092 72.2714C198.261 76.4409 203.574 79.2804 209.357 80.4308C215.14 81.5812 221.135 80.9908 226.583 78.7342C232.03 76.4777 236.687 72.6564 239.963 67.7535C243.239 62.8507 244.987 57.0864 244.987 51.1898C244.983 43.2839 241.841 35.7029 236.251 30.1126C230.66 24.5222 223.079 21.3799 215.173 21.376ZM197.532 56.4234C196.497 56.4234 195.485 56.1165 194.624 55.5414C193.764 54.9663 193.093 54.1489 192.697 53.1926C192.301 52.2363 192.197 51.184 192.399 50.1688C192.601 49.1536 193.099 48.221 193.831 47.4891C194.563 46.7572 195.496 46.2587 196.511 46.0568C197.526 45.8549 198.578 45.9585 199.535 46.3546C200.491 46.7507 201.308 47.4215 201.883 48.2822C202.459 49.1429 202.766 50.1547 202.766 51.1898C202.766 52.5779 202.214 53.909 201.233 54.8905C200.251 55.872 198.92 56.4234 197.532 56.4234ZM215.173 74.0647C214.138 74.0647 213.126 73.7578 212.266 73.1827C211.405 72.6077 210.734 71.7903 210.338 70.834C209.942 69.8776 209.838 68.8253 210.04 67.8101C210.242 66.7949 210.741 65.8624 211.473 65.1304C212.204 64.3985 213.137 63.9001 214.152 63.6981C215.167 63.4962 216.22 63.5998 217.176 63.9959C218.132 64.3921 218.95 65.0629 219.525 65.9235C220.1 66.7842 220.407 67.796 220.407 68.8312C220.407 70.2192 219.855 71.5504 218.874 72.5319C217.892 73.5134 216.561 74.0647 215.173 74.0647ZM215.173 38.7821C214.138 38.7821 213.126 38.4751 212.266 37.9001C211.405 37.325 210.734 36.5076 210.338 35.5513C209.942 34.595 209.838 33.5427 210.04 32.5275C210.242 31.5123 210.741 30.5797 211.473 29.8478C212.204 29.1159 213.137 28.6174 214.152 28.4155C215.167 28.2135 216.22 28.3172 217.176 28.7133C218.132 29.1094 218.95 29.7802 219.525 30.6409C220.1 31.5015 220.407 32.5134 220.407 33.5485C220.409 34.237 220.275 34.9192 220.013 35.5558C219.751 36.1925 219.365 36.7712 218.879 37.2587C218.393 37.7462 217.815 38.1331 217.179 38.397C216.544 38.6609 215.862 38.7968 215.173 38.7968V38.7821ZM232.815 56.4234C231.779 56.4234 230.768 56.1165 229.907 55.5414C229.046 54.9663 228.375 54.1489 227.979 53.1926C227.583 52.2363 227.48 51.184 227.682 50.1688C227.883 49.1536 228.382 48.221 229.114 47.4891C229.846 46.7572 230.778 46.2587 231.794 46.0568C232.809 45.8549 233.861 45.9585 234.817 46.3546C235.774 46.7507 236.591 47.4215 237.166 48.2822C237.741 49.1429 238.048 50.1547 238.048 51.1898C238.048 51.8783 237.912 52.5601 237.648 53.196C237.384 53.832 236.998 54.4096 236.51 54.8957C236.023 55.3819 235.444 55.7671 234.807 56.0293C234.171 56.2914 233.488 56.4253 232.8 56.4234H232.815Z" fill="white"/>
    <path opacity="0.2" d="M215.173 61.0543C220.621 61.0543 225.037 56.6379 225.037 51.1899C225.037 45.7419 220.621 41.3254 215.173 41.3254C209.725 41.3254 205.309 45.7419 205.309 51.1899C205.309 56.6379 209.725 61.0543 215.173 61.0543Z" fill="black"/>
    <g opacity="0.2">
        <path d="M215.174 78.9162C209.69 78.9162 204.329 77.2901 199.77 74.2435C195.21 71.1969 191.656 66.8666 189.558 61.8003C187.459 56.734 186.91 51.1592 187.98 45.7808C189.05 40.4024 191.691 35.4621 195.568 31.5845C199.446 27.7069 204.386 25.0662 209.764 23.9964C215.143 22.9266 220.718 23.4756 225.784 25.5742C230.85 27.6727 235.181 31.2265 238.227 35.786C241.274 40.3456 242.9 45.7062 242.9 51.1899C242.892 58.541 239.968 65.5888 234.77 70.7868C229.572 75.9848 222.525 78.9084 215.174 78.9162ZM215.174 25.2425C210.041 25.2396 205.023 26.7589 200.754 29.6083C196.485 32.4576 193.157 36.5091 191.191 41.2501C189.225 45.9911 188.709 51.2087 189.708 56.243C190.708 61.2773 193.178 65.9021 196.806 69.5323C200.434 73.1626 205.058 75.6353 210.091 76.6377C215.125 77.6401 220.343 77.1271 225.085 75.1637C229.827 73.2002 233.881 69.8744 236.732 65.6071C239.584 61.3397 241.106 56.3225 241.106 51.1899C241.099 44.3132 238.364 37.7201 233.503 32.8561C228.642 27.9921 222.05 25.2541 215.174 25.2425Z" fill="black"/>
    </g>
    <path d="M215.174 59.3933C219.704 59.3933 223.377 55.7206 223.377 51.19C223.377 46.6595 219.704 42.9868 215.174 42.9868C210.643 42.9868 206.971 46.6595 206.971 51.19C206.971 55.7206 210.643 59.3933 215.174 59.3933Z" fill="#263238"/>
    <path d="M277.285 21.376C271.391 21.3847 265.631 23.1407 260.734 26.422C255.837 29.7033 252.022 34.3626 249.772 39.8111C247.523 45.2597 246.939 51.2528 248.094 57.0332C249.249 62.8137 252.092 68.1218 256.263 72.287C260.435 76.4521 265.747 79.2872 271.529 80.434C277.311 81.5808 283.304 80.9879 288.749 78.73C294.194 76.4722 298.848 72.6508 302.122 67.7489C305.396 62.847 307.143 57.0846 307.143 51.1899C307.143 47.2709 306.371 43.3905 304.87 39.7704C303.369 36.1503 301.169 32.8617 298.395 30.0927C295.622 27.3236 292.33 25.1285 288.708 23.6328C285.086 22.1371 281.204 21.3702 277.285 21.376ZM259.644 56.4234C258.609 56.4234 257.597 56.1165 256.736 55.5414C255.876 54.9664 255.205 54.149 254.809 53.1927C254.413 52.2363 254.309 51.1841 254.511 50.1688C254.713 49.1536 255.211 48.2211 255.943 47.4892C256.675 46.7572 257.608 46.2588 258.623 46.0568C259.638 45.8549 260.691 45.9585 261.647 46.3546C262.603 46.7508 263.421 47.4216 263.996 48.2822C264.571 49.1429 264.878 50.1547 264.878 51.1899C264.878 52.5753 264.328 53.9043 263.35 54.8854C262.372 55.8664 261.044 56.4196 259.659 56.4234H259.644ZM277.285 74.0648C276.25 74.0648 275.238 73.7578 274.378 73.1828C273.517 72.6077 272.846 71.7903 272.45 70.834C272.054 69.8777 271.95 68.8254 272.152 67.8102C272.354 66.7949 272.853 65.8624 273.585 65.1305C274.317 64.3985 275.249 63.9001 276.264 63.6982C277.28 63.4962 278.332 63.5998 279.288 63.996C280.245 64.3921 281.062 65.0629 281.637 65.9236C282.212 66.7842 282.519 67.7961 282.519 68.8312C282.515 70.218 281.962 71.547 280.982 72.5276C280.001 73.5083 278.672 74.0609 277.285 74.0648ZM277.285 38.7821C276.25 38.7821 275.238 38.4752 274.378 37.9001C273.517 37.325 272.846 36.5076 272.45 35.5513C272.054 34.595 271.95 33.5427 272.152 32.5275C272.354 31.5123 272.853 30.5798 273.585 29.8478C274.317 29.1159 275.249 28.6174 276.264 28.4155C277.28 28.2136 278.332 28.3172 279.288 28.7133C280.245 29.1094 281.062 29.7802 281.637 30.6409C282.212 31.5016 282.519 32.5134 282.519 33.5485C282.519 34.9379 281.968 36.2706 280.987 37.2544C280.006 38.2383 278.675 38.7929 277.285 38.7968V38.7821ZM294.927 56.4234C293.892 56.4234 292.88 56.1165 292.019 55.5414C291.158 54.9664 290.488 54.149 290.092 53.1927C289.695 52.2363 289.592 51.1841 289.794 50.1688C289.996 49.1536 290.494 48.2211 291.226 47.4892C291.958 46.7572 292.89 46.2588 293.906 46.0568C294.921 45.8549 295.973 45.9585 296.93 46.3546C297.886 46.7508 298.703 47.4216 299.278 48.2822C299.853 49.1429 300.16 50.1547 300.16 51.1899C300.16 52.5779 299.609 53.9091 298.627 54.8906C297.646 55.8721 296.315 56.4234 294.927 56.4234Z" fill="#263238"/>
    <path opacity="0.4" d="M277.285 21.376C271.391 21.3847 265.631 23.1407 260.734 26.422C255.837 29.7033 252.022 34.3626 249.772 39.8111C247.523 45.2597 246.939 51.2528 248.094 57.0332C249.249 62.8137 252.092 68.1218 256.263 72.287C260.435 76.4521 265.747 79.2872 271.529 80.434C277.311 81.5808 283.304 80.9879 288.749 78.73C294.194 76.4722 298.848 72.6508 302.122 67.7489C305.396 62.847 307.143 57.0846 307.143 51.1899C307.143 47.2709 306.371 43.3905 304.87 39.7704C303.369 36.1503 301.169 32.8617 298.395 30.0927C295.622 27.3236 292.33 25.1285 288.708 23.6328C285.086 22.1371 281.204 21.3702 277.285 21.376ZM259.644 56.4234C258.609 56.4234 257.597 56.1165 256.736 55.5414C255.876 54.9664 255.205 54.149 254.809 53.1927C254.413 52.2363 254.309 51.1841 254.511 50.1688C254.713 49.1536 255.211 48.2211 255.943 47.4892C256.675 46.7572 257.608 46.2588 258.623 46.0568C259.638 45.8549 260.691 45.9585 261.647 46.3546C262.603 46.7508 263.421 47.4216 263.996 48.2822C264.571 49.1429 264.878 50.1547 264.878 51.1899C264.878 52.5753 264.328 53.9043 263.35 54.8854C262.372 55.8664 261.044 56.4196 259.659 56.4234H259.644ZM277.285 74.0648C276.25 74.0648 275.238 73.7578 274.378 73.1828C273.517 72.6077 272.846 71.7903 272.45 70.834C272.054 69.8777 271.95 68.8254 272.152 67.8102C272.354 66.7949 272.853 65.8624 273.585 65.1305C274.317 64.3985 275.249 63.9001 276.264 63.6982C277.28 63.4962 278.332 63.5998 279.288 63.996C280.245 64.3921 281.062 65.0629 281.637 65.9236C282.212 66.7842 282.519 67.7961 282.519 68.8312C282.515 70.218 281.962 71.547 280.982 72.5276C280.001 73.5083 278.672 74.0609 277.285 74.0648ZM277.285 38.7821C276.25 38.7821 275.238 38.4752 274.378 37.9001C273.517 37.325 272.846 36.5076 272.45 35.5513C272.054 34.595 271.95 33.5427 272.152 32.5275C272.354 31.5123 272.853 30.5798 273.585 29.8478C274.317 29.1159 275.249 28.6174 276.264 28.4155C277.28 28.2136 278.332 28.3172 279.288 28.7133C280.245 29.1094 281.062 29.7802 281.637 30.6409C282.212 31.5016 282.519 32.5134 282.519 33.5485C282.519 34.9379 281.968 36.2706 280.987 37.2544C280.006 38.2383 278.675 38.7929 277.285 38.7968V38.7821ZM294.927 56.4234C293.892 56.4234 292.88 56.1165 292.019 55.5414C291.158 54.9664 290.488 54.149 290.092 53.1927C289.695 52.2363 289.592 51.1841 289.794 50.1688C289.996 49.1536 290.494 48.2211 291.226 47.4892C291.958 46.7572 292.89 46.2588 293.906 46.0568C294.921 45.8549 295.973 45.9585 296.93 46.3546C297.886 46.7508 298.703 47.4216 299.278 48.2822C299.853 49.1429 300.16 50.1547 300.16 51.1899C300.16 52.5779 299.609 53.9091 298.627 54.8906C297.646 55.8721 296.315 56.4234 294.927 56.4234Z" fill="white"/>
    <path opacity="0.2" d="M287.149 51.1899C287.149 53.1409 286.57 55.0481 285.486 56.6703C284.402 58.2925 282.862 59.5568 281.059 60.3035C279.257 61.0501 277.273 61.2454 275.36 60.8648C273.446 60.4842 271.689 59.5447 270.309 58.1651C268.93 56.7855 267.99 55.0279 267.609 53.1144C267.229 51.2008 267.424 49.2174 268.171 47.4149C268.917 45.6124 270.182 44.0718 271.804 42.9879C273.426 41.904 275.333 41.3255 277.284 41.3255C278.58 41.3235 279.864 41.5773 281.062 42.0724C282.259 42.5674 283.348 43.294 284.264 44.2104C285.18 45.1267 285.907 46.215 286.402 47.4127C286.897 48.6103 287.151 49.8939 287.149 51.1899Z" fill="black"/>
    <g opacity="0.2">
        <path d="M277.286 78.9162C271.803 78.9133 266.444 77.2847 261.886 74.2363C257.328 71.188 253.777 66.8567 251.681 61.7901C249.584 56.7236 249.037 51.1492 250.109 45.7718C251.18 40.3944 253.822 35.4554 257.7 31.5793C261.578 27.7032 266.519 25.0639 271.897 23.9953C277.275 22.9267 282.849 23.4766 287.914 25.5756C292.98 27.6745 297.309 31.2283 300.355 35.7876C303.401 40.3468 305.027 45.7068 305.027 51.1899C305.019 58.5435 302.093 65.5936 296.892 70.792C291.691 75.9904 284.639 78.9123 277.286 78.9162ZM277.286 25.2425C272.154 25.2425 267.137 26.7643 262.87 29.6154C258.603 32.4665 255.277 36.519 253.313 41.2603C251.35 46.0015 250.836 51.2187 251.837 56.252C252.838 61.2853 255.309 65.9087 258.938 69.5375C262.567 73.1664 267.19 75.6376 272.224 76.6388C277.257 77.64 282.474 77.1261 287.215 75.1622C291.957 73.1983 296.009 69.8726 298.86 65.6056C301.711 61.3385 303.233 56.3218 303.233 51.1899C303.229 44.3094 300.494 37.7118 295.629 32.8466C290.764 27.9814 284.166 25.2464 277.286 25.2425Z" fill="black"/>
    </g>
    <path d="M277.285 59.3933C281.816 59.3933 285.488 55.7206 285.488 51.19C285.488 46.6595 281.816 42.9868 277.285 42.9868C272.755 42.9868 269.082 46.6595 269.082 51.19C269.082 55.7206 272.755 59.3933 277.285 59.3933Z" fill="#263238"/>
    <path d="M277.24 36.0331C274.073 36.0399 271.006 34.9242 268.584 32.8841C266.162 30.844 264.541 28.0116 264.009 24.8897L260.289 3.07324H232.166L228.432 24.8897C227.9 28.0116 226.279 30.844 223.857 32.8841C221.435 34.9242 218.368 36.0399 215.201 36.0331C211.221 35.9883 207.381 37.5003 204.5 40.2467C201.619 42.9932 199.925 46.7566 199.78 50.7342C199.745 52.7185 200.105 54.69 200.84 56.5336C201.574 58.3773 202.669 60.0562 204.059 61.4724C205.449 62.8887 207.108 64.014 208.937 64.7828C210.767 65.5515 212.731 65.9482 214.716 65.9499H277.74C279.724 65.9482 281.689 65.5515 283.518 64.7828C285.348 64.014 287.006 62.8887 288.397 61.4724C289.787 60.0562 290.881 58.3773 291.616 56.5336C292.351 54.69 292.711 52.7185 292.676 50.7342C292.53 46.754 290.835 42.9884 287.95 40.2416C285.066 37.4947 281.222 35.9844 277.24 36.0331Z" fill="#263238"/>
    <path opacity="0.2" d="M277.24 36.0331C274.073 36.0399 271.006 34.9242 268.584 32.8841C266.162 30.844 264.541 28.0116 264.009 24.8897L260.289 3.07324H232.166L228.432 24.8897C227.9 28.0116 226.279 30.844 223.857 32.8841C221.435 34.9242 218.368 36.0399 215.201 36.0331C211.221 35.9883 207.381 37.5003 204.5 40.2467C201.619 42.9932 199.925 46.7566 199.78 50.7342C199.745 52.7185 200.105 54.69 200.84 56.5336C201.574 58.3773 202.669 60.0562 204.059 61.4724C205.449 62.8887 207.108 64.014 208.937 64.7828C210.767 65.5515 212.731 65.9482 214.716 65.9499H277.74C279.724 65.9482 281.689 65.5515 283.518 64.7828C285.348 64.014 287.006 62.8887 288.397 61.4724C289.787 60.0562 290.881 58.3773 291.616 56.5336C292.351 54.69 292.711 52.7185 292.676 50.7342C292.53 46.754 290.835 42.9884 287.95 40.2416C285.066 37.4947 281.222 35.9844 277.24 36.0331Z" fill="white"/>
    <path opacity="0.4" d="M215.174 59.3933C219.704 59.3933 223.377 55.7206 223.377 51.19C223.377 46.6595 219.704 42.9868 215.174 42.9868C210.643 42.9868 206.971 46.6595 206.971 51.19C206.971 55.7206 210.643 59.3933 215.174 59.3933Z" fill="white"/>
    <path opacity="0.4" d="M277.285 59.3933C281.816 59.3933 285.488 55.7206 285.488 51.19C285.488 46.6595 281.816 42.9868 277.285 42.9868C272.755 42.9868 269.082 46.6595 269.082 51.19C269.082 55.7206 272.755 59.3933 277.285 59.3933Z" fill="white"/>
    <path d="M223.348 0.941507H269.083V8.29206C269.06 8.94338 268.785 9.56036 268.316 10.0129C267.847 10.4654 267.221 10.7181 266.569 10.7177H225.891C225.229 10.7257 224.591 10.4723 224.115 10.0127C223.639 9.5531 223.363 8.92426 223.348 8.26266V0.912109V0.941507Z" fill="#263238"/>
    <path opacity="0.4" d="M223.348 0.941507H269.083V8.29206C269.06 8.94338 268.785 9.56036 268.316 10.0129C267.847 10.4654 267.221 10.7181 266.569 10.7177H225.891C225.229 10.7257 224.591 10.4723 224.115 10.0127C223.639 9.5531 223.363 8.92426 223.348 8.26266V0.912109V0.941507Z" fill="white"/>
</svg>
