<svg width="208" height="34" viewBox="0 0 208 34" fill="none"
    xmlns="http://www.w3.org/2000/svg">
    <g clip-path="url(#clip0_455_5698)">
        <path d="M11.6312 13.7226C11.5502 13.6926 11.4804 13.6386 11.4312 13.5678C11.3819 13.497 11.3554 13.4128 11.3554 13.3266C11.3554 13.2404 11.3819 13.1562 11.4312 13.0854C11.4804 13.0146 11.5502 12.9606 11.6312 12.9306C14.058 12.0518 18.3124 9.25188 18.4401 0.421379C18.441 0.366473 18.4311 0.31192 18.4108 0.260897C18.3904 0.209874 18.3601 0.163401 18.3217 0.124185C18.2832 0.084969 18.2373 0.0537929 18.1867 0.0324726C18.136 0.0111523 18.0816 0.000113821 18.0266 0H12.4987C12.3926 9.68711e-05 12.2905 0.0408893 12.2136 0.113964C12.1367 0.187038 12.0907 0.286822 12.0853 0.392733C11.9919 2.21779 10.9606 9.91721 0.297809 12.9297C0.215366 12.9517 0.142104 12.9994 0.0887008 13.0659C0.0352975 13.1324 0.00454447 13.2142 0.000924871 13.2993H0C0 13.3095 0 13.3187 0 13.328C0 13.3372 0 13.3474 0 13.3575C0.0036196 13.4427 0.0343727 13.5245 0.087776 13.591C0.14118 13.6575 0.214442 13.7052 0.296885 13.7272C10.9597 16.7397 11.9909 24.4354 12.0844 26.2642C12.0898 26.3701 12.1357 26.4698 12.2127 26.5429C12.2896 26.616 12.3916 26.6568 12.4978 26.6569H18.0257C18.0807 26.6568 18.1351 26.6457 18.1857 26.6244C18.2364 26.6031 18.2823 26.5719 18.3208 26.5327C18.3592 26.4935 18.3895 26.447 18.4099 26.396C18.4302 26.345 18.4401 26.2904 18.4391 26.2355C18.3124 17.4004 14.058 14.6004 11.6312 13.7226Z" fill="#242930"/>
        <path d="M56.8425 26.6476H50.9364V17.454C50.9364 16.6463 50.755 16.0611 50.3927 15.6982C50.2308 15.5268 50.0358 15.3902 49.8192 15.2968C49.6028 15.2034 49.3697 15.1551 49.1339 15.1549C48.6363 15.1549 48.108 15.3723 47.5487 15.8073C46.9888 16.2426 46.5584 16.8225 46.3046 17.4845V26.6467H40.3984V10.3109H45.7146V12.7338C46.2948 11.843 47.1081 11.1653 48.1543 10.7008C49.2008 10.2363 50.4387 10.0034 51.8687 10.0022C52.9876 10.0022 53.8737 10.204 54.5268 10.6075C55.1438 10.975 55.6573 11.4934 56.0185 12.1137C56.3585 12.7088 56.5853 13.3618 56.6873 14.0395C56.7855 14.6561 56.8373 15.2791 56.8425 15.9034V26.6476Z" fill="#242930"/>
        <path d="M63.5256 26.6476L58.0234 10.3108H64.0852L67.0077 22.0198L69.9598 10.3108H75.4619L69.9598 26.6476H63.5256Z" fill="#242930"/>
        <path d="M84.4763 26.9583C83.0466 26.9583 81.7722 26.7355 80.653 26.2901C79.5987 25.8876 78.6405 25.2687 77.8405 24.4734C77.0921 23.7196 76.5055 22.8213 76.1165 21.8333C75.7217 20.8349 75.5216 19.7704 75.5265 18.697C75.5201 17.5539 75.7145 16.4186 76.1009 15.3426C76.4693 14.3111 77.0521 13.3691 77.811 12.5787C78.604 11.7665 79.5564 11.1266 80.6087 10.6991C81.7183 10.2333 83.0084 10.0005 84.4783 10.0005C85.9283 10.0005 87.2135 10.2333 88.3332 10.6991C89.3878 11.1243 90.3445 11.7601 91.1448 12.5676C91.8976 13.3374 92.4807 14.2563 92.8567 15.265C93.241 16.2928 93.4357 17.3817 93.4319 18.4789C93.4319 18.7903 93.4162 19.1054 93.3855 19.427C93.3551 19.7486 93.3181 20.0323 93.2766 20.2809H81.8081C81.8698 21.1501 82.191 21.7763 82.7717 22.1595C83.3319 22.5367 83.9926 22.737 84.6678 22.7343C85.3001 22.7371 85.9237 22.5878 86.4862 22.299C87.0559 22.0101 87.4342 21.6066 87.621 21.0885L92.6255 22.5171C91.9619 23.8207 90.9415 24.8871 89.5642 25.7163C88.1867 26.5455 86.4908 26.9595 84.4763 26.9583ZM87.0883 16.7398C86.9835 15.9531 86.693 15.3321 86.2171 14.8769C85.7409 14.4216 85.1298 14.1936 84.383 14.193C83.6375 14.193 83.0263 14.421 82.549 14.8769C82.0717 15.3327 81.7817 15.9537 81.6786 16.7398H87.0883Z" fill="#242930"/>
        <path d="M106.453 15.3398C105.405 15.3276 104.36 15.4519 103.344 15.7095C102.412 15.9559 101.718 16.3702 101.262 16.9524V26.6478H95.3545V10.311H100.763V13.4168C101.343 12.3196 102.063 11.476 102.924 10.8858C103.737 10.3101 104.709 10.0008 105.706 10.0005C105.954 9.99276 106.204 10.0032 106.451 10.032L106.453 15.3398Z" fill="#242930"/>
        <path d="M114.567 26.6477C113.562 26.6591 112.568 26.4414 111.661 26.011C110.794 25.598 110.026 25.0051 109.407 24.2719C108.767 23.5049 108.277 22.6251 107.961 21.678C107.611 20.636 107.437 19.5429 107.448 18.4437C107.435 17.2915 107.623 16.1458 108.003 15.0579C108.347 14.0734 108.881 13.166 109.575 12.3873C110.246 11.6422 111.065 11.0444 111.98 10.6316C112.948 10.1999 113.998 9.9827 115.058 9.99487C116.239 9.99487 117.275 10.2277 118.166 10.6935C119.052 11.1539 119.786 11.8597 120.28 12.7265V10.3109H125.413V25.1571C125.413 26.4404 125.174 27.5998 124.698 28.6354C124.231 29.656 123.541 30.5586 122.677 31.2755C121.747 32.0323 120.682 32.607 119.538 32.9685C118.314 33.3714 116.958 33.573 115.468 33.5736C113.728 33.5736 112.215 33.3045 110.93 32.766C109.644 32.2279 108.48 31.4354 107.508 30.4364L110.617 27.2068C111.256 27.7908 111.985 28.2679 112.776 28.6197C113.621 29.0035 114.538 29.1996 115.466 29.1943C115.986 29.1967 116.504 29.1237 117.004 28.9774C117.481 28.8396 117.922 28.601 118.299 28.2778C118.688 27.9338 118.992 27.5029 119.185 27.0201C119.402 26.5026 119.511 25.8816 119.511 25.1571V24.1009C119.06 24.9464 118.346 25.6223 117.476 26.0267C116.565 26.4475 115.571 26.6597 114.567 26.6477ZM116.681 21.9931C117.234 22.0066 117.78 21.8613 118.253 21.5745C118.698 21.2948 119.117 20.8753 119.512 20.3159V17.3921C119.254 16.6927 118.806 16.0793 118.217 15.6216C117.65 15.1873 117.055 14.9701 116.432 14.9701C116.025 14.968 115.623 15.0695 115.266 15.2649C114.904 15.4614 114.582 15.7248 114.318 16.0411C114.038 16.3806 113.827 16.771 113.696 17.1907C113.55 17.6472 113.476 18.1241 113.479 18.6036C113.479 19.6182 113.779 20.436 114.38 21.057C114.98 21.678 115.747 21.99 116.681 21.9931Z" fill="#242930"/>
        <path d="M37.7415 15.0033C37.367 13.9929 36.7842 13.0724 36.0311 12.3012C35.2303 11.4966 34.2733 10.8639 33.2187 10.442C32.0998 9.97626 30.8146 9.74341 29.3638 9.74341C27.8921 9.74341 26.6019 9.97626 25.4933 10.442C24.4444 10.8677 23.4928 11.5018 22.6965 12.3059C21.9428 13.0765 21.3602 13.9972 20.9864 15.0079C20.2194 17.0823 20.2194 19.3622 20.9864 21.4367C21.3602 22.4474 21.9428 23.368 22.6965 24.1387C23.4933 24.9421 24.4447 25.5761 25.4933 26.0026C26.6031 26.4683 27.8933 26.7012 29.3638 26.7012C30.814 26.7012 32.0989 26.4683 33.2187 26.0026C34.2733 25.5786 35.2303 24.9444 36.0311 24.1387C36.7842 23.3676 37.367 22.447 37.7415 21.4367C38.5085 19.3622 38.5085 17.0823 37.7415 15.0079V15.0033ZM29.3638 22.0558C28.6039 22.0564 27.8608 21.8317 27.2287 21.4102C26.5965 20.9888 26.1036 20.3895 25.8124 19.6881C25.5212 18.9867 25.4447 18.2148 25.5927 17.47C25.7406 16.7252 26.1063 16.041 26.6435 15.5039C27.1807 14.9668 27.8652 14.6009 28.6106 14.4525C29.3559 14.3042 30.1284 14.3801 30.8308 14.6705C31.5329 14.961 32.1331 15.453 32.5554 16.0843C32.9777 16.7156 33.203 17.4579 33.203 18.2172C33.203 19.2348 32.7987 20.2107 32.0786 20.9305C31.3588 21.6503 30.3824 22.0551 29.3638 22.0558Z" fill="#242930"/>
        <path fill-rule="evenodd" clip-rule="evenodd" d="M136.45 26.9583C134.979 26.9583 133.689 26.7254 132.58 26.2597C131.531 25.8339 130.579 25.1998 129.782 24.3958C129.029 23.6247 128.447 22.7041 128.072 21.6938C127.305 19.6194 127.305 17.3394 128.072 15.265C128.447 14.2563 129.03 13.3374 129.782 12.5676C130.579 11.7636 131.531 11.1296 132.58 10.7037C133.69 10.238 134.98 10.0051 136.45 10.0051C137.9 10.0051 139.185 10.238 140.305 10.7037C141.359 11.1271 142.317 11.7614 143.117 12.5676C143.87 13.3387 144.453 14.2592 144.827 15.2696C145.594 17.344 145.594 19.624 144.827 21.6984C144.452 22.7071 143.87 23.626 143.117 24.3958C142.316 25.2022 141.358 25.8365 140.303 26.2597C139.185 26.7254 137.901 26.9583 136.45 26.9583ZM137.224 14.7183C138.975 15.0761 140.292 16.6238 140.292 18.4789C140.292 20.1267 139.252 21.5319 137.793 22.0762C137.492 22.1884 137.174 22.2641 136.842 22.2977C136.713 22.3108 136.582 22.3175 136.45 22.3175H136.449C136.184 22.3175 135.925 22.2906 135.675 22.2395C133.925 21.8816 132.608 20.3339 132.608 18.4789C132.608 16.8013 133.685 15.3751 135.185 14.8529C135.581 14.7151 136.007 14.6402 136.449 14.6402M136.45 14.6402C136.715 14.6403 136.974 14.6671 137.224 14.7183L136.45 14.6402Z" fill="#242930"/>
        <path fill-rule="evenodd" clip-rule="evenodd" d="M160 0H208V34H160V0ZM170.288 23V10.4538H178.477V12.1831H172.272V15.7605H177.697V17.4729H172.272V21.2707H178.562V23H170.288ZM180.579 23V10.4538H185.241C186.134 10.4538 186.886 10.629 187.496 10.9794C188.118 11.3185 188.587 11.7706 188.903 12.3357C189.22 12.8896 189.378 13.4943 189.378 14.1498C189.378 14.941 189.152 15.6588 188.7 16.303C188.259 16.9473 187.609 17.3994 186.75 17.6594L189.768 23H187.547L184.698 17.8798H182.562V23H180.579ZM185.207 12.1831H182.562V16.2183H185.207C185.919 16.2183 186.456 16.0148 186.818 15.6079C187.179 15.1897 187.36 14.7206 187.36 14.2007C187.36 13.6808 187.179 13.2174 186.818 12.8104C186.456 12.3922 185.919 12.1831 185.207 12.1831ZM191.813 10.4538V23H193.796V18.7106H196.526C197.509 18.7106 198.329 18.5128 198.984 18.1171C199.64 17.7102 200.132 17.1903 200.459 16.5574C200.787 15.9244 200.951 15.2632 200.951 14.5737C200.951 13.8842 200.787 13.2287 200.459 12.607C200.132 11.974 199.64 11.4598 198.984 11.0642C198.329 10.6572 197.509 10.4538 196.526 10.4538H191.813ZM193.796 12.1831H196.526C197.069 12.1831 197.521 12.3018 197.882 12.5392C198.244 12.7652 198.515 13.0648 198.696 13.4378C198.877 13.7994 198.968 14.1837 198.968 14.5907C198.968 14.9863 198.877 15.3705 198.696 15.7435C198.515 16.1052 198.244 16.4048 197.882 16.6421C197.521 16.8682 197.069 16.9812 196.526 16.9812H193.796V12.1831Z" fill="#242930"/>
    </g>
    <defs>
        <clipPath id="clip0_455_5698">
            <rect width="208" height="34" fill="white"/>
        </clipPath>
    </defs>
</svg>
