<svg width="763" height="660" viewBox="0 0 763 660" fill="none"
    xmlns="http://www.w3.org/2000/svg">
    <path fill-rule="evenodd" clip-rule="evenodd" d="M472.988 561.912C475.028 564.844 477.916 567.081 481.265 568.323C521.151 582.764 572.968 609.765 621.273 660H226.96C168.688 624.319 98.0087 592.755 12.2842 568.514C8.87298 567.604 5.8416 565.628 3.63192 562.874C1.42224 560.121 0.149769 556.733 0 553.206V550.794H0.0382685C0.188037 547.267 1.4605 543.879 3.67019 541.126C5.87987 538.372 8.91125 536.396 12.3225 535.486C453.52 410.723 496.189 91.8501 500.054 16.2651C500.28 11.8788 502.18 7.74623 505.363 4.71983C508.546 1.69344 512.769 0.00401193 517.161 0H745.891C748.165 0.00471391 750.416 0.461874 752.512 1.34486C754.608 2.22784 756.507 3.519 758.099 5.14315C759.691 6.7673 760.944 8.69197 761.785 10.8051C762.626 12.9182 763.038 15.1775 762.997 17.4515C757.716 383.168 581.681 499.129 481.265 535.524C477.916 536.766 475.028 539.003 472.988 541.934C470.949 544.866 469.855 548.352 469.855 551.923C469.855 555.495 470.949 558.981 472.988 561.912Z" fill="#1A62C6" fill-opacity="0.1"/>
</svg>
