<svg width="1654" height="1216" viewBox="0 0 1654 1216" fill="none" xmlns="http://www.w3.org/2000/svg">
<rect width="1654" height="1216" fill="#FAFCFE"/>
<path d="M0 0H1654V933C1654 933 1654 933 1440.93 933C1283.12 933 568.588 933 208.609 933C93.1818 933 0 839.428 0 724V0Z" fill="#1A62C6" fill-opacity="0.1"/>
<path fill-rule="evenodd" clip-rule="evenodd" d="M1259.99 834.912C1262.03 837.844 1264.92 840.081 1268.26 841.323C1308.15 855.764 1359.97 882.765 1408.27 933H1013.96C955.688 897.319 885.009 865.755 799.284 841.514C795.873 840.604 792.842 838.628 790.632 835.874C788.422 833.121 787.15 829.733 787 826.206V824.981V823.794H787.038C787.188 820.267 788.461 816.879 790.67 814.126C792.88 811.372 795.911 809.396 799.322 808.486C1240.52 683.723 1283.19 364.85 1287.05 289.265C1287.28 284.879 1289.18 280.746 1292.36 277.72C1295.55 274.693 1299.77 273.004 1304.16 273H1532.89C1535.17 273.005 1537.42 273.462 1539.51 274.345C1541.61 275.228 1543.51 276.519 1545.1 278.143C1546.69 279.767 1547.94 281.692 1548.78 283.805C1549.63 285.918 1550.04 288.178 1550 290.452C1544.72 656.168 1368.68 772.129 1268.26 808.524C1264.92 809.766 1262.03 812.003 1259.99 814.934C1257.95 817.866 1256.86 821.352 1256.86 824.923C1256.86 828.495 1257.95 831.981 1259.99 834.912Z" fill="#1A62C6" fill-opacity="0.1"/>
<rect x="197" y="370" width="530" height="97" fill="#242930"/>
<rect x="197" y="294" width="201.414" height="33.8661" fill="#EC0B43"/>
<rect opacity="0.3" x="197" y="521" width="381" height="118" fill="#7C7F83"/>
</svg>
