<svg width="1654" height="1216" viewBox="0 0 1654 1216" fill="none"
    xmlns="http://www.w3.org/2000/svg">
    <rect width="1654" height="1216" fill="#FAFCFE"/>
    <path d="M144 381C144 377.686 146.686 375 150 375H1503C1506.31 375 1509 377.686 1509 381V834C1509 837.314 1506.31 840 1503 840H150C146.686 840 144 837.314 144 834V381Z" fill="#EC0B43"/>
    <rect x="253" y="518" width="530" height="97" fill="#FAFCFE"/>
    <rect x="253" y="656" width="530" height="42" fill="#FAFCFE"/>
    <path d="M905 307.848C905 302.961 908.961 299 913.848 299H1399V917H913.848C908.961 917 905 913.039 905 908.152V307.848Z" fill="#FAFCFE"/>
    <path d="M905 307.848C905 302.961 908.961 299 913.848 299H1399V917H913.848C908.961 917 905 913.039 905 908.152V307.848Z" fill="#EC0B43" fill-opacity="0.1"/>
</svg>
