<svg width="205" height="34" viewBox="0 0 205 34" fill="none" xmlns="http://www.w3.org/2000/svg">
<g clip-path="url(#clip0_49_553)">
<path d="M11.6312 13.7226C11.5502 13.6926 11.4804 13.6386 11.4312 13.5678C11.3819 13.497 11.3554 13.4128 11.3554 13.3266C11.3554 13.2404 11.3819 13.1562 11.4312 13.0854C11.4804 13.0146 11.5502 12.9606 11.6312 12.9306C14.058 12.0518 18.3124 9.25188 18.4401 0.421379C18.441 0.366473 18.4311 0.31192 18.4108 0.260897C18.3904 0.209874 18.3601 0.163401 18.3217 0.124185C18.2832 0.084969 18.2373 0.0537929 18.1867 0.0324726C18.136 0.0111523 18.0816 0.000113821 18.0266 0H12.4987C12.3926 9.68711e-05 12.2905 0.0408893 12.2136 0.113964C12.1367 0.187038 12.0907 0.286822 12.0853 0.392733C11.9919 2.21779 10.9606 9.91721 0.297809 12.9297C0.215366 12.9517 0.142104 12.9994 0.0887008 13.0659C0.0352975 13.1324 0.00454447 13.2142 0.000924871 13.2993H0C0 13.3095 0 13.3187 0 13.328C0 13.3372 0 13.3474 0 13.3575C0.0036196 13.4427 0.0343727 13.5245 0.087776 13.591C0.14118 13.6575 0.214442 13.7052 0.296885 13.7272C10.9597 16.7397 11.9909 24.4354 12.0844 26.2642C12.0898 26.3701 12.1357 26.4698 12.2127 26.5429C12.2896 26.616 12.3916 26.6568 12.4978 26.6569H18.0257C18.0807 26.6568 18.1351 26.6457 18.1857 26.6244C18.2364 26.6031 18.2823 26.5719 18.3208 26.5327C18.3592 26.4935 18.3895 26.447 18.4099 26.396C18.4302 26.345 18.4401 26.2904 18.4391 26.2355C18.3124 17.4004 14.058 14.6004 11.6312 13.7226Z" fill="#242930"/>
<path d="M56.8425 26.6476H50.9364V17.454C50.9364 16.6463 50.755 16.0611 50.3927 15.6982C50.2308 15.5268 50.0358 15.3902 49.8192 15.2968C49.6028 15.2034 49.3697 15.1551 49.1339 15.1549C48.6363 15.1549 48.108 15.3723 47.5487 15.8073C46.9888 16.2426 46.5584 16.8225 46.3046 17.4845V26.6467H40.3984V10.3109H45.7146V12.7338C46.2948 11.843 47.1081 11.1653 48.1543 10.7008C49.2008 10.2363 50.4387 10.0034 51.8687 10.0022C52.9876 10.0022 53.8737 10.204 54.5268 10.6075C55.1438 10.975 55.6573 11.4934 56.0185 12.1137C56.3585 12.7088 56.5853 13.3618 56.6873 14.0395C56.7855 14.6561 56.8373 15.2791 56.8425 15.9034V26.6476Z" fill="#242930"/>
<path d="M63.5256 26.6476L58.0234 10.3108H64.0852L67.0077 22.0198L69.9598 10.3108H75.4619L69.9598 26.6476H63.5256Z" fill="#242930"/>
<path d="M84.4763 26.9583C83.0466 26.9583 81.7722 26.7355 80.653 26.2901C79.5987 25.8876 78.6405 25.2687 77.8405 24.4734C77.0921 23.7196 76.5055 22.8213 76.1165 21.8333C75.7217 20.8349 75.5216 19.7704 75.5265 18.697C75.5201 17.5539 75.7145 16.4186 76.1009 15.3426C76.4693 14.3111 77.0521 13.3691 77.811 12.5787C78.604 11.7665 79.5564 11.1266 80.6087 10.6991C81.7183 10.2333 83.0084 10.0005 84.4783 10.0005C85.9283 10.0005 87.2135 10.2333 88.3332 10.6991C89.3878 11.1243 90.3445 11.7601 91.1448 12.5676C91.8976 13.3374 92.4807 14.2563 92.8567 15.265C93.241 16.2928 93.4357 17.3817 93.4319 18.4789C93.4319 18.7903 93.4163 19.1054 93.3855 19.427C93.3551 19.7486 93.3181 20.0323 93.2766 20.2809H81.8081C81.8698 21.1501 82.191 21.7763 82.7717 22.1595C83.3319 22.5367 83.9926 22.737 84.6678 22.7343C85.3001 22.7371 85.9237 22.5878 86.4862 22.299C87.0559 22.0101 87.4342 21.6066 87.621 21.0885L92.6255 22.5171C91.9619 23.8207 90.9415 24.8871 89.5642 25.7163C88.1867 26.5455 86.4908 26.9595 84.4763 26.9583ZM87.0883 16.7398C86.9835 15.9531 86.693 15.3321 86.2171 14.8769C85.7409 14.4216 85.1298 14.1936 84.383 14.193C83.6375 14.193 83.0263 14.421 82.549 14.8769C82.0717 15.3327 81.7817 15.9537 81.6786 16.7398H87.0883Z" fill="#242930"/>
<path d="M106.452 15.3398C105.404 15.3276 104.36 15.4519 103.344 15.7095C102.412 15.9559 101.717 16.3702 101.261 16.9524V26.6478H95.354V10.311H100.763V13.4168C101.342 12.3196 102.062 11.476 102.923 10.8858C103.736 10.3101 104.708 10.0008 105.705 10.0005C105.954 9.99276 106.203 10.0032 106.451 10.032L106.452 15.3398Z" fill="#242930"/>
<path d="M114.566 26.6477C113.562 26.6591 112.568 26.4414 111.66 26.011C110.794 25.598 110.025 25.0051 109.406 24.2719C108.767 23.5049 108.277 22.6251 107.961 21.678C107.61 20.636 107.437 19.5429 107.447 18.4437C107.435 17.2915 107.622 16.1458 108.002 15.0579C108.346 14.0734 108.881 13.166 109.575 12.3873C110.246 11.6422 111.065 11.0444 111.979 10.6316C112.947 10.1999 113.997 9.9827 115.057 9.99487C116.239 9.99487 117.275 10.2277 118.166 10.6935C119.052 11.1539 119.785 11.8597 120.279 12.7265V10.3109H125.412V25.1571C125.412 26.4404 125.174 27.5998 124.697 28.6354C124.231 29.656 123.54 30.5586 122.676 31.2755C121.746 32.0323 120.681 32.607 119.538 32.9685C118.313 33.3714 116.957 33.573 115.468 33.5736C113.727 33.5736 112.215 33.3045 110.93 32.766C109.643 32.2279 108.479 31.4354 107.508 30.4364L110.616 27.2068C111.255 27.7908 111.984 28.2679 112.776 28.6197C113.62 29.0035 114.538 29.1996 115.465 29.1943C115.986 29.1967 116.504 29.1237 117.003 28.9774C117.48 28.8396 117.922 28.601 118.298 28.2778C118.688 27.9338 118.992 27.5029 119.184 27.0201C119.401 26.5026 119.51 25.8816 119.511 25.1571V24.1009C119.059 24.9464 118.345 25.6223 117.476 26.0267C116.564 26.4475 115.57 26.6597 114.566 26.6477ZM116.68 21.9931C117.234 22.0066 117.779 21.8613 118.253 21.5745C118.697 21.2948 119.117 20.8753 119.511 20.3159V17.3921C119.254 16.6927 118.805 16.0793 118.217 15.6216C117.649 15.1873 117.054 14.9701 116.432 14.9701C116.024 14.968 115.623 15.0695 115.266 15.2649C114.903 15.4614 114.581 15.7248 114.318 16.0411C114.038 16.3806 113.827 16.771 113.696 17.1907C113.549 17.6472 113.476 18.1241 113.479 18.6036C113.479 19.6182 113.779 20.436 114.38 21.057C114.98 21.678 115.747 21.99 116.68 21.9931Z" fill="#242930"/>
<path d="M136.45 22.3174C138.572 22.3174 140.292 20.5988 140.292 18.4788C140.292 16.3588 138.572 14.6401 136.45 14.6401C134.328 14.6401 132.608 16.3588 132.608 18.4788C132.608 20.5988 134.328 22.3174 136.45 22.3174Z" fill="#EC0B43"/>
<path d="M37.741 15.0033C37.3665 13.9929 36.7837 13.0724 36.0306 12.3012C35.2298 11.4966 34.2728 10.8639 33.2182 10.442C32.0993 9.97626 30.8141 9.74341 29.3633 9.74341C27.8916 9.74341 26.6014 9.97626 25.4928 10.442C24.4439 10.8677 23.4924 11.5018 22.696 12.3059C21.9423 13.0765 21.3597 13.9972 20.9859 15.0079C20.2189 17.0823 20.2189 19.3622 20.9859 21.4367C21.3597 22.4474 21.9423 23.368 22.696 24.1387C23.4929 24.9421 24.4442 25.5761 25.4928 26.0026C26.6026 26.4683 27.8928 26.7012 29.3633 26.7012C30.8135 26.7012 32.0984 26.4683 33.2182 26.0026C34.2728 25.5786 35.2298 24.9444 36.0306 24.1387C36.7837 23.3676 37.3665 22.447 37.741 21.4367C38.508 19.3622 38.508 17.0823 37.741 15.0079V15.0033ZM29.3633 22.0558C28.6034 22.0564 27.8603 21.8317 27.2282 21.4102C26.596 20.9888 26.1031 20.3895 25.8119 19.6881C25.5207 18.9867 25.4443 18.2148 25.5922 17.47C25.7401 16.7252 26.1058 16.041 26.643 15.5039C27.1802 14.9668 27.8647 14.6009 28.6101 14.4525C29.3554 14.3042 30.1279 14.3801 30.8303 14.6705C31.5324 14.961 32.1326 15.453 32.5549 16.0843C32.9772 16.7156 33.2025 17.4579 33.2025 18.2172C33.2025 19.2348 32.7982 20.2107 32.0781 20.9305C31.3584 21.6503 30.382 22.0551 29.3633 22.0558Z" fill="#242930"/>
<path fill-rule="evenodd" clip-rule="evenodd" d="M136.45 26.9583C134.979 26.9583 133.689 26.7254 132.58 26.2597C131.531 25.8339 130.579 25.1998 129.782 24.3958C129.029 23.6247 128.447 22.7041 128.072 21.6938C127.305 19.6194 127.305 17.3394 128.072 15.265C128.447 14.2563 129.03 13.3374 129.782 12.5676C130.579 11.7636 131.531 11.1296 132.58 10.7037C133.69 10.238 134.98 10.0051 136.45 10.0051C137.9 10.0051 139.185 10.238 140.305 10.7037C141.359 11.1271 142.317 11.7614 143.117 12.5676C143.87 13.3387 144.453 14.2592 144.827 15.2696C145.594 17.344 145.594 19.624 144.827 21.6984C144.452 22.7071 143.87 23.626 143.117 24.3958C142.316 25.2022 141.358 25.8365 140.303 26.2597C139.185 26.7254 137.901 26.9583 136.45 26.9583ZM137.224 14.7183C138.975 15.0761 140.292 16.6238 140.292 18.4789C140.292 20.1267 139.252 21.5319 137.793 22.0762C137.492 22.1884 137.174 22.2641 136.842 22.2977C136.713 22.3108 136.582 22.3175 136.45 22.3175H136.449C136.184 22.3175 135.925 22.2906 135.675 22.2395C133.925 21.8816 132.608 20.3339 132.608 18.4789C132.608 16.8013 133.685 15.3751 135.185 14.8529C135.581 14.7151 136.007 14.6402 136.449 14.6402M136.45 14.6402C136.715 14.6403 136.974 14.6671 137.224 14.7183L136.45 14.6402Z" fill="#242930"/>
<path d="M205 0H159.917V33.5996H205V0Z" fill="#EC0B43"/>
<path d="M169.287 23.0962V10.55H174.441C175.243 10.55 175.927 10.6969 176.492 10.9908C177.069 11.2734 177.504 11.652 177.798 12.1267C178.103 12.6015 178.255 13.1214 178.255 13.6865C178.255 14.2856 178.142 14.7773 177.916 15.1616C177.702 15.5346 177.453 15.8228 177.17 16.0262C176.888 16.2297 176.645 16.371 176.441 16.4501V16.5518C176.724 16.6309 177.046 16.7835 177.408 17.0096C177.769 17.2243 178.08 17.5408 178.34 17.959C178.611 18.3659 178.747 18.8972 178.747 19.5527C178.747 20.1405 178.606 20.7056 178.323 21.2482C178.041 21.7907 177.589 22.2372 176.967 22.5876C176.357 22.9266 175.554 23.0962 174.559 23.0962H169.287ZM174.254 12.2454H171.27V15.8736H174.254C174.978 15.8736 175.503 15.6872 175.831 15.3142C176.159 14.9412 176.323 14.523 176.323 14.0595C176.323 13.5961 176.159 13.1779 175.831 12.8049C175.503 12.4319 174.978 12.2454 174.254 12.2454ZM174.407 17.4334H171.27V21.4008H174.407C174.961 21.4008 175.413 21.3103 175.763 21.1295C176.114 20.9373 176.368 20.6887 176.526 20.3835C176.684 20.0783 176.763 19.7562 176.763 19.4171C176.763 19.078 176.684 18.7615 176.526 18.4677C176.368 18.1625 176.114 17.9138 175.763 17.7217C175.413 17.5295 174.961 17.4334 174.407 17.4334ZM184.775 23.2657C183.792 23.2657 182.961 23.0453 182.283 22.6045C181.616 22.1637 181.107 21.5873 180.757 20.8752C180.418 20.1631 180.248 19.4058 180.248 18.6033C180.248 17.8008 180.418 17.0435 180.757 16.3314C181.107 15.6193 181.616 15.0429 182.283 14.6021C182.961 14.1613 183.792 13.9409 184.775 13.9409C185.747 13.9409 186.567 14.1613 187.234 14.6021C187.912 15.0429 188.42 15.6193 188.759 16.3314C189.11 17.0435 189.285 17.8008 189.285 18.6033C189.285 19.4058 189.11 20.1631 188.759 20.8752C188.42 21.5873 187.912 22.1637 187.234 22.6045C186.567 23.0453 185.747 23.2657 184.775 23.2657ZM184.775 21.6212C185.329 21.6212 185.792 21.4799 186.165 21.1973C186.55 20.9147 186.838 20.5417 187.03 20.0783C187.234 19.6149 187.335 19.1232 187.335 18.6033C187.335 18.0721 187.234 17.5804 187.03 17.1283C186.838 16.6649 186.55 16.2919 186.165 16.0093C185.792 15.7267 185.329 15.5854 184.775 15.5854C184.221 15.5854 183.752 15.7267 183.368 16.0093C182.984 16.2919 182.695 16.6649 182.503 17.1283C182.311 17.5804 182.215 18.0721 182.215 18.6033C182.215 19.1232 182.311 19.6149 182.503 20.0783C182.695 20.5417 182.984 20.9147 183.368 21.1973C183.752 21.4799 184.221 21.6212 184.775 21.6212ZM194.807 23.2657C194.095 23.2657 193.524 23.1358 193.095 22.8758C192.665 22.6158 192.354 22.2711 192.162 21.8416C191.981 21.4008 191.891 20.926 191.891 20.4174V15.6702H190.314V14.1104H191.891V11.8724H193.824V14.1104H195.926V15.6702H193.824V20.3835C193.824 21.2312 194.293 21.6551 195.231 21.6551C195.468 21.6551 195.689 21.6381 195.892 21.6042C196.095 21.5703 196.197 21.5533 196.197 21.5533V23.1301C196.197 23.1301 196.056 23.1527 195.773 23.1979C195.502 23.2431 195.18 23.2657 194.807 23.2657Z" fill="#FDE6EC"/>
</g>
<defs>
<clipPath id="clip0_49_553">
<rect width="205" height="33.5996" fill="white"/>
</clipPath>
</defs>
</svg>
